<svg version="1.2" xmlns="http://www.w3.org/2000/svg" viewBox="0 0 1396 1515" width="1396" height="1515">
	<title>Banco_de_Chile_logo-svg</title>
	<style>
		.s0 { fill: #173a79 } 
	</style>
	<g id="layer1">
		<g id="g1741">
			<path id="path1245" fill-rule="evenodd" class="s0" d="m436.6 0.1h77.5c55.7 0 244.7 53.1 244.7 53.1h32.6c12.7 0 33.1-9.8 40.8-16.3 5.7 1.6 9.8 2.8 16.3 8.1l-322.2 228.7c-0.4 0-97.9 48.4-97.9 93.9v575.6l-318.2 220.5c4.5-30.6 44.9-58.2 44.9-102v-567.6c0-44.3 305.9-203.7 305.9-249 0-44.9-179.5-81.7-179.5-81.7-57.1-2-80.7-2-138.6 0-56.8 2.1-120.8 38-142.8 36.8 69.3-46.2 252.5-200.1 436.5-200.1zm652.6 12.3c49 0 78.7 52.6 163.1 163.3 20.9 27.3 118.3 146.6 118.3 204.1v44.9c0 116.3-305.9 233.2-305.9 281.8 0 33 160.7 17.5 232.5 65.3 68.5 45.7 97.9 142.4 97.9 195.9v138.8c0 83.7-113.8 114.4-252.9 220.5-61.2 46.6-270 187.8-285.5 187.8 0 0-239.6-130.6-354.9-130.6h-155c-65.1 0-224.3 57.2-236.6 57.2 0 0 240.4-236.9 485.4-236.9h163.2c33.6 0 149.3 47.4 179.5 57.2v-1037c0-10.3-13.1-28.6-32.7-28.6-45.2 0-77.5 82.5-77.5 85.8v616.4c0 27.9-106 109.9-163.1 142.9-85.3 49.4-140.3 96.8-191.7 122.5v-12.2c0 0 44.8-49 44.8-77.6v-669.6c0-8.2 71.8-98 269.3-212.3 114.5-66.1 231.2-179.6 301.8-179.6zm-93.8 763.4v502.2c0 24.8 43.6 45 69.3 45 12.3 0-4 9.3 16.3 0v-469.6c0-30.6-73-74.3-85.6-77.6zm0-481.7v367.4c80.3-48.2 130.5-73.5 130.5-138.8 0-86.1-130.5-228.6-130.5-228.6z"/>
		</g>
	</g>
</svg>