<?xml version="1.0" encoding="utf-8"?>
<svg viewBox="0 0 90.2161 84.4832" width="1396" height="1515" xmlns="http://www.w3.org/2000/svg">
    <defs>
        <style type="text/css">
            .st0{fill:#2C3D46;}
            .st1{fill:#D80132;}
            .st2{fill:#FFFFFF;}
            .st3{fill:#EE811E;}
            .st4{fill:#ED6B1C;}
            .st5{fill:#004A9A;}
            .st6{fill:#0657A1;}
        </style>
    </defs>
    <g style="" transform="matrix(1.7213529348373413, 0, 0, 1.6119669675827026, 0, 1.7763568394002505e-15)">
        <path class="st1"
              d="M0,26.35l18.68-8.11v-6.01l0.01-0.01c6.01-0.93,10.84-3.77,15.02-8.39v0.01L52.4,19.1V0H0V26.35z"/>
        <path class="st2"
              d="M18.71,43.67h15.01V3.84V3.83c-4.19,4.62-9.01,7.46-15.03,8.39l-0.01,0v6.01L0,26.35v5.86l18.69-8.19v-5.8   l6-2.62v5.8l-5.98,2.62v5.72l5.99-2.62v5.73l-6,2.62v-5.72L0,37.94v5.73l18.71-8.21V43.67z"/>
        <polygon class="st3"
                 points="18.7,29.73 18.71,29.73 18.71,24.01 18.69,24.02 18.69,24.02 0,32.21 0,37.94 18.7,29.74  "/>
        <polygon class="st3" points="18.71,35.47 0,43.67 0,43.67 18.71,43.67  "/>
        <polygon class="st3" points="18.71,24.01 24.69,21.39 24.69,15.62 18.69,18.24 18.69,24.02 18.71,24.01  "/>
        <rect x="18.69" y="24.01" class="st4" width="0.02" height="0"/>
        <polygon class="st3" points="18.7,29.74 18.7,35.47 24.7,32.84 24.7,27.11 18.71,29.73 18.71,29.74  "/>
        <rect x="18.7" y="29.73" class="st4" width="0.01" height="0.01"/>
        <polygon class="st3" points="33.73,43.67 52.41,43.67 52.41,19.1 33.72,3.84  "/>
        <polygon class="st4" points="33.71,43.67 33.73,43.67 33.71,3.84  "/>
        <rect x="0" y="52.4" class="st5" width="52.4" height="0.01"/>
        <polygon class="st6" points="33.73,43.67 33.72,43.67 18.71,43.67 0,43.67 0,52.4 52.41,52.4 52.41,43.67  "/>
    </g>
</svg>