<svg version="1.2" xmlns="http://www.w3.org/2000/svg" viewBox="0 0 1603 1621" width="1603" height="1621">
	<title>Banco_Itaú_logo-svg</title>
	<defs>
		<clipPath clipPathUnits="userSpaceOnUse" id="cp1">
			<path d="m-0.6 0.96h1601.57v1619.92h-1601.57z"/>
		</clipPath>
	</defs>
	<style>
		.s0 { fill: #1a5493 } 
		.s1 { fill: #fff212 } 
	</style>
	<g id="Layer">
		<g id="Layer">
			<g id="Layer">
				<g id="Clip-Path" clip-path="url(#cp1)">
					<g id="Layer">
						<path id="Layer" fill-rule="evenodd" class="s0" d="m268.1 0.7h1067.6l13.8 0.3 13.5 1.2 13.4 1.7 13.2 2.3 12.9 3.1 12.7 3.6 12.4 4.2 12.1 4.9 11.8 5.4 11.5 5.9 11.2 6.6 10.8 7 10.5 7.5 10 8.1 9.8 8.5 9.2 8.9 8.9 9.4 8.3 9.7 8 10.3 7.4 10.6 6.9 10.9 6.4 11.4 5.9 11.6 5.5 12 4.6 12.2 4.3 12.5 3.5 12.9 3.1 13.1 2.3 13.3 1.7 13.4 1 13.8 0.4 13.9v1079.9l-0.4 13.9-1 13.7-1.7 13.5-2.3 13.3-3.1 13.1-3.5 12.8-4.3 12.5-4.6 12.2-5.5 12.1-5.9 11.5-6.4 11.4-6.9 10.9-7.4 10.6-8 10.1-8.3 9.9-8.9 9.4-9.2 8.9-9.8 8.5-10 8-10.5 7.5-10.8 7-11.2 6.4-11.5 6-11.8 5.5-12.1 4.7-12.4 4.3-12.7 3.6-12.9 3.1-13.2 2.3-13.4 1.7-13.5 1.1-13.8 0.3h-1067.6l-13.9-0.3-13.5-1.1-13.4-1.7-13.1-2.3-13-3.1-12.6-3.6-12.4-4.3-12.1-4.7-12-5.5-11.5-6-11.1-6.4-10.9-7-10.4-7.5-10.1-8-9.7-8.5-9.2-8.9-8.9-9.4-8.4-9.9-7.9-10.1-7.5-10.6-6.9-10.9-6.4-11.4-5.9-11.5-5.4-12.1-4.7-12.2-4.2-12.5-3.6-12.8-3-13.1-2.3-13.3-1.7-13.5-1.1-13.7-0.3-13.9v-1079.9l0.3-13.9 1.1-13.8 1.7-13.4 2.3-13.3 3-13.1 3.6-12.9 4.2-12.5 4.7-12.2 5.4-12 5.9-11.6 6.4-11.4 6.9-10.9 7.5-10.6 7.9-10.3 8.4-9.7 8.9-9.4 9.2-8.9 9.7-8.5 10.1-8.1 10.4-7.5 10.9-7 11.1-6.6 11.5-5.9 12-5.4 12.1-4.9 12.4-4.2 12.6-3.6 13-3.1 13.1-2.3 13.4-1.7 13.5-1.2z"/>
						<path id="Layer" fill-rule="evenodd" class="s1" d="m134.4 810.6h124.6v540h-124.6z"/>
						<path id="Layer" fill-rule="evenodd" class="s1" d="m829.5 934.3l12.1 0.7 11.7 1.1 11.1 1.6 10.6 2 10.1 2.4 9.7 2.8 9.1 3.2 8.7 3.5 8.2 4 7.8 4.2 7.3 4.7 7 4.9 6.5 5.3 6.1 5.6 5.6 5.9 5.2 6.1 4.9 6.5 4.4 6.7 4.1 7 3.7 7.2 3.4 7.3 2.9 7.7 2.7 7.8 2.3 8 1.9 8.2 1.7 8.5 1.3 8.5 1 8.7 0.7 8.9 0.5 8.9 0.1 9.1v239.3h-101.3l-13.6-42h-1.4l-2.6 3-2.7 3-2.8 2.8-2.9 2.7-2.9 2.8-3.1 2.6-3.2 2.5-3.3 2.5-3.3 2.3-3.5 2.3-3.5 2.2-3.6 2.1-3.7 2-3.8 1.8-4 1.9-3.9 1.7-4 1.6-4.1 1.6-4.2 1.4-4.2 1.4-4.3 1.2-4.4 1.1-4.4 1-4.5 1-4.6 0.8-4.6 0.7-4.7 0.6-4.7 0.5-4.8 0.4-4.8 0.2-4.9 0.2-5 0.1-8.2-0.2-8-0.5-7.8-0.9-7.5-1.2-7.2-1.5-7.1-1.8-6.7-2.2-6.5-2.4-6.3-2.6-6-3-5.8-3.2-5.5-3.4-5.2-3.7-5-3.8-4.7-4.1-4.5-4.2-4.2-4.5-4-4.6-3.7-4.8-3.4-5-3.1-5-3-5.2-2.6-5.3-2.4-5.3-2.1-5.5-1.8-5.6-1.5-5.6-1.2-5.7-1.1-5.7-0.7-5.7-0.4-5.8-0.1-5.8 0.3-9.6 0.8-9.4 1.5-9 2.1-8.7 2.5-8.5 3.1-8.1 3.6-7.9 4.1-7.5 4.8-7.2 5.3-7 5.7-6.6 6.3-6.2 6.7-6.1 7.3-5.7 7.7-5.4 8.2-5 8.7-4.8 9.2-4.4 9.7-4.2 9.9-3.9 10.5-3.5 11.1-3.2 11.3-3 11.8-2.5 12.2-2.3 12.7-1.9 13-1.8 13.4-1.3 13.9-1 14.2-0.7 14.6-0.4 14.9-0.1v-6.2l-0.2-1.9-0.2-2-0.4-2.2-0.5-2.1-0.6-2.2-0.7-2.2-0.9-2.4-1.1-2.3-1.2-2.3-1.4-2.3-1.5-2.5-1.7-2.3-1.9-2.2-2.2-2.4-2.3-2.2-2.5-2.1-2.8-2.2-3-2-3.2-1.9-3.4-1.8-3.7-1.7-4-1.7-4.3-1.5-4.5-1.3-4.8-1.2-5.2-1-5.4-0.9-5.6-0.6-6-0.6-6.4-0.2-6.6-0.1h-4.1l-4.2 0.1-4.1 0.2-4.2 0.4-4.1 0.3-4.2 0.5-4.2 0.5-4.1 0.6-4.2 0.7-4.1 0.7-4.2 0.8-4.2 0.9-4 0.9-4.1 1-4 1-4 1.2-3.9 1.1-3.8 1.2-3.9 1.3-3.7 1.2-3.7 1.3-3.6 1.5-3.6 1.4-3.5 1.4-3.4 1.4-3.3 1.5-3.2 1.5-3.1 1.6-3 1.5-2.9 1.6-2.8 1.6-2.7 1.7-23.5-79.6 3.1-1.7 3.1-1.8 3.3-1.7 3.4-1.7 3.6-1.7 3.7-1.8 3.9-1.7 4-1.6 4.1-1.7 4.3-1.6 4.4-1.6 4.6-1.6 4.7-1.5 4.8-1.5 5-1.4 5.1-1.4 5.3-1.4 5.4-1.3 5.6-1.2 5.6-1.1 5.8-1.1 5.9-1 6-0.9 6.1-0.9 6.3-0.7 6.4-0.8 6.5-0.6 6.6-0.4 6.7-0.4 6.9-0.3 7-0.2h7.2zm58.4 224h-15.5l-3.1 0.1-3 0.1-3 0.1-4.9 0.2-4.8 0.2-4.8 0.4-4.6 0.3-4.6 0.5-4.4 0.6-4.4 0.6-4.2 0.6-4.5 0.7-4.3 0.8-4.4 0.9-4.1 0.9-4.1 1.1-3.9 1.1-3.8 1.1-3.8 1.4-3.6 1.3-3.4 1.4-3.4 1.5-3.2 1.6-3.1 1.8-3 1.7-2.8 1.8-2.7 2-2.6 2.1-2.4 2.1-2.3 2.1-2.1 2.3-2 2.5-1.8 2.5-1.6 2.5-1.5 2.8-1.3 2.8-1.2 2.8-1 3.1-0.8 3-0.6 3.2-0.5 3.4-0.3 3.3-0.1 3.6 0.1 3.1 0.2 3 0.3 3 0.5 2.9 0.6 2.7 0.7 2.7 0.9 2.6 0.9 2.4 1.1 2.4 1.2 2.3 1.4 2.1 1.4 2.2 1.5 2 1.7 1.8 1.7 1.8 1.9 1.7 1.9 1.6 2.1 1.5 2.1 1.4 4.6 2.4 2.4 1.1 2.6 1.1 2.5 0.8 2.7 0.8 2.8 0.7 2.8 0.5 2.9 0.5 3 0.4 3 0.2 3.1 0.2h6.8l3.7-0.3 3.5-0.3 3.5-0.5 3.4-0.6 3.4-0.7 6.4-1.8 3.2-1.2 6-2.4 2.9-1.4 2.8-1.5 2.8-1.5 2.6-1.8 2.6-1.7 2.5-1.8 2.5-1.9 2.3-2 2.2-2 2.2-2.1 2.1-2.1 1.9-2.3 1.9-2.2 1.8-2.2 1.7-2.3 1.6-2.5 1.5-2.3 1.4-2.4 1.3-2.5 1.2-2.4 1.1-2.5 0.4-1 0.4-1 0.3-0.9 0.3-1.2 0.4-1.3 0.2-0.9 0.6-2.5 0.4-2.6 0.3-2.6 0.3-2.5 0.2-2.7 0.2-2.5 0.1-2.5z"/>
						<path id="Layer" fill-rule="evenodd" class="s1" d="m1469.2 945.9v404.7h-98.7l-15.6-57.5-1.6 2.4-1.7 2.4-1.9 2.5-2.1 2.5-2.2 2.7-2.3 2.7-2.5 2.8-2.7 2.9-2.8 2.9-2.9 2.8-3.1 2.9-3.3 2.7-3.5 2.6-3.6 2.7-3.9 2.5-3.9 2.5-4.1 2.5-4.3 2.4-4.5 2.2-4.7 2.3-4.9 2-5 2-5.3 1.9-5.4 1.9-2.8 0.8-2.9 0.8-2.9 0.8-2.9 0.6-3 0.7-3.1 0.5-3.1 0.6-3.1 0.4-3.2 0.5-3.3 0.3-3.3 0.3-3.5 0.3-3.3 0.2-3.4 0.1-3.5 0.1h-3.6-4.1l-4.1-0.2-4-0.1-4.1-0.3-3.9-0.4-3.9-0.4-3.8-0.5-3.8-0.6-3.8-0.6-3.7-0.8-3.6-0.8-3.7-0.9-3.5-0.9-3.6-1.2-3.4-1.1-3.5-1.2-3.4-1.3-3.3-1.3-3.3-1.5-3.2-1.6-3.1-1.7-3.1-1.7-3-1.8-3-1.9-2.9-2.1-2.9-2.1-2.8-2.2-2.7-2.4-2.7-2.3-2.6-2.5-2.6-2.5-2.4-2.8-2.4-2.7-2.4-2.8-2.3-3-2.2-3-2.1-3.1-2.2-3.2-2-3.3-1.9-3.4-1.9-3.5-1.9-3.6-1.7-3.6-1.7-3.8-1.7-3.8-1.5-4-1.6-4-1.4-4.2-1.4-4.1-1.2-4.4-1.2-4.4-1.1-4.6-1.1-4.6-0.9-4.8-0.8-4.8-0.8-5-0.6-5.2-0.6-5.1-0.5-5.4-0.4-5.5-0.3-5.5-0.2-5.6-0.2-5.8v-5.9-236.6h121.5v214.1l0.1 5.8 0.2 5.7 0.3 5.6 0.5 5.4 0.6 5.2 0.7 5.1 0.9 4.8 1 4.8 1.1 4.6 1.3 4.4 1.5 4.3 1.5 4 1.8 3.9 1.9 3.7 1.9 3.6 2.3 3.3 2.3 3.1 2.4 3 2.6 2.8 2.7 2.5 3 2.5 3.1 2.2 3.2 2 3.4 1.7 3.5 1.7 3.7 1.4 3.9 1.2 4 0.9 4.2 0.8 4.4 0.5 4.5 0.3 4.6 0.1h3.8l3.6-0.3 3.6-0.3 3.4-0.6 3.4-0.6 3.3-0.8 3.2-0.9 3.1-1.1 3-1.1 2.9-1.4 2.8-1.4 2.9-1.4 2.5-1.6 2.6-1.6 2.4-1.9 2.4-1.8 2.3-1.9 2.3-1.9 2.1-2.1 2-2 1.8-2.1 2-2.2 1.7-2.3 1.7-2.2 1.6-2.2 1.5-2.3 1.4-2.4 1.3-2.2 1.2-2.3 1.2-2.4 1.1-2.3 0.9-2.3 1.1-2.9 0.9-3 0.7-3 0.5-3.3 0.5-3.2 0.3-3.4 0.2-3.4v-3.5-237.3z"/>
						<path id="Layer" fill-rule="evenodd" class="s1" d="m496.7 810.6v135.2h77.3v92.2h-77.3v143.4 4.6l0.1 4.5 0.2 4.2 0.2 4.3 0.3 4 0.4 3.9 0.5 3.8 0.5 3.6 0.7 3.5 0.7 3.4 0.9 3.2 0.9 3.1 1.1 2.9 1.2 2.8 1.3 2.7 1.4 2.4 1.5 2.5 1.7 2.2 1.8 2 2 2 2 1.7 2.3 1.7 2.4 1.4 2.5 1.3 2.7 1.2 2.9 1.1 3.1 0.8 3.2 0.7 3.3 0.6 3.6 0.4 3.8 0.2 4 0.1 4.5-0.1 4.2-0.3 3.9-0.3 3.5-0.5 3.1-0.5 2.5-0.6 2.1-0.6 1.6-0.7v94.1l-6.1 2.3-6.2 2.3-3.3 1-3.3 1-3.5 0.9-3.8 0.8-4 0.8-4.2 0.7-4.6 0.6-4.9 0.5-5.1 0.4-5.8 0.3-6.1 0.2-6.6 0.1-4-0.1-3.9-0.1-3.9-0.2-3.8-0.4-3.8-0.4-3.7-0.4-3.7-0.6-3.6-0.7-3.6-0.7-3.5-0.8-3.5-0.8-3.4-1-3.3-1-3.3-1.2-3.2-1.1-3.2-1.3-3-1.2-3.2-1.4-2.9-1.4-2.9-1.5-2.8-1.6-2.7-1.5-2.7-1.6-2.5-1.7-2.5-1.8-2.5-1.8-2.3-1.8-2.3-1.8-2.1-1.9-2.1-2-2-2-2-2-2.1-2.3-2.1-2.6-2-2.5-1.9-2.6-1.9-2.9-1.8-2.8-1.7-2.9-1.6-3.1-1.6-3-1.5-3.3-1.4-3.2-1.4-3.4-1.3-3.5-1.2-3.5-1.2-3.7-1.1-3.7-1-3.9-0.9-3.8-0.9-4.1-0.8-4-0.8-4.2-0.7-4.2-0.6-4.4-0.5-4.3-0.5-4.6-0.4-4.5-0.4-4.7-0.3-4.8-0.2-4.7-0.1-5-0.1-4.9-0.1-5.1v-164.6h-56.8v-92.2h56.8v-135.2z"/>
						<path id="Layer" fill-rule="evenodd" class="s1" d="m1417.6 810.5l-105.9 109.1h-86.8l75.1-109.1z"/>
					</g>
				</g>
			</g>
		</g>
	</g>
</svg>