<svg version="1.2" xmlns="http://www.w3.org/2000/svg" viewBox="0 0 1582 1497" width="1582" height="1497">
    <title>BSBR_BIG copy-svg</title>
    <style>
        .s0 { fill: #ea1d25 }
    </style>
    <g id="g8">
        <path id="path6" fill-rule="evenodd" class="s0"
              d="m1582 1067.7c0 237.9-354 429.2-791 429.2-437 0-791-191.3-791-429.2 0-169.5 184-317.6 447.7-386 0 65.1 14.6 129.6 47.1 187.4l249.6 429.2c18 32.5 32 68.4 39.3 104.9l11.2-18c61.2-104.9 61.2-238.4 0-342.8l-199.1-342.8c-61.2-108.3-61.2-237.9 0-342.8l11.2-17.9c7.3 36.4 21.3 72.3 39.8 104.9l115.6 202 180.6 313.6c18 32.5 32.6 68.4 39.3 104.3l11.2-17.9c61.2-104.4 61.2-237.9 0-342.2l-198.6-342.8c-61.7-105-61.7-237.9 0-342.8l10.7-18c7.3 35.9 21.9 72.4 39.8 104.4l245.7 429.2c28.6 47.1 43.2 100.9 46.6 155.4 267.6 68.4 448.2 216.5 444.3 378.7z"/>
    </g>
</svg>