<svg xmlns="http://www.w3.org/2000/svg" width="287" height="192" viewBox="0 0 287 192" fill="none">
    <script xmlns=""/>
    <rect x="0.5" y="0.5" width="286" height="191" rx="7.5" fill="#1E293B" stroke="#0F172A"/>
    <path d="M8 0.5H279C283.142 0.5 286.5 3.85787 286.5 8V39.5H0.5V8C0.5 3.85786 3.85786 0.5 8 0.5Z" fill="#1E293B"/>
    <rect x="16" y="16" width="40" height="8" rx="4" fill="#334155"/>
    <rect x="72" y="16" width="40" height="8" rx="4" fill="#334155"/>
    <rect x="128" y="16" width="40" height="8" rx="4" fill="#334155"/>
    <path d="M8 0.5H279C283.142 0.5 286.5 3.85787 286.5 8V39.5H0.5V8C0.5 3.85786 3.85786 0.5 8 0.5Z" stroke="#0F172A"/>
    <rect x="18" y="63" width="92" height="8" rx="4" fill="#475569"/>
    <rect x="18" y="81" width="174" height="87" rx="8" fill="#334155"/>
    <rect x="204" y="81" width="49" height="87" rx="8" fill="#334155"/>
    <rect x="30" y="93" width="92" height="8" rx="4" fill="#bedc4b"/>
</svg>