<?xml version="1.0" encoding="utf-8"?>
<svg viewBox="52.0592 11.9999 221.5058 254.8664" width="221.5058" height="254.8664" xmlns="http://www.w3.org/2000/svg">
    <g transform="matrix(0.050000004470348365, 0, 0, -0.050000004470348365, 0, 368.00000000000006)" fill="#B59A6B"
       stroke="none">
        <path d="M 1957 6805 C 1662 6201 1563 5718 1619 5160 C 1797 3373 3446 2167 5230 2518 C 5548 2580 5550 2593 5246 2605 C 3287 2688 1799 4447 2001 6443 C 2023 6662 2092 6997 2122 7029 C 2144 7052 2146 7120 2125 7120 C 2117 7120 2041 6978 1957 6805 Z"/>
        <path d="M 1341 6118 C 803 4959 997 3744 1859 2879 C 2429 2307 3094 2046 3930 2066 C 4343 2075 4435 2089 4770 2191 C 5030 2271 5067 2321 4829 2270 C 3666 2024 2230 2787 1637 3966 C 1304 4628 1210 5660 1432 6197 C 1464 6275 1467 6300 1443 6300 C 1433 6300 1388 6218 1341 6118 Z"/>
        <path d="M 3740 4128 C 3334 3953 3451 3360 3891 3360 C 4025 3360 4121 3401 4196 3490 C 4226 3526 4282 3571 4320 3590 C 4359 3609 4393 3628 4397 3631 C 4416 3648 4235 3980 4176 4038 C 4055 4158 3888 4192 3740 4128 Z"/>
        <path d="M1227 3273 c79 -765 671 -1280 1436 -1249 275 11 325 45 90 62 -638&#10;45 -1319 604 -1474 1211 -37 145 -67 131 -52 -24z"/>
    </g>
</svg>