<svg xmlns="http://www.w3.org/2000/svg" version="1.1" id="svg2" xml:space="preserve" width="283.48001"
     height="151.65334" viewBox="0 0 283.48001 151.65334">
    <g id="g10" transform="matrix(1.3333333,0,0,-1.3333333,-124.98667,266.33333)">
        <g id="g16">
            <g id="g18" clip-path="url(#clipPath22)">
                <g id="g76" transform="translate(176.7369,152.0714)"><path d="m 0,0 c 1.596,0.964 2.845,2.283 3.752,3.958 0.906,1.674 1.359,3.555 1.359,5.643 0,2.088 -0.453,3.977 -1.359,5.672 C 2.845,16.967 1.596,18.295 0,19.26 c -1.595,0.966 -3.378,1.449 -5.347,1.449 -1.97,0 -3.752,-0.483 -5.347,-1.449 -1.596,-0.965 -2.857,-2.293 -3.781,-3.987 -0.927,-1.695 -1.389,-3.584 -1.389,-5.672 0,-2.088 0.462,-3.969 1.389,-5.643 0.924,-1.675 2.185,-2.994 3.781,-3.958 1.595,-0.967 3.377,-1.449 5.347,-1.449 1.969,0 3.752,0.482 5.347,1.449 m 2.895,23.87 c 2.462,-1.439 4.411,-3.408 5.85,-5.908 1.437,-2.503 2.156,-5.289 2.156,-8.361 V -3.575 c 0,-0.867 -0.286,-1.587 -0.856,-2.157 -0.572,-0.572 -1.291,-0.857 -2.157,-0.857 -0.867,0 -1.586,0.285 -2.157,0.857 -0.571,0.57 -0.856,1.29 -0.856,2.157 v 2.186 c -1.379,-1.694 -3.054,-3.013 -5.023,-3.959 -1.97,-0.945 -4.097,-1.418 -6.381,-1.418 -2.836,0 -5.406,0.709 -7.711,2.127 -2.304,1.418 -4.116,3.377 -5.436,5.879 -1.32,2.501 -1.979,5.288 -1.979,8.361 0,3.072 0.709,5.858 2.127,8.361 1.419,2.5 3.377,4.469 5.879,5.908 2.502,1.437 5.268,2.157 8.302,2.157 3.033,0 5.78,-0.72 8.242,-2.157" style="fill:#9bd63e;fill-opacity:1;fill-rule:nonzero;stroke:none" id="path78"/></g>
                <g id="g80" transform="translate(218.2143,152.0714)"><path d="M 0,0 C 1.595,0.964 2.855,2.283 3.781,3.958 4.706,5.632 5.17,7.513 5.17,9.601 5.17,11.689 4.706,13.578 3.781,15.273 2.855,16.967 1.595,18.295 0,19.26 c -1.596,0.966 -3.378,1.449 -5.348,1.449 -1.969,0 -3.752,-0.483 -5.347,-1.449 -1.595,-0.965 -2.846,-2.293 -3.752,-3.987 -0.906,-1.695 -1.359,-3.584 -1.359,-5.672 0,-2.088 0.453,-3.969 1.359,-5.643 0.906,-1.675 2.157,-2.994 3.752,-3.958 1.595,-0.967 3.378,-1.449 5.347,-1.449 1.97,0 3.752,0.482 5.348,1.449 M 2.954,23.87 C 5.455,22.431 7.415,20.462 8.833,17.962 10.251,15.459 10.96,12.673 10.96,9.601 10.96,6.528 10.3,3.741 8.981,1.24 7.661,-1.262 5.849,-3.221 3.545,-4.639 1.24,-6.057 -1.33,-6.766 -4.166,-6.766 c -2.285,0 -4.412,0.473 -6.381,1.418 -1.971,0.946 -3.644,2.265 -5.022,3.959 v -15.952 c 0,-0.907 -0.277,-1.636 -0.828,-2.187 -0.551,-0.551 -1.28,-0.827 -2.185,-0.827 -0.867,0 -1.587,0.276 -2.157,0.827 -0.572,0.551 -0.857,1.28 -0.857,2.187 V 9.601 c 0,3.072 0.718,5.858 2.156,8.361 1.438,2.5 3.388,4.469 5.85,5.908 2.461,1.437 5.209,2.157 8.242,2.157 3.033,0 5.8,-0.72 8.302,-2.157" style="fill:#9bd63e;fill-opacity:1;fill-rule:nonzero;stroke:none" id="path82"/></g>
                <g id="g84" transform="translate(259.7512,152.0714)"><path d="M 0,0 C 1.595,0.964 2.855,2.283 3.781,3.958 4.706,5.632 5.17,7.513 5.17,9.601 5.17,11.689 4.706,13.578 3.781,15.273 2.855,16.967 1.595,18.295 0,19.26 c -1.596,0.966 -3.378,1.449 -5.348,1.449 -1.969,0 -3.752,-0.483 -5.347,-1.449 -1.595,-0.965 -2.846,-2.293 -3.752,-3.987 -0.906,-1.695 -1.359,-3.584 -1.359,-5.672 0,-2.088 0.453,-3.969 1.359,-5.643 0.906,-1.675 2.157,-2.994 3.752,-3.958 1.595,-0.967 3.378,-1.449 5.347,-1.449 1.97,0 3.752,0.482 5.348,1.449 M 2.954,23.87 C 5.455,22.431 7.415,20.462 8.833,17.962 10.251,15.459 10.96,12.673 10.96,9.601 10.96,6.528 10.3,3.741 8.981,1.24 7.661,-1.262 5.849,-3.221 3.545,-4.639 1.24,-6.057 -1.33,-6.766 -4.166,-6.766 c -2.285,0 -4.412,0.473 -6.381,1.418 -1.971,0.946 -3.644,2.265 -5.022,3.959 v -15.952 c 0,-0.907 -0.277,-1.636 -0.828,-2.187 -0.551,-0.551 -1.28,-0.827 -2.185,-0.827 -0.867,0 -1.587,0.276 -2.157,0.827 -0.572,0.551 -0.857,1.28 -0.857,2.187 V 9.601 c 0,3.072 0.718,5.858 2.156,8.361 1.438,2.5 3.388,4.469 5.85,5.908 2.461,1.437 5.209,2.157 8.242,2.157 3.033,0 5.8,-0.72 8.302,-2.157" style="fill:#9bd63e;fill-opacity:1;fill-rule:nonzero;stroke:none" id="path86"/></g>
                <g id="g88" transform="translate(304.4479,175.2625)"><path d="m 0,0 c 0,-0.395 -0.118,-0.867 -0.355,-1.419 l -18.08,-40.651 c -0.472,-1.221 -1.241,-1.83 -2.304,-1.83 -0.394,0 -0.867,0.117 -1.418,0.354 -1.182,0.513 -1.772,1.28 -1.772,2.304 0,0.473 0.117,0.945 0.354,1.418 l 5.908,13.295 -13.294,25.229 c -0.198,0.354 -0.295,0.768 -0.295,1.24 0,0.511 0.157,0.984 0.473,1.418 0.314,0.433 0.728,0.768 1.24,1.005 0.355,0.157 0.748,0.236 1.182,0.236 1.102,0 1.929,-0.552 2.482,-1.654 l 10.812,-21.507 9.513,21.448 c 0.511,1.142 1.28,1.713 2.304,1.713 0.512,0 0.984,-0.098 1.418,-0.295 C -0.611,1.831 0,1.062 0,0" style="fill:#9bd63e;fill-opacity:1;fill-rule:nonzero;stroke:none" id="path90"/></g>
                <g id="g92" transform="translate(118.9044,111.9299)"><path d="m 0,0 c 2.679,0 4.884,0.758 6.618,2.275 1.732,1.516 2.599,3.476 2.599,5.879 0,2.6 -0.867,4.726 -2.599,6.381 C 4.884,16.189 2.679,17.017 0,17.017 H -7.563 V 0 Z m 16.84,-20.68 c 0,-0.787 -0.266,-1.447 -0.798,-1.979 -0.532,-0.532 -1.251,-0.798 -2.156,-0.798 -1.144,0 -2.03,0.492 -2.659,1.478 L 1.064,-5.672 H 0 -7.563 v -14.713 c 0,-0.866 -0.286,-1.594 -0.856,-2.186 -0.572,-0.591 -1.31,-0.886 -2.216,-0.886 -0.867,0 -1.595,0.295 -2.186,0.886 -0.591,0.592 -0.887,1.32 -0.887,2.186 v 40.001 c 0,0.907 0.296,1.644 0.887,2.216 0.591,0.571 1.319,0.857 2.186,0.857 H 0 c 2.915,0 5.525,-0.612 7.829,-1.831 2.305,-1.221 4.096,-2.936 5.377,-5.142 1.279,-2.205 1.92,-4.727 1.92,-7.562 0,-2.797 -0.709,-5.278 -2.127,-7.444 -1.418,-2.168 -3.348,-3.803 -5.79,-4.905 l 9.04,-14.535 c 0.393,-0.63 0.591,-1.28 0.591,-1.95" style="fill:#47978e;fill-opacity:1;fill-rule:nonzero;stroke:none" id="path94"/></g>
                <g id="g96" transform="translate(149.244,113.5845)"><path d="M 0,0 C -1.793,-1.575 -2.925,-3.684 -3.397,-6.323 H 16.278 C 15.924,-3.684 14.938,-1.575 13.324,0 11.708,1.575 9.602,2.364 7.002,2.364 4.126,2.364 1.792,1.575 0,0 m 20.946,-10.311 c -0.512,-0.492 -1.162,-0.737 -1.95,-0.737 H -3.456 c 0.433,-2.758 1.684,-4.984 3.751,-6.677 2.068,-1.694 4.599,-2.541 7.593,-2.541 1.182,0 2.412,0.216 3.693,0.65 1.28,0.433 2.334,0.964 3.161,1.596 0.551,0.432 1.201,0.649 1.95,0.649 0.748,0 1.339,-0.198 1.772,-0.591 0.709,-0.59 1.064,-1.26 1.064,-2.008 0,-0.71 -0.316,-1.301 -0.946,-1.774 -1.339,-1.064 -3.004,-1.929 -4.993,-2.599 -1.989,-0.67 -3.89,-1.005 -5.701,-1.005 -3.23,0 -6.125,0.699 -8.685,2.098 -2.561,1.398 -4.56,3.339 -5.997,5.82 -1.439,2.482 -2.157,5.297 -2.157,8.449 0,3.151 0.679,5.978 2.038,8.478 1.36,2.501 3.25,4.451 5.672,5.85 2.423,1.397 5.17,2.098 8.243,2.098 3.032,0 5.651,-0.67 7.858,-2.008 2.206,-1.34 3.899,-3.212 5.082,-5.615 1.181,-2.402 1.772,-5.16 1.772,-8.271 0,-0.749 -0.257,-1.369 -0.768,-1.862" style="fill:#47978e;fill-opacity:1;fill-rule:nonzero;stroke:none" id="path98"/></g>
                <g id="g100" transform="translate(202.0355,119.3165)"><path d="m 0,0 c 2.166,-1.183 3.86,-2.906 5.082,-5.171 1.22,-2.265 1.831,-4.993 1.831,-8.183 v -14.535 c 0,-0.867 -0.286,-1.587 -0.856,-2.157 -0.572,-0.571 -1.291,-0.856 -2.157,-0.856 -0.867,0 -1.586,0.285 -2.157,0.856 -0.571,0.57 -0.856,1.29 -0.856,2.157 v 14.535 c 0,3.19 -0.857,5.603 -2.571,7.238 -1.713,1.634 -3.988,2.451 -6.824,2.451 -1.654,0 -3.161,-0.335 -4.52,-1.003 -1.359,-0.67 -2.422,-1.577 -3.191,-2.719 -0.768,-1.143 -1.152,-2.423 -1.152,-3.84 v -16.662 c 0,-0.867 -0.276,-1.587 -0.827,-2.157 -0.552,-0.571 -1.281,-0.856 -2.186,-0.856 -0.867,0 -1.586,0.285 -2.157,0.856 -0.571,0.57 -0.856,1.29 -0.856,2.157 v 26.352 c 0,0.905 0.285,1.634 0.856,2.186 0.571,0.551 1.29,0.828 2.157,0.828 0.905,0 1.634,-0.277 2.186,-0.828 0.551,-0.552 0.827,-1.281 0.827,-2.186 v -0.649 c 1.26,1.259 2.757,2.234 4.491,2.924 1.733,0.689 3.583,1.034 5.554,1.034 C -4.609,1.772 -2.167,1.181 0,0" style="fill:#47978e;fill-opacity:1;fill-rule:nonzero;stroke:none" id="path102"/></g>
                <g id="g104" transform="translate(234.5027,93.554)"><path d="m 0,0 c 0.492,-0.551 0.739,-1.261 0.739,-2.126 0,-0.867 -0.325,-1.577 -0.975,-2.128 -0.65,-0.552 -1.488,-0.827 -2.511,-0.827 h -1.064 c -1.93,0 -3.692,0.502 -5.288,1.507 -1.595,1.004 -2.846,2.372 -3.752,4.106 -0.907,1.734 -1.359,3.684 -1.359,5.849 v 14.594 h -2.718 c -0.827,0 -1.497,0.237 -2.008,0.71 -0.513,0.473 -0.769,1.064 -0.769,1.772 0,0.788 0.256,1.418 0.769,1.891 0.511,0.473 1.181,0.71 2.008,0.71 h 2.718 v 8.507 c 0,0.866 0.275,1.576 0.828,2.128 0.551,0.551 1.26,0.827 2.127,0.827 0.866,0 1.575,-0.276 2.127,-0.827 0.551,-0.552 0.827,-1.262 0.827,-2.128 v -8.507 h 5.022 c 0.827,0 1.497,-0.237 2.009,-0.71 0.511,-0.473 0.768,-1.103 0.768,-1.891 0,-0.708 -0.257,-1.299 -0.768,-1.772 -0.512,-0.473 -1.182,-0.71 -2.009,-0.71 H -8.301 V 6.381 c 0,-1.575 0.433,-2.894 1.299,-3.958 0.867,-1.064 1.93,-1.596 3.191,-1.596 h 2.01 C -1.092,0.827 -0.493,0.552 0,0" style="fill:#47978e;fill-opacity:1;fill-rule:nonzero;stroke:none" id="path106"/></g>
                <g id="g108" transform="translate(112.0098,194.6332)"><path d="m 0,0 c 0,0.907 -0.286,1.644 -0.857,2.216 -0.571,0.571 -1.31,0.856 -2.215,0.856 -0.867,0 -1.595,-0.285 -2.186,-0.856 C -5.85,1.644 -6.145,0.907 -6.145,0 v -9.767 c 2.04,-0.763 4.088,-1.409 6.145,-1.946 z" style="fill:#9bd63e;fill-opacity:1;fill-rule:nonzero;stroke:none" id="path110"/></g>
                <g id="g112" transform="translate(105.8649,148.6141)"><path d="m 0,0 c 0,-0.867 0.295,-1.594 0.887,-2.186 0.59,-0.591 1.319,-0.886 2.185,-0.886 0.906,0 1.645,0.295 2.216,0.886 0.571,0.592 0.857,1.319 0.857,2.186 v 17.607 4.531 C 4.099,22.608 2.05,23.195 0,23.878 Z" style="fill:#9bd63e;fill-opacity:1;fill-rule:nonzero;stroke:none" id="path114"/></g>
                <g id="g116" transform="translate(139.4253,166.2215)"><path d="m 0,0 v -17.607 c 0,-0.867 0.295,-1.595 0.887,-2.187 0.59,-0.591 1.319,-0.886 2.185,-0.886 0.867,0 1.586,0.285 2.157,0.857 0.571,0.571 0.857,1.309 0.857,2.216 V 6.424 C 4.067,5.722 2.04,5.111 0,4.625 Z" style="fill:#9bd63e;fill-opacity:1;fill-rule:nonzero;stroke:none" id="path118"/></g>
                <g id="g120" transform="translate(145.5114,194.6332)"><path d="m 0,0 c 0,0.907 -0.287,1.644 -0.857,2.216 -0.571,0.571 -1.29,0.856 -2.157,0.856 -0.867,0 -1.595,-0.285 -2.185,-0.856 C -5.791,1.644 -6.086,0.907 -6.086,0 v -11.58 c 2.031,0.552 4.06,1.223 6.086,2.016 z" style="fill:#9bd63e;fill-opacity:1;fill-rule:nonzero;stroke:none" id="path122"/></g>
                <g id="g124" transform="translate(154.4215,183.8754)"><path d="M 0,0 C -0.611,0.572 -1.349,0.857 -2.216,0.857 -2.846,0.818 -3.357,0.68 -3.751,0.443 c -8.39,-4.136 -16.82,-6.204 -25.29,-6.204 -4.134,0 -8.35,0.532 -12.644,1.595 -4.292,1.064 -8.547,2.62 -12.761,4.668 -0.473,0.236 -0.965,0.355 -1.478,0.355 -0.866,0 -1.594,-0.285 -2.187,-0.857 -0.59,-0.571 -0.886,-1.29 -0.886,-2.157 0,-0.63 0.159,-1.171 0.474,-1.624 0.315,-0.453 0.827,-0.857 1.535,-1.212 9.376,-4.451 18.711,-6.677 28.008,-6.677 9.492,0 18.768,2.226 27.828,6.677 0.67,0.276 1.181,0.67 1.537,1.182 0.354,0.512 0.532,1.063 0.532,1.654 C 0.917,-1.29 0.611,-0.571 0,0" style="fill:#9bd63e;fill-opacity:1;fill-rule:nonzero;stroke:none" id="path126"/></g>
            </g>
        </g>
    </g>
</svg>