<svg
        xmlns="http://www.w3.org/2000/svg" viewBox="0 0 401.67999 116.69333"
        height="116.69333" width="401.67999" xml:space="preserve" id="svg2" version="1.1">

    <g clip-path="url(#clipPath14)" transform="matrix(1.3333333,0,0,-1.3333333,-76.146667,592.44)" id="g10">
        <g id="g20">
            <g clip-path="url(#clipPath26)" id="g22">
                <g transform="translate(133.7474,389.913)" id="g28"><path id="path30" style="fill:#ffffff;fill-opacity:1;fill-rule:nonzero;stroke:none" d="m 0,0 c 1.159,0.7 2.066,1.658 2.725,2.875 0.657,1.215 0.987,2.581 0.987,4.097 0,1.516 -0.33,2.888 -0.987,4.119 -0.659,1.23 -1.566,2.195 -2.725,2.896 -1.158,0.701 -2.453,1.052 -3.883,1.052 -1.431,0 -2.725,-0.351 -3.883,-1.052 -1.159,-0.701 -2.074,-1.666 -2.746,-2.896 -0.673,-1.231 -1.008,-2.603 -1.008,-4.119 0,-1.516 0.335,-2.882 1.008,-4.097 C -9.84,1.658 -8.925,0.7 -7.766,0 c 1.158,-0.702 2.452,-1.052 3.883,-1.052 1.43,0 2.725,0.35 3.883,1.052 M 2.103,17.334 C 3.89,16.289 5.306,14.859 6.35,13.043 7.394,11.226 7.916,9.203 7.916,6.972 v -9.568 c 0,-0.63 -0.207,-1.152 -0.622,-1.566 -0.415,-0.416 -0.937,-0.623 -1.566,-0.623 -0.629,0 -1.152,0.207 -1.566,0.623 -0.415,0.414 -0.622,0.936 -0.622,1.566 v 1.588 c -1.002,-1.231 -2.217,-2.189 -3.647,-2.876 -1.431,-0.686 -2.976,-1.03 -4.634,-1.03 -2.06,0 -3.926,0.516 -5.6,1.545 -1.673,1.03 -2.989,2.452 -3.947,4.27 -0.959,1.816 -1.437,3.84 -1.437,6.071 0,2.231 0.515,4.254 1.544,6.071 1.03,1.816 2.453,3.246 4.269,4.291 1.817,1.043 3.826,1.566 6.029,1.566 2.202,0 4.197,-0.523 5.986,-1.566"/></g>
                <g transform="translate(163.8673,389.913)" id="g32"><path id="path34" style="fill:#ffffff;fill-opacity:1;fill-rule:nonzero;stroke:none" d="m 0,0 c 1.158,0.7 2.073,1.658 2.746,2.875 0.672,1.215 1.008,2.581 1.008,4.097 0,1.516 -0.336,2.888 -1.008,4.119 -0.673,1.23 -1.588,2.195 -2.746,2.896 -1.159,0.701 -2.453,1.052 -3.883,1.052 -1.431,0 -2.725,-0.351 -3.883,-1.052 -1.159,-0.701 -2.067,-1.666 -2.725,-2.896 -0.658,-1.231 -0.987,-2.603 -0.987,-4.119 0,-1.516 0.329,-2.882 0.987,-4.097 C -9.833,1.658 -8.925,0.7 -7.766,0 c 1.158,-0.702 2.452,-1.052 3.883,-1.052 1.43,0 2.724,0.35 3.883,1.052 m 2.145,17.334 c 1.816,-1.045 3.24,-2.475 4.269,-4.291 1.03,-1.817 1.545,-3.84 1.545,-6.071 0,-2.231 -0.48,-4.255 -1.437,-6.071 -0.959,-1.818 -2.275,-3.24 -3.948,-4.27 -1.673,-1.029 -3.54,-1.545 -5.599,-1.545 -1.659,0 -3.204,0.344 -4.634,1.03 -1.431,0.687 -2.646,1.645 -3.647,2.876 v -11.585 c 0,-0.658 -0.201,-1.188 -0.601,-1.588 -0.401,-0.4 -0.93,-0.6 -1.587,-0.6 -0.63,0 -1.152,0.2 -1.567,0.6 -0.415,0.4 -0.622,0.93 -0.622,1.588 V 6.972 c 0,2.231 0.522,4.254 1.566,6.071 1.044,1.816 2.46,3.246 4.248,4.291 1.787,1.043 3.783,1.566 5.986,1.566 2.202,0 4.211,-0.523 6.028,-1.566"/></g>
                <g transform="translate(194.0305,389.913)" id="g36"><path id="path38" style="fill:#ffffff;fill-opacity:1;fill-rule:nonzero;stroke:none" d="m 0,0 c 1.158,0.7 2.073,1.658 2.746,2.875 0.672,1.215 1.008,2.581 1.008,4.097 0,1.516 -0.336,2.888 -1.008,4.119 -0.673,1.23 -1.588,2.195 -2.746,2.896 -1.159,0.701 -2.453,1.052 -3.883,1.052 -1.431,0 -2.725,-0.351 -3.883,-1.052 -1.159,-0.701 -2.067,-1.666 -2.725,-2.896 -0.658,-1.231 -0.987,-2.603 -0.987,-4.119 0,-1.516 0.329,-2.882 0.987,-4.097 C -9.833,1.658 -8.925,0.7 -7.766,0 c 1.158,-0.702 2.452,-1.052 3.883,-1.052 1.43,0 2.724,0.35 3.883,1.052 m 2.145,17.334 c 1.816,-1.045 3.24,-2.475 4.269,-4.291 1.03,-1.817 1.545,-3.84 1.545,-6.071 0,-2.231 -0.48,-4.255 -1.437,-6.071 -0.959,-1.818 -2.275,-3.24 -3.948,-4.27 -1.673,-1.029 -3.54,-1.545 -5.599,-1.545 -1.659,0 -3.204,0.344 -4.634,1.03 -1.431,0.687 -2.646,1.645 -3.647,2.876 v -11.585 c 0,-0.658 -0.201,-1.188 -0.601,-1.588 -0.401,-0.4 -0.93,-0.6 -1.587,-0.6 -0.63,0 -1.152,0.2 -1.567,0.6 -0.415,0.4 -0.622,0.93 -0.622,1.588 V 6.972 c 0,2.231 0.522,4.254 1.566,6.071 1.044,1.816 2.46,3.246 4.248,4.291 1.787,1.043 3.783,1.566 5.986,1.566 2.202,0 4.211,-0.523 6.028,-1.566"/></g>
                <g transform="translate(226.4883,406.7538)" id="g40"><path id="path42" style="fill:#ffffff;fill-opacity:1;fill-rule:nonzero;stroke:none" d="M 0,0 C 0,-0.287 -0.086,-0.63 -0.258,-1.031 L -13.387,-30.55 c -0.343,-0.887 -0.901,-1.329 -1.674,-1.329 -0.285,0 -0.629,0.085 -1.029,0.257 -0.858,0.372 -1.287,0.929 -1.287,1.673 0,0.343 0.085,0.686 0.257,1.029 l 4.291,9.655 -9.654,18.321 c -0.144,0.257 -0.215,0.558 -0.215,0.9 0,0.372 0.114,0.715 0.344,1.03 0.228,0.315 0.529,0.558 0.9,0.73 0.258,0.114 0.544,0.172 0.859,0.172 0.8,0 1.401,-0.402 1.802,-1.202 l 7.852,-15.618 6.908,15.575 c 0.371,0.83 0.929,1.245 1.673,1.245 0.372,0 0.715,-0.072 1.03,-0.215 C -0.444,1.33 0,0.771 0,0"/></g>
                <g transform="translate(253.3042,402.2051)" id="g44"><path id="path46" style="fill:#ffffff;fill-opacity:1;fill-rule:nonzero;stroke:none" d="M 0,0 C 1.945,0 3.547,0.551 4.806,1.652 6.064,2.753 6.693,4.176 6.693,5.921 6.693,7.81 6.064,9.354 4.806,10.555 3.547,11.756 1.945,12.357 0,12.357 H -5.492 V 0 Z m 12.229,-15.017 c 0,-0.572 -0.194,-1.051 -0.58,-1.438 -0.386,-0.386 -0.908,-0.579 -1.566,-0.579 -0.83,0 -1.473,0.357 -1.93,1.073 L 0.773,-4.119 H 0 -5.492 v -10.684 c 0,-0.629 -0.208,-1.158 -0.622,-1.588 -0.415,-0.428 -0.951,-0.643 -1.609,-0.643 -0.63,0 -1.158,0.215 -1.587,0.643 -0.43,0.43 -0.644,0.959 -0.644,1.588 v 29.048 c 0,0.658 0.214,1.194 0.644,1.609 0.429,0.415 0.957,0.622 1.587,0.622 H 0 c 2.116,0 4.012,-0.444 5.685,-1.33 C 7.359,14.26 8.66,13.014 9.59,11.413 10.519,9.811 10.984,7.98 10.984,5.921 10.984,3.89 10.469,2.088 9.439,0.515 8.41,-1.059 7.008,-2.246 5.235,-3.046 L 11.8,-13.601 c 0.285,-0.458 0.429,-0.93 0.429,-1.416"/></g>
                <g transform="translate(275.336,403.4066)" id="g48"><path id="path50" style="fill:#ffffff;fill-opacity:1;fill-rule:nonzero;stroke:none" d="M 0,0 C -1.302,-1.144 -2.124,-2.675 -2.467,-4.591 H 11.821 C 11.563,-2.675 10.848,-1.144 9.676,0 8.502,1.144 6.972,1.717 5.084,1.717 2.996,1.717 1.301,1.144 0,0 M 15.21,-7.487 C 14.839,-7.845 14.366,-8.023 13.794,-8.023 H -2.51 c 0.315,-2.003 1.223,-3.619 2.724,-4.849 1.502,-1.23 3.34,-1.844 5.514,-1.844 0.858,0 1.752,0.156 2.682,0.471 0.929,0.315 1.695,0.7 2.295,1.159 0.401,0.314 0.873,0.472 1.416,0.472 0.544,0 0.972,-0.144 1.287,-0.429 0.515,-0.429 0.773,-0.916 0.773,-1.459 0,-0.515 -0.23,-0.944 -0.687,-1.288 -0.972,-0.772 -2.181,-1.401 -3.626,-1.887 -1.444,-0.487 -2.825,-0.73 -4.14,-0.73 -2.346,0 -4.448,0.508 -6.307,1.523 -1.86,1.015 -3.311,2.425 -4.355,4.227 -1.045,1.802 -1.566,3.847 -1.566,6.135 0,2.288 0.493,4.341 1.48,6.157 0.987,1.816 2.36,3.232 4.119,4.248 1.759,1.015 3.754,1.524 5.985,1.524 2.203,0 4.105,-0.487 5.707,-1.459 1.602,-0.973 2.832,-2.333 3.69,-4.077 0.858,-1.745 1.287,-3.747 1.287,-6.006 0,-0.545 -0.186,-0.995 -0.558,-1.352"/></g>
                <g transform="translate(313.6721,407.569)" id="g52"><path id="path54" style="fill:#ffffff;fill-opacity:1;fill-rule:nonzero;stroke:none" d="M 0,0 C 1.573,-0.859 2.803,-2.111 3.69,-3.755 4.576,-5.4 5.02,-7.381 5.02,-9.697 v -10.555 c 0,-0.63 -0.208,-1.152 -0.622,-1.566 -0.415,-0.416 -0.937,-0.623 -1.566,-0.623 -0.63,0 -1.152,0.207 -1.566,0.623 -0.415,0.414 -0.622,0.936 -0.622,1.566 v 10.555 c 0,2.316 -0.622,4.068 -1.867,5.256 -1.244,1.187 -2.896,1.78 -4.955,1.78 -1.202,0 -2.296,-0.243 -3.283,-0.729 -0.987,-0.486 -1.759,-1.145 -2.317,-1.974 -0.557,-0.83 -0.836,-1.759 -0.836,-2.789 v -12.099 c 0,-0.63 -0.201,-1.152 -0.601,-1.566 -0.401,-0.416 -0.93,-0.623 -1.587,-0.623 -0.63,0 -1.152,0.207 -1.567,0.623 -0.415,0.414 -0.622,0.936 -0.622,1.566 v 19.136 c 0,0.657 0.207,1.186 0.622,1.588 0.415,0.4 0.937,0.6 1.567,0.6 0.657,0 1.186,-0.2 1.587,-0.6 0.4,-0.402 0.601,-0.931 0.601,-1.588 v -0.472 c 0.915,0.915 2.001,1.623 3.26,2.124 1.259,0.5 2.603,0.751 4.034,0.751 C -3.347,1.287 -1.573,0.858 0,0"/></g>
                <g transform="translate(337.249,388.8609)" id="g56"><path id="path58" style="fill:#ffffff;fill-opacity:1;fill-rule:nonzero;stroke:none" d="M 0,0 C 0.357,-0.4 0.537,-0.915 0.537,-1.544 0.537,-2.174 0.3,-2.689 -0.171,-3.089 -0.643,-3.49 -1.252,-3.69 -1.995,-3.69 h -0.772 c -1.402,0 -2.682,0.365 -3.841,1.095 -1.158,0.729 -2.066,1.722 -2.724,2.981 -0.659,1.259 -0.987,2.675 -0.987,4.248 v 10.598 h -1.974 c -0.6,0 -1.087,0.172 -1.458,0.515 -0.372,0.344 -0.558,0.773 -0.558,1.287 0,0.572 0.186,1.03 0.558,1.373 0.371,0.344 0.858,0.516 1.458,0.516 h 1.974 v 6.178 c 0,0.628 0.2,1.144 0.601,1.545 0.4,0.4 0.915,0.6 1.545,0.6 0.629,0 1.143,-0.2 1.544,-0.6 0.4,-0.401 0.601,-0.917 0.601,-1.545 v -6.178 h 3.647 c 0.601,0 1.087,-0.172 1.459,-0.516 0.371,-0.343 0.558,-0.801 0.558,-1.373 0,-0.514 -0.187,-0.943 -0.558,-1.287 -0.372,-0.343 -0.858,-0.515 -1.459,-0.515 H -6.028 V 4.634 c 0,-1.144 0.314,-2.102 0.944,-2.874 0.629,-0.773 1.401,-1.159 2.317,-1.159 h 1.459 C -0.793,0.601 -0.358,0.401 0,0"/></g>
                <g transform="translate(86.744,420.8204)" id="g60"><path id="path62" style="fill:#ffffff;fill-opacity:1;fill-rule:nonzero;stroke:none" d="m 0,0 c 0,0.658 -0.208,1.194 -0.622,1.609 -0.415,0.415 -0.951,0.622 -1.609,0.622 -0.63,0 -1.158,-0.207 -1.587,-0.622 C -4.248,1.194 -4.462,0.658 -4.462,0 V -7.092 C -2.981,-7.647 -1.494,-8.116 0,-8.506 Z"/></g>
                <g transform="translate(82.2817,387.4023)" id="g64"><path id="path66" style="fill:#ffffff;fill-opacity:1;fill-rule:nonzero;stroke:none" d="m 0,0 c 0,-0.63 0.214,-1.158 0.644,-1.588 0.429,-0.429 0.958,-0.643 1.587,-0.643 0.658,0 1.194,0.214 1.609,0.643 0.415,0.43 0.622,0.958 0.622,1.588 v 12.786 3.29 C 2.976,16.417 1.489,16.844 0,17.339 Z"/></g>
                <g transform="translate(106.6525,400.1884)" id="g68"><path id="path70" style="fill:#ffffff;fill-opacity:1;fill-rule:nonzero;stroke:none" d="m 0,0 v -12.786 c 0,-0.63 0.214,-1.158 0.644,-1.588 0.429,-0.429 0.958,-0.643 1.587,-0.643 0.629,0 1.151,0.207 1.567,0.622 0.414,0.415 0.622,0.95 0.622,1.609 V 4.665 C 2.954,4.156 1.481,3.711 0,3.359 Z"/></g>
                <g transform="translate(111.0721,420.8204)" id="g72"><path id="path74" style="fill:#ffffff;fill-opacity:1;fill-rule:nonzero;stroke:none" d="m 0,0 c 0,0.658 -0.208,1.194 -0.622,1.609 -0.415,0.415 -0.937,0.622 -1.566,0.622 -0.63,0 -1.159,-0.207 -1.588,-0.622 C -4.205,1.194 -4.42,0.658 -4.42,0 v -8.409 c 1.475,0.401 2.949,0.888 4.42,1.464 z"/></g>
                <g transform="translate(117.5424,413.0082)" id="g76"><path id="path78" style="fill:#ffffff;fill-opacity:1;fill-rule:nonzero;stroke:none" d="m 0,0 c -0.444,0.415 -0.98,0.622 -1.609,0.622 -0.458,-0.028 -0.829,-0.129 -1.115,-0.3 -6.093,-3.004 -12.214,-4.505 -18.365,-4.505 -3.002,0 -6.064,0.385 -9.181,1.158 -3.117,0.773 -6.207,1.903 -9.267,3.389 -0.344,0.172 -0.702,0.258 -1.074,0.258 -0.628,0 -1.158,-0.207 -1.588,-0.622 -0.429,-0.415 -0.643,-0.937 -0.643,-1.566 0,-0.458 0.115,-0.851 0.344,-1.18 0.229,-0.329 0.6,-0.622 1.115,-0.88 6.808,-3.232 13.587,-4.848 20.338,-4.848 6.893,0 13.629,1.616 20.208,4.848 0.487,0.201 0.858,0.487 1.117,0.859 0.257,0.372 0.386,0.772 0.386,1.201 C 0.666,-0.937 0.444,-0.415 0,0"/></g>
        </g>
        </g>
    </g>
</svg>