<svg
        xmlns="http://www.w3.org/2000/svg" version="1.1" id="svg2" xml:space="preserve" width="83.480003"
        height="74.213318" viewBox="0 0 83.480003 74.213318"><g id="g10" transform="matrix(1.3333333,0,0,-1.3333333,-124.98667,266.33333)"><g id="g16"><g id="g18" clip-path="url(#clipPath22)"><g id="g108" transform="translate(112.0098,194.6332)"><path d="m 0,0 c 0,0.907 -0.286,1.644 -0.857,2.216 -0.571,0.571 -1.31,0.856 -2.215,0.856 -0.867,0 -1.595,-0.285 -2.186,-0.856 C -5.85,1.644 -6.145,0.907 -6.145,0 v -9.767 c 2.04,-0.763 4.088,-1.409 6.145,-1.946 z" style="fill:#9bd63e;fill-opacity:1;fill-rule:nonzero;stroke:none" id="path110"/></g><g
        id="g112" transform="translate(105.8649,148.6141)"><path d="m 0,0 c 0,-0.867 0.295,-1.594 0.887,-2.186 0.59,-0.591 1.319,-0.886 2.185,-0.886 0.906,0 1.645,0.295 2.216,0.886 0.571,0.592 0.857,1.319 0.857,2.186 v 17.607 4.531 C 4.099,22.608 2.05,23.195 0,23.878 Z" style="fill:#9bd63e;fill-opacity:1;fill-rule:nonzero;stroke:none" id="path114"/></g><g
        id="g116" transform="translate(139.4253,166.2215)"><path d="m 0,0 v -17.607 c 0,-0.867 0.295,-1.595 0.887,-2.187 0.59,-0.591 1.319,-0.886 2.185,-0.886 0.867,0 1.586,0.285 2.157,0.857 0.571,0.571 0.857,1.309 0.857,2.216 V 6.424 C 4.067,5.722 2.04,5.111 0,4.625 Z" style="fill:#9bd63e;fill-opacity:1;fill-rule:nonzero;stroke:none" id="path118"/></g><g
        id="g120" transform="translate(145.5114,194.6332)"><path d="m 0,0 c 0,0.907 -0.287,1.644 -0.857,2.216 -0.571,0.571 -1.29,0.856 -2.157,0.856 -0.867,0 -1.595,-0.285 -2.185,-0.856 C -5.791,1.644 -6.086,0.907 -6.086,0 v -11.58 c 2.031,0.552 4.06,1.223 6.086,2.016 z" style="fill:#9bd63e;fill-opacity:1;fill-rule:nonzero;stroke:none" id="path122"/></g><g
        id="g124" transform="translate(154.4215,183.8754)"><path d="M 0,0 C -0.611,0.572 -1.349,0.857 -2.216,0.857 -2.846,0.818 -3.357,0.68 -3.751,0.443 c -8.39,-4.136 -16.82,-6.204 -25.29,-6.204 -4.134,0 -8.35,0.532 -12.644,1.595 -4.292,1.064 -8.547,2.62 -12.761,4.668 -0.473,0.236 -0.965,0.355 -1.478,0.355 -0.866,0 -1.594,-0.285 -2.187,-0.857 -0.59,-0.571 -0.886,-1.29 -0.886,-2.157 0,-0.63 0.159,-1.171 0.474,-1.624 0.315,-0.453 0.827,-0.857 1.535,-1.212 9.376,-4.451 18.711,-6.677 28.008,-6.677 9.492,0 18.768,2.226 27.828,6.677 0.67,0.276 1.181,0.67 1.537,1.182 0.354,0.512 0.532,1.063 0.532,1.654 C 0.917,-1.29 0.611,-0.571 0,0" style="fill:#9bd63e;fill-opacity:1;fill-rule:nonzero;stroke:none" id="path126"/>
</g></g></g></g></svg>