<?xml version="1.0" encoding="UTF-8"?>
<svg version="1.1" xmlns="http://www.w3.org/2000/svg" width="1181" height="718">
<path d="M0 0 C1.21980057 0.25923752 2.43960114 0.51847504 3.69636536 0.78556824 C6.91958244 1.47362381 10.14094201 2.16971158 13.36187744 2.86834717 C15.33381751 3.29335374 17.30707794 3.71152743 19.28100586 4.12719727 C23.08532701 4.92922012 26.88672131 5.74387195 30.6875 6.5625 C31.86152878 6.8095015 33.03555756 7.05650299 34.24516296 7.31098938 C35.34012589 7.55101181 36.43508881 7.79103424 37.56323242 8.03833008 C38.52283371 8.24484695 39.482435 8.45136383 40.47111511 8.66413879 C44.17595553 9.79541506 47.07975631 11.52584294 49.95703125 14.10546875 C53.51077245 21.21295116 50.25226632 30.86373979 48.625 38.1796875 C48.36576248 39.3735054 48.10652496 40.5673233 47.83943176 41.7973175 C47.29164141 44.3086676 46.73920261 46.81900778 46.18237305 49.32836914 C45.33303671 53.16342875 44.50243609 57.00221168 43.67382812 60.84179688 C43.13783272 63.28800477 42.60076004 65.73397692 42.0625 68.1796875 C41.8154985 69.32354416 41.56849701 70.46740082 41.31401062 71.6459198 C38.31559185 85.03309502 38.31559185 85.03309502 33.14453125 88.48046875 C30.83984375 88.8515625 30.83984375 88.8515625 28.26953125 88.91796875 C27.42648437 88.95792969 26.5834375 88.99789062 25.71484375 89.0390625 C19.89952464 87.77524695 16.87847774 81.8667252 13.83203125 77.16796875 C12.78595703 75.56501953 12.78595703 75.56501953 11.71875 73.9296875 C11.19925781 73.12144531 10.67976563 72.31320313 10.14453125 71.48046875 C9.27957031 71.93035156 8.41460938 72.38023437 7.5234375 72.84375 C-73.39008043 114.40823387 -163.25736249 132.32294274 -360.06396484 104.703125 C-439.01599483 79.24325596 -439.01599483 79.24325596 -447.23046875 64.04296875 C-450.13399143 57.61373997 -449.96317528 49.79360104 -448.23046875 43.046875 C-445.47462031 36.73548996 -440.08631484 32.13179009 -434.04296875 29.04296875 C-421.89173164 26.89863279 -413.01253062 30.62069558 -402.15625 35.65234375 C-315.48085506 75.81499843 -219.26603838 90.58216251 -69.91015625 53.12109375 C-52.13256159 46.56655485 -34.87599625 38.7856659 -17.85546875 30.48046875 C-17.85546875 27.01680868 -20.42051559 24.35306916 -22.29296875 21.54296875 C-26.19713079 15.66579986 -28.35547575 11.73057024 -27.85546875 4.48046875 C-26.6159062 1.69145302 -25.57096121 0.03696288 -23.16796875 -1.83203125 C-15.57848581 -4.08836402 -7.48789359 -1.62248617 0 0 Z " fill="#B1CD42" transform="translate(778.85546875,107.51953125)"/>
<path d="M0 0 C2.93423195 1.79646854 4.47205355 2.9441071 6 6 C6.09182083 8.1547893 6.11750462 10.31249718 6.11352539 12.46923828 C6.11364593 13.14350798 6.11376646 13.81777767 6.11389065 14.51247978 C6.11314333 16.6984574 6.10552335 18.88435011 6.09765625 21.0703125 C6.09618627 22.41853799 6.0951659 23.76676406 6.09460449 25.11499023 C6.08935811 30.11833552 6.07539695 35.12166859 6.0625 40.125 C6.041875 51.30375 6.02125 62.4825 6 74 C39.33 74 72.66 74 107 74 C106.88136678 52.87854648 106.88136678 52.87854648 106.72973633 31.75732422 C106.72097323 29.10644899 106.71332888 26.45556973 106.70703125 23.8046875 C106.69919113 23.12125275 106.69135101 22.43781799 106.68327332 21.7336731 C106.6611806 19.7052032 106.65998144 17.67653935 106.65942383 15.64794922 C106.64943108 13.9358577 106.64943108 13.9358577 106.63923645 12.18917847 C107.14661832 7.70388235 108.64848359 4.32347665 111.8828125 1.15625 C115.76435826 -0.96356097 119.71987258 -0.73469904 124 0 C127.61984803 1.89334737 129.68828756 4.06486269 131 8 C131.09799481 10.08138075 131.13501026 12.16580193 131.14044189 14.2494812 C131.14615204 15.55898743 131.15186218 16.86849365 131.15774536 18.21768188 C131.15899071 19.67230215 131.16011581 21.12692252 131.16113281 22.58154297 C131.16576123 24.11080037 131.17078592 25.64005662 131.17617798 27.16931152 C131.18930076 31.32636137 131.19574657 35.48339507 131.20018864 39.6404624 C131.20311924 42.23708787 131.20722401 44.83370893 131.21169281 47.43033218 C131.22536673 55.55310002 131.2350342 63.67585777 131.2388947 71.79863632 C131.24337691 81.17814374 131.26093275 90.55750554 131.2898953 99.93696868 C131.3115016 107.18545801 131.3215984 114.43390633 131.32293582 121.68242753 C131.3239845 126.01250246 131.3299058 130.34244048 131.34775543 134.67248154 C131.36421823 138.74529945 131.36640042 142.81787726 131.35761642 146.89071655 C131.35684511 148.38507861 131.36120116 149.87945348 131.37107468 151.37378311 C131.38376812 153.41466679 131.37613515 155.45564666 131.36749268 157.49655151 C131.36895924 158.63844374 131.3704258 159.78033596 131.3719368 160.95683098 C130.85941245 165.15028055 129.15386525 167.71299645 126.375 170.8125 C122.6288176 172.6855912 119.09907084 172.6393698 115 172 C111.57787591 170.32004817 109.61404659 169.18897022 107.85403442 165.78108215 C106.83389901 162.45910787 106.7600511 159.66622874 106.77294922 156.19018555 C106.77270815 155.51555425 106.77246708 154.84092295 106.7722187 154.14584827 C106.77370383 151.97600125 106.78889928 149.80650379 106.8046875 147.63671875 C106.80763043 146.29154628 106.80966933 144.94637151 106.81079102 143.60119629 C106.8212494 138.62992912 106.84917196 133.65871108 106.875 128.6875 C106.936875 112.0121875 106.936875 112.0121875 107 95 C73.67 95 40.34 95 6 95 C6.19782295 118.14128318 6.19782295 118.14128318 6.45043945 141.28198242 C6.47302246 145.76623535 6.47302246 145.76623535 6.47721863 147.86811829 C6.48487716 149.330476 6.50242316 150.79280289 6.52787781 152.25495911 C6.56458895 154.47545871 6.56952709 156.69403643 6.56762695 158.91479492 C6.57873001 160.16499924 6.58983307 161.41520355 6.60127258 162.70329285 C5.83698618 166.89378569 4.24745199 168.34177263 1 171 C-2.48443422 172.74221711 -6.19887045 172.58675154 -10 172 C-13.07469523 170.29748281 -15.40613254 168.18773492 -17 165 C-17.10490829 162.92097353 -17.14393645 160.8385295 -17.15390015 158.75688171 C-17.1582824 158.10941587 -17.16266465 157.46195002 -17.1671797 156.794864 C-17.18058278 154.61543704 -17.1867499 152.43605053 -17.19287109 150.2565918 C-17.20077083 148.69792497 -17.20903971 147.13925998 -17.21765137 145.58059692 C-17.24388486 140.45348867 -17.25917965 135.32637219 -17.2734375 130.19921875 C-17.27879651 128.43547879 -17.28417401 126.67173889 -17.28956985 124.90799904 C-17.31119993 117.57258023 -17.32993754 110.23716364 -17.34119225 102.901721 C-17.35743733 92.38226376 -17.39062699 81.86317556 -17.44759309 71.34385747 C-17.48626598 63.95101877 -17.50582174 56.55827889 -17.51111281 49.16534168 C-17.51476975 44.74795068 -17.52682699 40.33095316 -17.55921555 35.91367149 C-17.58925003 31.75785899 -17.59562484 27.60267898 -17.58383179 23.44678116 C-17.58361067 21.92176394 -17.59194778 20.39671777 -17.60948563 18.87180138 C-17.63214103 16.78846088 -17.62390349 14.70742115 -17.60800171 12.62406921 C-17.61131186 11.45875514 -17.614622 10.29344107 -17.61803246 9.09281445 C-16.8134405 5.06640194 -15.11157771 3.58415598 -12 1 C-8.30274625 -0.84862688 -4.03538558 -0.47587094 0 0 Z " fill="#B1CC43" transform="translate(27,493)"/>
<path d="M0 0 C0.5959966 0.1708546 1.1919932 0.34170919 1.8060503 0.5177412 C4.54412804 1.30233122 7.28243812 2.08610742 10.02075195 2.86987305 C10.95810432 3.13859978 11.8954567 3.40732651 12.86121368 3.68419647 C21.4168161 6.13190576 30.00428387 8.44195227 38.60742188 10.71679688 C39.67927734 11.00232422 40.75113281 11.28785156 41.85546875 11.58203125 C43.27315552 11.95678589 43.27315552 11.95678589 44.71948242 12.33911133 C47 13 47 13 49 14 C49.07014733 36.77482044 49.12301624 59.54962301 49.15543652 82.32452965 C49.17089135 92.89982087 49.19195442 103.47504489 49.22631836 114.05029297 C49.25626307 123.26996743 49.27558506 132.4895932 49.28226548 141.70931494 C49.28616914 146.58901029 49.29531446 151.46856638 49.31719017 156.34821701 C49.33763546 160.94628598 49.3438176 165.54415903 49.33932304 170.14226913 C49.34014466 171.82481452 49.34606222 173.50736683 49.35761642 175.18987274 C49.42323101 185.24229616 49.41380623 194.5172203 43.9375 203.3125 C37.10658952 209.56205639 30.45323872 211.87773183 21.1875 211.484375 C14.85648788 210.52230943 9.39165824 207.90377408 5.0625 203.125 C1.00625474 196.97917385 -0.44851903 192.16777576 -0.36076355 184.83119202 C-0.36332682 184.03708544 -0.3658901 183.24297886 -0.36853105 182.42480844 C-0.37344987 179.7791704 -0.35700777 177.13411035 -0.34057617 174.48852539 C-0.33972949 172.58603936 -0.34020585 170.68355235 -0.34190369 168.78106689 C-0.34276345 163.62660089 -0.32514067 158.47234486 -0.30418181 153.3179276 C-0.2854119 147.92741161 -0.28366432 142.53689067 -0.28010559 137.14634705 C-0.27078607 126.94319363 -0.24617347 116.74013679 -0.21605712 106.53702587 C-0.18251029 94.91920218 -0.16602638 83.30137384 -0.15097082 71.68351376 C-0.11962389 47.78895566 -0.06686512 23.89448324 0 0 Z " fill="#B1CD42" transform="translate(411,231)"/>
<path d="M0 0 C0.116852 25.39973199 0.20499749 50.79942364 0.25906086 76.19937038 C0.28483174 87.99327523 0.31996118 99.78701297 0.37719727 111.58081055 C0.4270661 121.86145629 0.45929912 132.141981 0.47044247 142.42274433 C0.47695527 147.86532487 0.49223937 153.30755915 0.52865028 158.75002861 C0.56266449 163.8759303 0.57304189 169.00134411 0.56553841 174.12734795 C0.56691052 176.00544895 0.57681053 177.88356679 0.59602737 179.76156998 C0.77641259 198.30435189 0.77641259 198.30435189 -5 205 C-7.3515625 207.15625 -7.3515625 207.15625 -9.625 208.5 C-10.38039063 208.9640625 -11.13578125 209.428125 -11.9140625 209.90625 C-18.23046415 213.2182209 -26.11178901 213.1336201 -32.8671875 211.1640625 C-39.81462773 208.0176534 -44.24472384 203.42489699 -47.05723381 196.33480644 C-48.12214396 192.56794542 -48.24599825 189.39675489 -48.24050903 185.48294067 C-48.24221788 184.74685825 -48.24392673 184.01077583 -48.24568737 183.25238788 C-48.24896958 180.79722711 -48.23799966 178.34234243 -48.22705078 175.88720703 C-48.22648639 174.12279771 -48.22680377 172.35838793 -48.22793579 170.59397888 C-48.22850922 165.81138759 -48.21675638 161.02889678 -48.20278788 156.24632883 C-48.190279 151.24551307 -48.18910989 146.24469496 -48.18673706 141.24386597 C-48.18052276 131.77735553 -48.1641126 122.31089133 -48.14403808 112.84440124 C-48.12167755 102.0657554 -48.11068526 91.28710734 -48.10064721 80.50844407 C-48.07974635 58.33893692 -48.04457131 36.16947137 -48 14 C-47.13947021 13.75354736 -46.27894043 13.50709473 -45.39233398 13.25317383 C-42.12059509 12.31447941 -38.84972145 11.37287136 -35.5793457 10.42944336 C-34.17862709 10.02597637 -32.77759725 9.62358789 -31.3762207 9.22241211 C-22.46902484 6.67155508 -13.6592801 3.94344277 -4.89868164 0.92456055 C-2 0 -2 0 0 0 Z " fill="#B1CD42" transform="translate(720,230)"/>
<path d="M0 0 C1.00204468 -0.00945648 2.00408936 -0.01891296 3.03649902 -0.02865601 C4.65521912 -0.01954697 4.65521912 -0.01954697 6.30664062 -0.01025391 C7.42671509 -0.01312408 8.54678955 -0.01599426 9.70080566 -0.01895142 C12.07463078 -0.02099348 14.44847267 -0.01545376 16.82226562 -0.00292969 C20.42161746 0.01300092 24.01982562 -0.00271178 27.61914062 -0.02197266 C29.93164307 -0.0199879 32.24414482 -0.01613943 34.55664062 -0.01025391 C35.61959351 -0.0163266 36.68254639 -0.02239929 37.77770996 -0.02865601 C53.36072402 0.11479376 67.35327828 5.04086551 78.70507812 15.89990234 C84.65363591 22.45566586 88.85188523 29.781777 90.96289062 38.38818359 C91.14464844 39.12294922 91.32640625 39.85771484 91.51367188 40.61474609 C93.96524183 55.7505258 91.63272577 70.09901785 82.95898438 82.87646484 C78.51743353 88.46534389 73.23267027 92.97209103 66.96289062 96.38818359 C66.30289063 96.38818359 65.64289063 96.38818359 64.96289062 96.38818359 C69.36040705 104.97105556 74.47162369 113.03861847 79.64648438 121.16552734 C83.16618309 126.69467325 86.63387829 132.25532042 90.08789062 137.82568359 C90.64420166 138.7194873 91.2005127 139.61329102 91.77368164 140.53417969 C92.55183228 141.79029053 92.55183228 141.79029053 93.34570312 143.07177734 C93.80348145 143.80968506 94.26125977 144.54759277 94.73291016 145.30786133 C97.77307247 150.44982701 98.9797643 154.38327697 97.96289062 160.38818359 C95.96595687 163.38358423 94.51176241 164.87931401 91.06054688 166.01318359 C87.67662727 166.63670813 85.24005239 166.46171631 81.90039062 165.57568359 C74.05726259 159.73505633 69.2822059 149.1893659 64.27539062 140.95068359 C62.87359966 138.65527609 61.46923498 136.36144913 60.06445312 134.06787109 C59.37512695 132.94219727 58.68580078 131.81652344 57.97558594 130.65673828 C54.59199364 125.16188946 51.14207464 119.70963263 47.6809082 114.26342773 C47.23126709 113.55565186 46.78162598 112.84787598 46.31835938 112.11865234 C45.74057739 111.21215942 45.74057739 111.21215942 45.15112305 110.28735352 C43.96289062 108.38818359 43.96289062 108.38818359 42.74414062 105.69921875 C41.11659871 103.07187428 41.11659871 103.07187428 37.8684082 102.72875977 C36.62728271 102.71304932 35.38615723 102.69733887 34.10742188 102.68115234 C33.44578537 102.66603104 32.78414886 102.65090973 32.10246277 102.6353302 C29.99309339 102.59240576 27.88515344 102.58361232 25.77539062 102.57568359 C24.34371187 102.55254241 22.91206721 102.52717783 21.48046875 102.49951172 C17.9746374 102.43661744 14.4692841 102.40431585 10.96289062 102.38818359 C10.97177307 103.09118088 10.98065552 103.79417816 10.98980713 104.51847839 C11.07006057 111.15382357 11.13090924 117.78903269 11.17013931 124.42475414 C11.19098638 127.83603358 11.2192496 131.24691094 11.26464844 134.65795898 C11.31655022 138.58230728 11.33585984 142.50649456 11.35351562 146.43115234 C11.37416077 147.65215134 11.39480591 148.87315033 11.41607666 150.13114929 C11.41637878 151.2719545 11.41668091 152.4127597 11.41699219 153.58813477 C11.42587463 154.58963058 11.43475708 155.5911264 11.44390869 156.62297058 C10.82931804 160.156048 9.40760989 161.81477166 6.96289062 164.38818359 C3.27328463 166.64294281 0.05737928 166.65034913 -4.10351562 166.00537109 C-7.29023644 164.98819556 -8.98703549 162.93524509 -11.03710938 160.38818359 C-12.39634644 157.66970947 -12.16930145 155.53137658 -12.17755127 152.48674011 C-12.18611649 150.60027016 -12.18611649 150.60027016 -12.19485474 148.6756897 C-12.19610016 147.27410899 -12.19722524 145.87252816 -12.19824219 144.47094727 C-12.20286942 143.00094986 -12.20789395 141.53095366 -12.21328735 140.06095886 C-12.22642328 136.06086961 -12.23285873 132.06079715 -12.23729801 128.06068969 C-12.24022705 125.56239771 -12.24433156 123.06411035 -12.24880219 120.56582069 C-12.26248078 112.75166443 -12.27214544 104.93751868 -12.27600408 97.12335128 C-12.2804847 88.09870448 -12.29803123 79.07420915 -12.32700467 70.04960841 C-12.34861367 63.07714533 -12.35870795 56.10472489 -12.36004519 49.13222867 C-12.36109387 44.9664572 -12.36701465 40.80082804 -12.38486481 36.63509178 C-12.40133185 32.71576936 -12.40350774 28.79669643 -12.3947258 24.87735176 C-12.39395466 23.4394298 -12.39830827 22.00149451 -12.40818405 20.56360626 C-12.42088323 18.5993042 -12.41324242 16.63490212 -12.40460205 14.670578 C-12.40606861 13.57163302 -12.40753517 12.47268805 -12.40904617 11.3404417 C-11.87837694 7.12824074 -10.20379297 4.50225957 -7.16442871 1.59994507 C-4.58865625 0.13273618 -2.9546937 0.00802575 0 0 Z M10.96289062 21.38818359 C10.96289062 41.18818359 10.96289062 60.98818359 10.96289062 81.38818359 C16.01601563 81.45005859 21.06914063 81.51193359 26.27539062 81.57568359 C27.84587158 81.60299561 29.41635254 81.63030762 31.03442383 81.65844727 C42.71340654 81.72724725 53.23008753 80.89167895 61.96289062 72.38818359 C68.14291247 65.49243539 70.40582573 59.4756992 70.21679688 50.20068359 C69.43893925 41.5844145 65.62419111 34.81073366 59.52539062 28.76318359 C49.78049563 20.79582098 37.62255178 20.84754409 25.65039062 21.13818359 C18.38007812 21.26193359 18.38007812 21.26193359 10.96289062 21.38818359 Z " fill="#3E9491" transform="translate(703.037109375,499.61181640625)"/>
<path d="M0 0 C11.18248462 10.39714982 18.39663678 24.47894809 19.30859375 39.81640625 C19.36144531 40.68652344 19.41429687 41.55664062 19.46875 42.453125 C19.97886756 59.06521426 15.17113983 75.05047898 4.43359375 87.87890625 C-7.07005938 99.65217625 -20.48167997 104.36416348 -36.69140625 104.81640625 C-51.89160582 104.20463351 -64.06255816 98.53706001 -74.69140625 87.81640625 C-74.69727249 88.53193161 -74.70313873 89.24745697 -74.70918274 89.98466492 C-74.76716089 96.73803051 -74.83926661 103.4910816 -74.92712116 110.24412823 C-74.97178998 113.71570691 -75.01105332 117.18716919 -75.0378418 120.65893555 C-75.0689008 124.65313185 -75.12368813 128.64669993 -75.1796875 132.640625 C-75.18607742 133.88349777 -75.19246735 135.12637054 -75.1990509 136.40690613 C-75.21884506 137.56773209 -75.23863922 138.72855804 -75.2590332 139.92456055 C-75.27013626 140.94382126 -75.28123932 141.96308197 -75.29267883 143.01322937 C-75.8418303 146.87393379 -77.2776875 149.71684722 -80.37890625 152.12890625 C-85.09551202 153.5311404 -89.1501007 153.52004574 -93.56640625 151.50390625 C-97.09464765 148.70206749 -98.11602649 146.14378962 -98.69140625 141.81640625 C-98.83321072 138.74326788 -98.83828353 135.67441318 -98.83666992 132.59838867 C-98.84002853 131.67726288 -98.84338715 130.75613708 -98.84684753 129.80709839 C-98.85634311 126.76201016 -98.85830064 123.71697711 -98.859375 120.671875 C-98.86259097 118.54258705 -98.8659553 116.41329933 -98.86946106 114.28401184 C-98.87545057 109.81441741 -98.87730138 105.3448423 -98.87670898 100.87524414 C-98.87660793 95.18782271 -98.89020211 89.50052772 -98.90748119 83.8131361 C-98.91868669 79.40921986 -98.92062551 75.00533322 -98.92009926 70.60140419 C-98.92126877 68.50735353 -98.92563174 66.41330183 -98.93343163 64.31926537 C-99.01096218 41.33416852 -98.04428974 19.90060406 -81.44140625 2.06640625 C-58.8484516 -18.96319662 -23.72860827 -19.25151237 0 0 Z M-66.578125 17.41015625 C-73.96068587 25.8161775 -77.24882368 36.783721 -77.00390625 47.8203125 C-75.85896687 58.79741878 -71.48035083 68.653039 -63.31640625 76.12890625 C-55.18109146 82.51335982 -46.11541567 85.28040684 -35.69140625 84.62890625 C-25.58527868 83.05684196 -17.38326766 78.63355384 -10.69140625 70.81640625 C-3.71927763 59.95270791 -0.97291289 48.95260435 -3.15234375 36.09765625 C-6.08742326 25.18606653 -12.14166382 16.67198656 -21.62890625 10.5703125 C-37.03709101 2.0895979 -54.10450775 5.86290435 -66.578125 17.41015625 Z " fill="#B1CC43" transform="translate(592.69140625,562.18359375)"/>
<path d="M0 0 C9.89011152 9.30104531 16.95009116 21.49611042 18.00537109 35.2668457 C18.65225999 56.61613968 16.17129854 72.70887733 1.25 89 C-9.45896951 99.28323066 -23.54901031 103.58496629 -38.1875 103.75 C-53.04167489 102.80298059 -64.80238463 97.20075916 -75.1875 86.75 C-75.19336624 87.45299728 -75.19923248 88.15599457 -75.20527649 88.8802948 C-75.26325849 95.51593488 -75.33536637 102.151255 -75.42321491 108.78657055 C-75.46788071 112.19761464 -75.50714467 115.60854036 -75.53393555 119.01977539 C-75.56499806 122.94443149 -75.61978618 126.86858601 -75.67578125 130.79296875 C-75.68217117 132.01396774 -75.6885611 133.23496674 -75.69514465 134.4929657 C-75.71493881 135.6337709 -75.73473297 136.77457611 -75.75512695 137.94995117 C-75.76623001 138.95144699 -75.77733307 139.95294281 -75.78877258 140.98478699 C-76.36450545 144.9775498 -78.15476854 147.59810722 -80.8125 150.5625 C-84.56235024 152.43742512 -88.09062317 152.52259442 -92.1875 151.75 C-95.75802209 149.81658451 -97.88201966 147.66644101 -99.1875 143.75 C-99.28201801 142.32211702 -99.32234632 140.8902712 -99.32794189 139.45927429 C-99.33365204 138.58348221 -99.33936218 137.70769012 -99.34524536 136.80535889 C-99.34636322 135.84696106 -99.34748108 134.88856323 -99.34863281 133.90112305 C-99.35359772 132.88929459 -99.35856262 131.87746613 -99.36367798 130.8349762 C-99.378316 127.47721683 -99.38510734 124.11950483 -99.390625 120.76171875 C-99.39637882 118.42299905 -99.40213653 116.08427937 -99.40789795 113.74555969 C-99.41841514 108.83191712 -99.42425189 103.91829092 -99.42773438 99.00463867 C-99.4331949 92.73848102 -99.45716747 86.47254332 -99.48570633 80.20645428 C-99.50443243 75.36854954 -99.50954378 70.53069647 -99.51107025 65.69275856 C-99.51407912 63.38492453 -99.52204725 61.07709102 -99.53525543 58.76929283 C-99.64925066 37.30421344 -98.28616944 18.19584182 -82.5 1.9296875 C-59.19527704 -20.03658853 -24.47450948 -20.89916698 0 0 Z M-66.5 15.4375 C-75.03865512 24.57989841 -77.6934768 35.65321743 -77.5 47.890625 C-76.56740859 59.40812893 -71.63562904 67.68202614 -63.4375 75.5 C-55.67766473 81.96161188 -46.39730406 84.32188247 -36.4296875 83.53125 C-26.11176029 82.03673129 -16.87852945 76.92008344 -10.52734375 68.56640625 C-3.55000193 57.85181501 -1.68778674 46.25637836 -4.25 33.875 C-7.10996475 23.43280311 -12.89246921 15.34225623 -22.1875 9.75 C-37.1876046 1.9144821 -53.97100399 3.80175323 -66.5 15.4375 Z " fill="#B1CC43" transform="translate(445.1875,563.25)"/>
<path d="M0 0 C1.47919922 1.15435547 1.47919922 1.15435547 2.98828125 2.33203125 C13.13190014 10.84206971 18.95346825 24.1743161 21 37 C21.31448885 41.6703638 21.35131721 46.33181046 21.37109375 51.01171875 C21.38008069 52.3521178 21.38920284 53.69251595 21.39845276 55.03291321 C21.41483801 57.8257591 21.42262496 60.6184865 21.42553711 63.41137695 C21.430945 66.97915816 21.46876602 70.54582018 21.51428127 74.11328411 C21.54408558 76.8749242 21.55126118 79.63629391 21.55226326 82.39808083 C21.55847384 84.34905162 21.58790045 86.29990431 21.61778259 88.25065613 C21.56756808 98.09706945 21.56756808 98.09706945 18.65258789 101.78833008 C14.52138805 105.23283439 11.26206976 105.36290136 6 105 C2.4613006 103.34860695 1.18929847 102.28394771 -1 99 C-1.4140625 96.51953125 -1.4140625 96.51953125 -1.625 93.8125 C-1.73714844 92.46091797 -1.73714844 92.46091797 -1.8515625 91.08203125 C-1.90054688 90.39496094 -1.94953125 89.70789063 -2 89 C-2.51046875 89.50789062 -3.0209375 90.01578125 -3.546875 90.5390625 C-11.24090952 97.82383986 -20.36871438 103.43890044 -31 105 C-31.87914062 105.13277344 -32.75828125 105.26554688 -33.6640625 105.40234375 C-47.94876403 107.07957124 -62.05067584 104.36950207 -73.75 95.75 C-86.02177181 85.40538369 -94.0473926 72.09157707 -96 56 C-97.52898007 37.06188302 -93.91508932 20.74127742 -81.6875 5.6875 C-60.70622015 -16.83583383 -23.70166028 -19.45597157 0 0 Z M-65.3125 20.3125 C-73.60602793 30.09291541 -74.71870302 40.52035751 -74.17919922 52.91015625 C-73.30770396 63.07364323 -67.40475454 70.94144326 -60.25 77.75 C-52.73585755 84.0189417 -43.74916387 86.50663965 -34.0859375 85.78125 C-24.54719129 84.52551632 -16.84181021 80.84181021 -10 74 C-4.06115056 65.58662996 -0.42205622 57.53909798 -0.5625 47.1875 C-0.57007324 46.39996338 -0.57764648 45.61242676 -0.58544922 44.80102539 C-0.89082124 33.94025788 -4.90338254 23.88638927 -12.8125 16.25 C-29.62654022 2.69029015 -50.73276843 4.9272584 -65.3125 20.3125 Z " fill="#B1CC43" transform="translate(294,561)"/>
<path d="M0 0 C0.64710938 0.53496094 1.29421875 1.06992187 1.9609375 1.62109375 C11.40559282 10.22026683 17.09954785 24.3936699 18 37 C18.50296805 49.24970568 18.50296805 49.24970568 16 53 C12.21744376 55.52170416 9.23514232 55.26720692 4.85668945 55.22705078 C3.61245209 55.22748886 3.61245209 55.22748886 2.34307861 55.22793579 C-0.40029337 55.22654179 -3.14339418 55.21097732 -5.88671875 55.1953125 C-7.78815055 55.19158262 -9.68958427 55.18873553 -11.59101868 55.18673706 C-16.59698793 55.17909865 -21.60284123 55.15944834 -26.60876465 55.1373291 C-31.71637402 55.11687517 -36.82400211 55.10773631 -41.93164062 55.09765625 C-51.95447804 55.07620268 -61.97722938 55.04206419 -72 55 C-71.22973091 57.07636934 -70.45229378 59.15008041 -69.671875 61.22265625 C-69.2397168 62.37773682 -68.80755859 63.53281738 -68.36230469 64.72290039 C-64.18622751 74.76868606 -56.74288554 80.16427888 -46.9375 84.375 C-35.70643906 88.11868698 -23.66648575 86.86677849 -13 82 C-11.38335497 81.10552399 -9.77814849 80.18992865 -8.1875 79.25 C-4.29636437 76.97020263 -1.57432233 76.2962581 3 77 C6.5386994 78.65139305 7.81070153 79.71605229 10 83 C10.42897251 86.86075262 10.54159369 89.13781558 8.44921875 92.46875 C5.41403198 95.60559375 2.34449907 97.26201452 -1.5625 99.125 C-2.63431519 99.64429077 -2.63431519 99.64429077 -3.7277832 100.17407227 C-20.35066786 108.02465068 -37.63894112 108.59809594 -55.25 103.3125 C-71.29214895 97.45550065 -81.78098588 86.11746487 -89 71 C-95.31243887 55.0550852 -94.17035683 35.6771317 -87.53515625 20.02734375 C-79.57468246 4.32920841 -67.61800806 -4.50884459 -51.3125 -10.3125 C-33.22564976 -14.06637458 -14.49703079 -12.06378357 0 0 Z M-65 21 C-68.8075298 26.74192999 -70.00955218 31.06686529 -71 38 C-48.56 38 -26.12 38 -3 38 C-4.27606614 27.79147091 -7.13486174 20.70463574 -14.796875 13.6953125 C-30.30479927 1.76190978 -52.90040734 7.04731657 -65 21 Z " fill="#3E9491" transform="translate(909,560)"/>
<path d="M0 0 C11.54087694 8.99095578 17.58365707 21.5541424 19.52636719 35.88208008 C20.19791015 42.10285062 20.1814432 48.32315675 20.203125 54.57421875 C20.20882507 55.85682083 20.21452515 57.13942291 20.22039795 58.46089172 C20.2308298 61.15956004 20.23672524 63.8581992 20.24023438 66.55688477 C20.24574438 70.00328977 20.26985789 73.4493048 20.29820633 76.89558697 C20.3213514 80.20512321 20.32328065 83.51460581 20.328125 86.82421875 C20.3404718 88.05557053 20.3528186 89.2869223 20.36553955 90.55558777 C20.33760813 101.27473955 20.33760813 101.27473955 17 106 C14.06791771 108.44340191 12.31177679 108.96659534 8.5 109.375 C4.71458927 108.96942028 2.94655311 108.37361222 0 106 C-2.77726869 102.17527864 -3.37582156 99.5006254 -3.38476562 94.80786133 C-3.39487671 93.57920853 -3.40498779 92.35055573 -3.41540527 91.08467102 C-3.41384933 90.43291712 -3.4122934 89.78116322 -3.41069031 89.10965919 C-3.40618445 87.05209793 -3.42029184 84.99538441 -3.43908691 82.93791199 C-3.47578106 78.56278837 -3.48954726 74.18775472 -3.5 69.8125 C-3.51213523 64.75531558 -3.53401461 59.69854576 -3.58000183 54.64154625 C-3.59342247 52.63109559 -3.58922885 50.62055176 -3.58459473 48.61006165 C-3.67384645 37.62547664 -5.00687176 28.08314095 -13 20 C-21.56530563 13.15820099 -31.31624327 12.06468691 -42.00488281 12.76611328 C-50.15369925 13.72139548 -56.45776034 17.49060927 -61.59765625 23.7421875 C-64.97642113 29.18209308 -66.37358769 33.55152396 -66.38476562 39.95751953 C-66.3901384 40.61375305 -66.39551117 41.26998657 -66.40104675 41.94610596 C-66.41076046 43.35757649 -66.41378847 44.76910629 -66.41069031 46.18060684 C-66.40617995 48.41755579 -66.42029971 50.65372711 -66.43908691 52.89059448 C-66.48192536 58.44118435 -66.49311774 63.99175427 -66.50531006 69.54248047 C-66.5168524 74.24509197 -66.54044037 78.94734522 -66.58000183 83.64980698 C-66.59353868 85.84849006 -66.58940888 88.0466837 -66.58459473 90.24539185 C-66.59393691 91.59735737 -66.60410613 92.94931752 -66.61523438 94.30126953 C-66.61728882 95.47706573 -66.61934326 96.65286194 -66.62145996 97.86428833 C-67.16500717 102.3668697 -68.74160376 104.98629192 -72.25 107.8125 C-75.8111205 109.35025658 -78.14918846 109.47290668 -82 109 C-85.22548416 107.35682883 -87.3588423 106.14047162 -89.15080261 102.95298767 C-90.35604 98.76191124 -90.28662897 94.7803397 -90.2746582 90.43969727 C-90.27976913 89.4830014 -90.28488007 88.52630554 -90.29014587 87.5406189 C-90.30403029 84.38248414 -90.303086 81.22456788 -90.30078125 78.06640625 C-90.30466869 75.86832091 -90.30900346 73.67023632 -90.31376648 71.47215271 C-90.32122613 66.86642013 -90.32093914 62.2607642 -90.31567383 57.6550293 C-90.30987831 51.75580389 -90.32681361 45.85689236 -90.3500185 39.95771885 C-90.36475679 35.41865711 -90.36562742 30.87967095 -90.36250877 26.34058952 C-90.36302189 24.16570349 -90.36825788 21.99081321 -90.37832069 19.81595039 C-90.39066994 16.77365901 -90.3839023 13.73197901 -90.37231445 10.68969727 C-90.37995819 9.79340103 -90.38760193 8.8971048 -90.39547729 7.97364807 C-90.352884 2.90917344 -89.85021887 -0.63035001 -87 -5 C-83.42874629 -7.63592536 -80.70458647 -8.22234122 -76.375 -7.9375 C-73.41866091 -7.47044811 -72.06904615 -7.04780118 -69.5625 -5.3125 C-67.75528767 -2.63782575 -66.84670334 -0.10457892 -66 3 C-65.41734375 2.54109375 -64.8346875 2.0821875 -64.234375 1.609375 C-45.57024731 -12.35937465 -19.56776974 -12.78282878 0 0 Z " fill="#3E9491" transform="translate(1043,557)"/>
<path d="M0 0 C5.70380629 3.83910039 8.8017195 8.45886093 10.54051208 15.04838562 C11.17744445 19.13985063 11.13060457 23.15380406 11.11352539 27.28833008 C11.11367142 28.21564941 11.11381744 29.14296875 11.1139679 30.09838867 C11.11327269 33.15546021 11.10549864 36.21247039 11.09765625 39.26953125 C11.09579068 41.39230821 11.09436743 43.51508561 11.09336853 45.63786316 C11.08955433 51.21915887 11.07973339 56.80042846 11.06866455 62.38171387 C11.05842686 68.07934211 11.05386586 73.77697458 11.04882812 79.47460938 C11.03811015 90.64975104 11.02104687 101.82487335 11 113 C6.23509485 112.35375086 1.78767193 111.48024058 -2.82421875 110.109375 C-3.45173538 109.92288391 -4.07925201 109.73639282 -4.7257843 109.54425049 C-6.04670477 109.15002415 -7.36686403 108.75323896 -8.6862793 108.35400391 C-10.66277992 107.75746096 -12.6426063 107.1731529 -14.62304688 106.58984375 C-15.91949317 106.20126186 -17.21572405 105.81196041 -18.51171875 105.421875 C-19.66115967 105.07737305 -20.81060059 104.73287109 -21.99487305 104.37792969 C-27.4622684 102.6061507 -32.7189784 100.25531582 -38 98 C-38.09289965 87.33365563 -38.16386614 76.66740837 -38.20724869 66.000741 C-38.22807582 61.04714169 -38.25630402 56.09382027 -38.30175781 51.14038086 C-38.34538992 46.35522691 -38.36917373 41.57033937 -38.37950897 36.78500175 C-38.38686927 34.96423591 -38.40124201 33.14348377 -38.42292023 31.32283211 C-38.65350579 11.14474945 -38.65350579 11.14474945 -32.35406494 4.18031311 C-23.68489567 -4.22537688 -10.59435589 -5.77450607 0 0 Z " fill="#B1CD42" transform="translate(449,38)"/>
<path d="M0 0 C8.75118529 9.22422234 7.97844319 19.66905246 7.80078125 31.5703125 C7.79144101 33.41689084 7.78433063 35.26348168 7.77934265 37.1100769 C7.76036807 41.94033789 7.71135104 46.76983188 7.65582275 51.59979248 C7.60442296 56.54038115 7.58178458 61.48109529 7.55664062 66.421875 C7.50322182 76.09408463 7.41802642 85.76572822 7.3125 95.4375 C3.38428387 96.86735706 -0.54596325 98.2915522 -4.4765625 99.71484375 C-5.57363525 100.11425171 -6.67070801 100.51365967 -7.80102539 100.9251709 C-14.8362693 103.46892188 -21.90111177 105.83666397 -29.0625 108 C-29.88878906 108.24979614 -30.71507812 108.49959229 -31.56640625 108.75695801 C-34.69385682 109.67486082 -37.41058999 110.4375 -40.6875 110.4375 C-40.75709436 98.0588565 -40.8103593 85.68025976 -40.84293652 73.30146027 C-40.85857409 67.55311661 -40.87977773 61.80490709 -40.91381836 56.05664062 C-40.94647953 50.50641059 -40.96436737 44.95630935 -40.97213173 39.4059906 C-40.97766308 37.29135613 -40.98846445 35.1767285 -41.00469017 33.06214905 C-41.02655403 30.09401363 -41.02946315 27.12640647 -41.02807617 24.15820312 C-41.038862 23.28929443 -41.04964783 22.42038574 -41.0607605 21.52514648 C-41.01817823 13.07108434 -38.81696413 6.56696413 -32.6875 0.4375 C-22.37428318 -6.81651542 -10.60965195 -6.16840229 0 0 Z " fill="#B1CD42" transform="translate(712.6875,39.5625)"/>
<path d="M0 0 C2.93423195 1.79646854 4.47205355 2.9441071 6 6 C6.08658569 8.55362604 6.11562516 11.0795442 6.09765625 13.6328125 C6.0962413 14.38464813 6.09482635 15.13648376 6.09336853 15.91110229 C6.08776465 18.3157751 6.07521157 20.72035527 6.0625 23.125 C6.0574855 24.75390491 6.0529225 26.38281127 6.04882812 28.01171875 C6.03779397 32.00784827 6.02052679 36.00390842 6 40 C7.82724609 39.96519531 7.82724609 39.96519531 9.69140625 39.9296875 C11.31509799 39.9109165 12.93879642 39.89271773 14.5625 39.875 C15.36236328 39.85824219 16.16222656 39.84148438 16.98632812 39.82421875 C22.63981695 39.77806782 28.40696262 39.82519445 32.9375 43.625 C34.49034768 47.09607129 34.79632146 50.31792646 34 54 C31.46546343 57.21954645 29.88702695 58.70432435 26 60 C24.44578271 60.08106686 22.88832973 60.10756898 21.33203125 60.09765625 C20.43935547 60.09443359 19.54667969 60.09121094 18.62695312 60.08789062 C17.69818359 60.07951172 16.76941406 60.07113281 15.8125 60.0625 C14.40194336 60.05573242 14.40194336 60.05573242 12.96289062 60.04882812 C10.64186288 60.03704626 8.32096356 60.02059558 6 60 C6.06717304 67.6866712 6.15704811 75.3728407 6.26245117 83.05908203 C6.29563439 85.67197702 6.32368671 88.28494255 6.34643555 90.89794922 C6.38010208 94.66143761 6.43242649 98.42428339 6.48828125 102.1875 C6.49467117 103.34926758 6.5010611 104.51103516 6.50764465 105.70800781 C6.64782763 113.50205271 7.27423041 119.61120538 12.3125 125.875 C17.06045994 129.62920089 21.16533463 130.03065018 27.0625 130.3125 C30.95317822 130.61698786 32.81388655 130.89262686 36.25 132.875 C38.85735345 137.5309883 39.12517143 141.79608212 38 147 C35.69800595 150.29472898 32.79139091 151.73620303 29 153 C17.72123622 154.00599608 7.32100062 151.96458795 -1.74609375 145.0078125 C-9.98716522 137.66654606 -14.15604262 128.81210994 -16 118 C-16.08419036 116.03749192 -16.11780493 114.07246274 -16.11352539 112.1081543 C-16.11344986 110.94732834 -16.11337433 109.78650238 -16.11329651 108.59049988 C-16.10813522 107.34762711 -16.10297394 106.10475433 -16.09765625 104.82421875 C-16.0962413 103.54392288 -16.09482635 102.26362701 -16.09336853 100.9445343 C-16.08956397 97.5530296 -16.07975143 94.16156823 -16.06866455 90.77008057 C-16.05840597 87.30440863 -16.05386141 83.83872964 -16.04882812 80.37304688 C-16.03780755 73.58201252 -16.0210757 66.79101019 -16 60 C-17.21236328 60.05220703 -17.21236328 60.05220703 -18.44921875 60.10546875 C-19.51785156 60.13253906 -20.58648438 60.15960937 -21.6875 60.1875 C-23.27111328 60.23970703 -23.27111328 60.23970703 -24.88671875 60.29296875 C-29.34076628 59.87383002 -31.88501354 58.11498646 -35 55 C-36.40996196 50.77011411 -35.75767825 48.04265998 -34 44 C-32.43968278 41.84527622 -31.45615657 41.15205219 -28.9375 40.3125 C-26.19334941 40.02056909 -23.57339083 39.96928876 -20.81640625 39.98046875 C-19.46397827 39.98469849 -19.46397827 39.98469849 -18.08422852 39.98901367 C-17.39643311 39.99263916 -16.7086377 39.99626465 -16 40 C-16.02094727 39.03175293 -16.04189453 38.06350586 -16.06347656 37.06591797 C-16.13618512 33.45425355 -16.18191056 29.84265309 -16.21972656 26.23046875 C-16.23977222 24.67078756 -16.26701657 23.11118087 -16.30175781 21.55175781 C-16.35059126 19.30254686 -16.37303815 17.0543341 -16.390625 14.8046875 C-16.41127014 14.1138205 -16.43191528 13.42295349 -16.45318604 12.71115112 C-16.45548631 7.68435075 -15.153896 4.86575862 -12 1 C-8.30274625 -0.84862688 -4.03538558 -0.47587094 0 0 Z " fill="#3E9491" transform="translate(1118,513)"/>
</svg>
