<?xml version="1.0" encoding="UTF-8"?>
<svg version="1.1" xmlns="http://www.w3.org/2000/svg" width="1172" height="261">
    <path d="M0 0 C1.46842094 -0.01441132 1.46842094 -0.01441132 2.96650696 -0.02911377 C4.03096542 -0.03336365 5.09542389 -0.03761353 6.19213867 -0.04199219 C7.83964363 -0.0505423 7.83964363 -0.0505423 9.52043152 -0.05926514 C11.85491978 -0.06873086 14.1894215 -0.07525533 16.52392578 -0.07910156 C20.05745738 -0.08872381 23.59038641 -0.11969754 27.1237793 -0.15136719 C46.25110865 -0.24263568 63.65349642 0.95617992 78.26635742 14.90722656 C88.3700335 26.11842098 92.69322514 39.95772131 92.50854492 54.87988281 C91.70100048 67.44168524 87.17312438 79.07523099 78.29760742 88.16113281 C76.11905833 89.93596707 73.83389049 91.49646231 71.48510742 93.03613281 C70.88762695 93.43832031 70.29014648 93.84050781 69.67456055 94.25488281 C68.22096451 95.23169935 66.7600406 96.19759705 65.29760742 97.16113281 C69.91571098 105.17799777 74.68319101 113.0806941 79.61010742 120.91113281 C80.58197998 122.46223755 80.58197998 122.46223755 81.57348633 124.04467773 C84.5265475 128.75676804 87.48734625 133.46387246 90.45776367 138.16503906 C90.92206787 138.90206055 91.38637207 139.63908203 91.86474609 140.3984375 C92.71234062 141.74332334 93.56260084 143.08653431 94.41601562 144.42773438 C97.61332381 149.5039734 98.91368172 153.10306886 98.29760742 159.16113281 C96.25251707 162.72354826 95.08036425 164.57452716 91.17260742 165.86035156 C85.94755388 166.68117923 82.76518746 166.23190122 78.29760742 163.16113281 C75.67203772 159.78595808 73.53438183 156.15066357 71.36010742 152.47363281 C70.03890382 150.29890391 68.71727668 148.12443227 67.39526367 145.95019531 C66.72124512 144.83032227 66.04722656 143.71044922 65.3527832 142.55664062 C62.06029408 137.11687599 58.67680042 131.73479447 55.29760742 126.34863281 C53.54473984 123.54069149 51.79194653 120.73270456 50.03979492 117.92431641 C48.80819637 115.97094864 47.56193437 114.02678988 46.30541992 112.08935547 C45.6634668 111.0985498 45.02151367 110.10774414 44.36010742 109.08691406 C43.77358398 108.19012939 43.18706055 107.29334473 42.58276367 106.36938477 C41.29760742 104.16113281 41.29760742 104.16113281 41.29760742 102.16113281 C31.39760742 102.16113281 21.49760742 102.16113281 11.29760742 102.16113281 C11.33241211 106.06183594 11.3672168 109.96253906 11.40307617 113.98144531 C11.42648041 117.76431547 11.44469213 121.54717753 11.46240234 125.33007812 C11.47747762 127.95674253 11.49794108 130.58338181 11.52392578 133.20996094 C11.56036318 136.98801886 11.5773468 140.76574358 11.59057617 144.54394531 C11.60606003 145.71603546 11.62154388 146.88812561 11.63749695 148.09573364 C11.63963179 158.46585686 11.63963179 158.46585686 8.29760742 163.16113281 C4.28147947 165.83855145 1.09486518 166.8607329 -3.70239258 166.16113281 C-7.36021438 164.12119373 -9.37185432 162.6569402 -11.70239258 159.16113281 C-11.9624548 156.43490887 -11.9624548 156.43490887 -11.97654724 153.07023621 C-11.98652237 151.79583176 -11.9964975 150.52142731 -12.0067749 149.20840454 C-12.00767073 147.79315198 -12.00833428 146.37789926 -12.00878906 144.96264648 C-12.01640935 143.47441694 -12.02483662 141.98619135 -12.03401184 140.49797058 C-12.05597845 136.45241227 -12.06475878 132.40692956 -12.06983829 128.36131835 C-12.07347971 125.83369215 -12.07971869 123.30608581 -12.08683968 120.77846718 C-12.11134298 111.9599686 -12.12438769 103.14152892 -12.12792969 94.32299805 C-12.13156429 86.10396154 -12.16145179 77.88529862 -12.20333427 69.66637629 C-12.23803247 62.60979182 -12.25347805 55.55333117 -12.25417572 48.49666196 C-12.25496879 44.28215103 -12.26372052 40.06802042 -12.29217339 35.85359764 C-12.31834586 31.88815486 -12.32056438 27.92340788 -12.30451775 23.95791817 C-12.30270248 22.50428119 -12.30940119 21.05060429 -12.32533646 19.59705353 C-12.45244564 7.24752133 -12.45244564 7.24752133 -9.28993225 3.31196594 C-5.87569304 0.47395774 -4.336747 0.03433763 0 0 Z M11.29760742 21.16113281 C11.29760742 40.96113281 11.29760742 60.76113281 11.29760742 81.16113281 C19.12479492 81.28488281 19.12479492 81.28488281 27.11010742 81.41113281 C28.73279541 81.44754883 30.3554834 81.48396484 32.02734375 81.52148438 C43.18605652 81.60641964 52.69492198 80.10195004 61.57885742 72.85644531 C67.25196228 67.26070098 70.23460858 60.46878494 70.32885742 52.52832031 C69.84585286 43.85838844 67.18082808 36.27057583 61.26635742 29.79785156 C46.77143072 17.74750575 29.61267856 21.16113281 11.29760742 21.16113281 Z "
          fill="#469896" transform="translate(718.702392578125,20.8388671875)"/>
    <path d="M0 0 C1.42119141 0.63615234 1.42119141 0.63615234 2.87109375 1.28515625 C16.98929233 8.31488342 26.82014819 20.14781826 32 35 C33.97833587 41.49719657 34.3513748 47.47634366 34.3125 54.25 C34.30686035 55.27198486 34.3012207 56.29396973 34.29541016 57.34692383 C34.01857731 74.54208091 28.28041408 87.87173264 16 100 C15.44699219 100.57492188 14.89398437 101.14984375 14.32421875 101.7421875 C5.16993803 110.51030749 -7.52608841 113.94038454 -19.88671875 114.02734375 C-35.02334508 113.63834367 -48.18685818 108.81314182 -59 98 C-59.00586624 98.69046921 -59.01173248 99.38093842 -59.01777649 100.09233093 C-59.0817108 107.2788651 -59.16613123 114.46495148 -59.26245117 121.65112305 C-59.29735011 124.33306601 -59.3249887 127.01493801 -59.34643555 129.69702148 C-59.37997146 133.55222433 -59.43228927 137.40678475 -59.48828125 141.26171875 C-59.49786613 143.06040657 -59.49786613 143.06040657 -59.50764465 144.89543152 C-59.52743881 146.01621597 -59.54723297 147.13700043 -59.56762695 148.29174805 C-59.57873001 149.27547897 -59.58983307 150.2592099 -59.60127258 151.27275085 C-60.18134691 155.24039178 -61.98308696 157.86575084 -64.625 160.8125 C-68.37485024 162.68742512 -71.90312317 162.77259442 -76 162 C-79.57052209 160.06658451 -81.69451966 157.91644101 -83 154 C-83.09451801 152.57211702 -83.13484632 151.1402712 -83.14044189 149.70927429 C-83.14615204 148.83348221 -83.15186218 147.95769012 -83.15774536 147.05535889 C-83.15886322 146.09696106 -83.15998108 145.13856323 -83.16113281 144.15112305 C-83.16609772 143.13929459 -83.17106262 142.12746613 -83.17617798 141.0849762 C-83.190816 137.72721683 -83.19760734 134.36950483 -83.203125 131.01171875 C-83.20887882 128.67299905 -83.21463653 126.33427937 -83.22039795 123.99555969 C-83.23091514 119.08191712 -83.23675189 114.16829092 -83.24023438 109.25463867 C-83.2456949 102.98848102 -83.26966747 96.72254332 -83.29820633 90.45645428 C-83.31693243 85.61854954 -83.32204378 80.78069647 -83.32357025 75.94275856 C-83.32657912 73.63492453 -83.33454725 71.32709102 -83.34775543 69.01929283 C-83.46175066 47.55421344 -82.09866944 28.44584182 -66.3125 12.1796875 C-48.84068131 -4.28868215 -22.42817228 -10.1257993 0 0 Z M-53 29 C-60.85416885 38.67678699 -61.94176671 49.88783374 -61 62 C-59.28374662 72.49774981 -53.45145329 80.52633018 -45.4140625 87.2734375 C-37.00695796 93.28628573 -26.9975922 95.00464333 -16.875 93.375 C-6.89774293 91.00322732 1.67646898 84.93386213 7.25 76.375 C13.63516748 65.03876683 14.22120645 54.1688688 10.9140625 41.8984375 C7.02420159 29.56392129 -0.3461218 23.10029189 -11.5 17.125 C-27.37056131 11.8029443 -42.06190276 17.26392769 -53 29 Z "
          fill="#B5CE4D" transform="translate(593,74)"/>
    <path d="M0 0 C11.58987419 9.23532381 18.36205303 23.1569393 20.85546875 37.515625 C22.58708281 54.9377442 19.65979497 72.05817168 8.8203125 86.1640625 C-1.11083341 97.82921801 -13.73565818 105.2589415 -29.14453125 106.515625 C-43.85566657 106.65058954 -56.25368213 103.55116754 -68.14453125 94.515625 C-69.82288799 92.86073098 -71.49099686 91.19532127 -73.14453125 89.515625 C-73.14817688 90.24367844 -73.15182251 90.97173187 -73.15557861 91.72184753 C-73.19349162 98.59297631 -73.25038182 105.46371608 -73.32843399 112.33449841 C-73.36789409 115.86665353 -73.40008929 119.39855992 -73.41552734 122.9309082 C-73.43360966 126.99470848 -73.48356644 131.05757971 -73.53515625 135.12109375 C-73.53699921 137.01821358 -73.53699921 137.01821358 -73.53887939 138.95365906 C-73.56845734 140.72492912 -73.56845734 140.72492912 -73.59863281 142.53198242 C-73.60751526 143.56900803 -73.61639771 144.60603363 -73.62554932 145.67448425 C-74.27570245 149.2337152 -75.66937072 150.92487822 -78.14453125 153.515625 C-81.59377445 155.2402466 -85.36584556 154.88172604 -89.14453125 154.515625 C-93.03709761 152.85921378 -94.57008794 151.37752575 -96.14453125 147.515625 C-96.39900684 145.33904266 -96.39900684 145.33904266 -96.40522766 142.93933105 C-96.41585487 141.56876053 -96.41585487 141.56876053 -96.42669678 140.17050171 C-96.42421936 139.17515411 -96.42174194 138.17980652 -96.41918945 137.15429688 C-96.42430038 136.10009552 -96.42941132 135.04589417 -96.43467712 133.95974731 C-96.44859696 130.46789903 -96.44761355 126.97624777 -96.4453125 123.484375 C-96.44920008 121.05261156 -96.45353488 118.6208488 -96.45829773 116.18908691 C-96.46576652 111.08469446 -96.4654653 105.98037114 -96.46020508 100.87597656 C-96.4544307 94.35740998 -96.4712892 87.83912941 -96.49454975 81.32061005 C-96.50934097 76.29319624 -96.5101511 71.26585029 -96.50704002 66.23841858 C-96.50755122 63.83683204 -96.51275092 61.4352415 -96.52285194 59.03367615 C-96.53529376 55.65963682 -96.52837653 52.28614109 -96.5168457 48.91210938 C-96.52448944 47.93295563 -96.53213318 46.95380188 -96.54000854 45.94497681 C-96.42411898 30.47600781 -90.77116253 15.84081969 -80.14453125 4.515625 C-58.04426346 -16.68657537 -24.5016208 -16.95922751 0 0 Z M-65.83203125 20.515625 C-73.80253198 31.67432602 -75.56305898 43.11560412 -74.14453125 56.515625 C-72.36316704 65.77871891 -67.17219461 73.50365121 -59.82421875 79.3671875 C-51.35223114 84.8971344 -41.86585134 87.47549666 -31.796875 86.07421875 C-21.33395748 83.87068826 -13.63148746 78.59711937 -7.25390625 69.953125 C-0.60413191 59.36513479 0.72500711 47.40655459 -1.83203125 35.24609375 C-5.26750654 25.01124029 -12.13021055 16.86270858 -21.28125 11.19140625 C-36.03593756 4.0520413 -55.31219803 8.04767451 -65.83203125 20.515625 Z "
          fill="#B4CE4C" transform="translate(458.14453125,81.484375)"/>
    <path d="M0 0 C13.20489833 9.40101815 21.47151215 22.98156061 24.36450195 38.86499023 C25.15870179 44.54520265 25.03042373 50.27972843 25.05078125 56.00390625 C25.05648132 57.24731781 25.0621814 58.49072937 25.0680542 59.77182007 C25.0774744 62.39246781 25.08402629 65.01312724 25.08789062 67.63378906 C25.09229889 70.31654286 25.10628973 72.99897927 25.12890625 75.68164062 C25.15930981 79.55999502 25.16992944 83.43794611 25.17578125 87.31640625 C25.18812805 88.51544586 25.20047485 89.71448547 25.2131958 90.94985962 C25.2101947 92.06807098 25.2071936 93.18628235 25.20410156 94.33837891 C25.20957001 95.80895248 25.20957001 95.80895248 25.21514893 97.30923462 C24.64164031 101.55111239 22.89943956 104.18007386 19.59765625 106.83984375 C16.08096028 108.35841701 13.64804798 108.43452858 9.84765625 108.02734375 C5.67570375 106.22581881 3.72114629 104.14902184 1.84765625 100.02734375 C1.16015625 96.21484375 1.16015625 96.21484375 0.84765625 93.02734375 C0.27660156 93.53523438 -0.29445313 94.043125 -0.8828125 94.56640625 C-13.83685722 105.56395773 -27.42151041 109.94469244 -44.28686523 108.75634766 C-59.34258148 107.32109268 -71.47165215 99.33264968 -81.15234375 88.02734375 C-92.31732815 72.81325556 -94.34068085 54.15698938 -91.85205078 35.81396484 C-91.07224841 32.01230409 -89.7595649 28.54816258 -88.15234375 25.02734375 C-87.73984375 24.09277344 -87.32734375 23.15820312 -86.90234375 22.1953125 C-79.71250414 7.59095079 -67.88909403 -2.01824944 -52.66015625 -7.24609375 C-34.88813392 -12.39499742 -15.56394215 -9.6992683 0 0 Z M-63.1640625 24.50390625 C-69.90081086 34.3053808 -72.59849535 45.16966522 -70.68359375 56.8984375 C-68.35086783 67.79837705 -63.47935896 76.67462802 -54.15234375 83.02734375 C-44.81022852 88.56927651 -35.61464128 90.22184399 -24.96484375 87.96484375 C-15.24854635 85.13989679 -7.97340344 79.25848019 -2.15234375 71.02734375 C-0.50033907 67.77585478 0.78215479 64.51279769 1.84765625 61.02734375 C2.13382813 60.10888672 2.13382813 60.10888672 2.42578125 59.171875 C4.5390479 48.42943621 3.02606238 37.22211406 -2.47265625 27.75390625 C-8.07057334 19.76999172 -15.45897446 13.13568276 -25.15234375 11.02734375 C-40.14461985 9.30802877 -53.27202487 12.32613565 -63.1640625 24.50390625 Z "
          fill="#B5CE4C" transform="translate(306.15234375,78.97265625)"/>
    <path d="M0 0 C11.20749588 8.82590301 17.87739011 21.85205416 19.76220703 35.92675781 C20.00677253 38.06411206 20.20231513 40.1994374 20.375 42.34375 C20.4366333 43.02211914 20.4982666 43.70048828 20.56176758 44.39941406 C20.82917446 48.86173183 20.20180874 51.4137385 17.5 54.96875 C14.06885836 58.39989164 10.59212681 58.08370587 5.86195374 58.09317017 C5.11892502 58.08957489 4.3758963 58.08597961 3.61035156 58.08227539 C2.81972824 58.08242142 2.02910492 58.08256744 1.21452332 58.0827179 C-1.39347089 58.08202236 -4.0013933 58.07424675 -6.609375 58.06640625 C-8.41969768 58.0645408 -10.23002087 58.06311749 -12.04034424 58.06211853 C-16.80130409 58.05830339 -21.56223337 58.04848165 -26.32318115 58.03741455 C-31.18289781 58.02717887 -36.04261942 58.02261629 -40.90234375 58.01757812 C-50.43490926 58.0068585 -59.96745208 57.9897941 -69.5 57.96875 C-68.7274906 59.88086648 -67.9489737 61.79055653 -67.16796875 63.69921875 C-66.73508545 64.76293701 -66.30220215 65.82665527 -65.85620117 66.92260742 C-61.62399208 76.42850712 -54.07077259 82.88238883 -44.5 86.90625 C-32.3864832 90.3212308 -19.56484815 88.62127011 -8.5 82.96875 C-7.19922714 82.21338468 -5.9057644 81.44506516 -4.625 80.65625 C-0.82770008 78.60570804 1.24487561 78.27245692 5.5 78.96875 C8.46476307 80.7742574 10.92247762 82.81370524 12.5 85.96875 C12.875 88.78125 12.875 88.78125 12.5 91.96875 C4.43287397 102.30475523 -10.24520218 106.97666991 -22.73828125 108.69140625 C-39.55908072 110.38062374 -55.98780301 106.24976945 -69.5 95.96875 C-70.38558594 95.36353516 -70.38558594 95.36353516 -71.2890625 94.74609375 C-81.71655494 86.96118501 -87.95939076 73.04585312 -90.078125 60.5625 C-92.16674104 42.77058557 -89.20093394 24.8149232 -78.23193359 10.28955078 C-72.44999448 3.39462599 -65.73189254 -1.50491587 -57.5 -5.03125 C-56.58476563 -5.44246094 -55.66953125 -5.85367188 -54.7265625 -6.27734375 C-37.05613303 -12.97912081 -15.48860983 -10.62590674 0 0 Z M-62.5 22.96875 C-65.94742604 28.49023723 -68.22205771 33.57903857 -69.5 39.96875 C-46.73 39.96875 -23.96 39.96875 -0.5 39.96875 C-2.54783161 29.72959194 -5.06232831 21.70017177 -13.55078125 15.21875 C-29.67647088 4.87762639 -50.25912826 8.50226521 -62.5 22.96875 Z "
          fill="#499A97" transform="translate(922.5,79.03125)"/>
    <path d="M0 0 C9.83381823 8.09940104 15.44430965 19.6975667 17.53515625 32.18359375 C17.63513728 34.42549789 17.68332383 36.66996752 17.69628906 38.9140625 C17.70373642 39.8979747 17.70373642 39.8979747 17.71133423 40.90176392 C17.72586589 43.05821808 17.73274101 45.2145988 17.73828125 47.37109375 C17.74403801 48.87654623 17.74979568 50.3819987 17.7555542 51.88745117 C17.76603709 55.03792663 17.77189816 58.18837676 17.77539062 61.33886719 C17.78088432 65.37062557 17.80494211 69.40204778 17.83336258 73.43370056 C17.85200294 76.54098487 17.85719519 79.64818818 17.8587265 82.75552368 C17.86174798 84.24185025 17.86975952 85.72817557 17.88291168 87.21444702 C17.90001001 89.29426641 17.89808387 91.37326341 17.89160156 93.453125 C17.89707001 95.22586792 17.89707001 95.22586792 17.90264893 97.03442383 C17.49670787 100.51307098 16.58962296 102.37882969 14.53515625 105.18359375 C11.50270314 107.54216839 8.27449811 107.54293291 4.5 107.4375 C1.57887833 107.06001907 -0.20798899 106.04218003 -2.46484375 104.18359375 C-4.57762092 100.88353688 -4.7201355 98.19483653 -4.73608398 94.3203125 C-4.75136391 92.54696533 -4.75136391 92.54696533 -4.76695251 90.73779297 C-4.76909256 89.46178223 -4.7712326 88.18577148 -4.7734375 86.87109375 C-4.79216339 84.85371594 -4.81090655 82.83633812 -4.83062077 80.81896973 C-4.87582436 75.85645919 -4.89943103 70.89381256 -4.92114258 65.93115234 C-4.93719087 62.47041794 -4.96759699 59.01002459 -5.00590706 55.54946899 C-5.0229552 53.61336748 -5.02361046 51.67714336 -5.02378845 49.7409668 C-5.14277342 38.97024415 -6.18887286 27.68540756 -13.46484375 19.18359375 C-20.74928681 12.22695063 -29.58427687 10.64587383 -39.36865234 10.69384766 C-48.71208102 11.05127053 -56.53805133 14.40426113 -63.0625 21.14453125 C-67.9463265 28.24580544 -67.89448085 34.65687592 -67.87553406 43.11787415 C-67.87101967 45.31337105 -67.88515592 47.50807724 -67.90393066 49.70349121 C-67.94054677 54.36351295 -67.95439688 59.02344939 -67.96484375 63.68359375 C-67.97695875 69.08786011 -67.99863087 74.49173661 -68.04484558 79.89582825 C-68.0583378 82.0489976 -68.05426014 84.20166395 -68.04943848 86.3548584 C-68.14385479 98.66471391 -68.14385479 98.66471391 -71.46484375 104.18359375 C-74.80695296 107.14374762 -78.00128066 107.76544817 -82.46484375 107.61328125 C-86.0755256 106.83754882 -87.917496 104.79307193 -90.46484375 102.18359375 C-91.6049474 99.90338645 -91.59515456 98.6377978 -91.60528564 96.10441589 C-91.61099579 95.25064865 -91.61670593 94.39688141 -91.62258911 93.51724243 C-91.62370697 92.57851288 -91.62482483 91.63978333 -91.62597656 90.67260742 C-91.63094147 89.68548264 -91.63590637 88.69835785 -91.64102173 87.68132019 C-91.65566696 84.40472729 -91.66244948 81.1281828 -91.66796875 77.8515625 C-91.67371849 75.57953387 -91.67947625 73.30750527 -91.6852417 71.03547668 C-91.69575857 66.26640598 -91.70159667 61.49735216 -91.70507812 56.72827148 C-91.71056263 50.61477412 -91.73458701 44.50149951 -91.76305008 38.38807201 C-91.78166679 33.69293057 -91.78688156 28.99784286 -91.788414 24.30266762 C-91.79144351 22.04879858 -91.79948202 19.79493055 -91.81259918 17.54109764 C-91.8296383 14.388147 -91.82778441 11.23574157 -91.82128906 8.08276367 C-91.83050385 7.15010681 -91.83971863 6.21744995 -91.84921265 5.25653076 C-91.81798648 0.42203621 -91.66921613 -2.92508978 -88.46484375 -6.81640625 C-84.3563453 -9.68280052 -81.18281205 -10.30551348 -76.359375 -9.45703125 C-73.13625397 -8.36715115 -71.50713524 -6.4593717 -69.46484375 -3.81640625 C-68.15234375 -1.00390625 -68.15234375 -1.00390625 -67.46484375 1.18359375 C-67.00335937 0.796875 -66.541875 0.41015625 -66.06640625 0.01171875 C-47.00054692 -15.21082506 -19.29927494 -14.22212813 0 0 Z "
          fill="#489996" transform="translate(1060.46484375,79.81640625)"/>
    <path d="M0 0 C5.61926818 0.13049752 10.93386746 1.25632155 16.39453125 2.515625 C17.36970703 2.72058594 18.34488281 2.92554688 19.34960938 3.13671875 C23.31116942 4.03398355 26.41053726 4.80500539 29.78125 7.1171875 C31.49660966 9.95036411 31.27869437 11.17314139 30.58203125 14.390625 C30.36417969 15.43347656 30.14632812 16.47632813 29.921875 17.55078125 C29.64472656 18.77667969 29.36757812 20.00257812 29.08203125 21.265625 C28.76802352 22.8262602 28.45699217 24.38749627 28.1484375 25.94921875 C27.81549927 27.57586913 27.48086751 29.20217382 27.14453125 30.828125 C26.98726562 31.61396973 26.83 32.39981445 26.66796875 33.20947266 C25.81519211 37.13480354 25.2128737 39.69505384 22.08203125 42.265625 C19.70703125 42.828125 19.70703125 42.828125 17.08203125 42.265625 C15.01053698 40.41990667 13.69859012 38.57499481 12.08203125 36.265625 C12.08203125 35.605625 12.08203125 34.945625 12.08203125 34.265625 C11.5715625 34.52666016 11.06109375 34.78769531 10.53515625 35.05664062 C-41.99851647 61.64948382 -102.25456079 67.92306167 -158.61474609 49.69580078 C-189.97545508 39.36074571 -189.97545508 39.36074571 -197.91796875 32.265625 C-199.76659563 28.56837125 -199.39383969 24.30101058 -198.91796875 20.265625 C-197.12150021 17.33139305 -195.97386165 15.79357145 -192.91796875 14.265625 C-184.9562244 13.53965432 -179.48462043 15.700864 -172.29296875 18.953125 C-170.14997215 19.88115603 -168.00544208 20.8056542 -165.859375 21.7265625 C-164.31854248 22.39123535 -164.31854248 22.39123535 -162.74658203 23.06933594 C-153.55011133 26.95874613 -144.03954331 29.58898246 -134.35546875 31.953125 C-133.52893799 32.15591064 -132.70240723 32.35869629 -131.85083008 32.56762695 C-118.76954656 35.62806204 -105.92492991 36.67570594 -92.54296875 36.640625 C-91.75727509 36.64008118 -90.97158142 36.63953735 -90.16207886 36.63897705 C-76.43995224 36.59554325 -63.30204425 35.46727714 -49.91796875 32.265625 C-48.5729126 31.94416504 -48.5729126 31.94416504 -47.20068359 31.61621094 C-31.59719871 27.75120495 -15.75432892 22.5674411 -1.91796875 14.265625 C-2.90796875 12.96625 -2.90796875 12.96625 -3.91796875 11.640625 C-6.05502165 8.03434823 -6.47678319 6.36359757 -5.91796875 2.265625 C-3.91796875 0.265625 -3.91796875 0.265625 0 0 Z "
          fill="#B5CF4C" transform="translate(198.91796875,31.734375)"/>
    <path d="M0 0 C2.82424288 2.19022918 4.41508603 3.83017207 6 7 C6.08658569 9.55362604 6.11562516 12.0795442 6.09765625 14.6328125 C6.0962413 15.38464813 6.09482635 16.13648376 6.09336853 16.91110229 C6.08776465 19.3157751 6.07521157 21.72035527 6.0625 24.125 C6.0574855 25.75390491 6.0529225 27.38281127 6.04882812 29.01171875 C6.03779397 33.00784827 6.02052679 37.00390842 6 41 C6.64026123 40.97905273 7.28052246 40.95810547 7.94018555 40.93652344 C10.85579575 40.85310716 13.77115452 40.80126031 16.6875 40.75 C18.19860352 40.69972656 18.19860352 40.69972656 19.74023438 40.6484375 C27.20025191 40.54995542 27.20025191 40.54995542 31.14453125 42.76953125 C33.90297786 46.08547444 34.28649851 48.76150729 34 53 C32.79301051 56.08452871 31.90329129 57.48485566 29.02734375 59.125 C24.5788926 60.41074588 20.29074136 60.20958253 15.6875 60.125 C14.75615234 60.11597656 13.82480469 60.10695312 12.86523438 60.09765625 C10.5765564 60.07418263 8.28841328 60.04134729 6 60 C6.03818743 67.29400966 6.09773648 74.5875237 6.18390274 81.88113403 C6.22326475 85.26859356 6.25550766 88.65579755 6.27099609 92.04345703 C6.29247832 95.94606166 6.33916004 99.84768949 6.390625 103.75 C6.39185364 104.95551514 6.39308228 106.16103027 6.39434814 107.40307617 C6.53571981 115.58039434 7.40896884 121.49874462 13.5 127.4375 C17.77576733 130.10985458 21.45507156 130.06653931 26.4375 130.1875 C33.67441845 130.73230173 33.67441845 130.73230173 36.3125 133.5 C38.42608964 137.88374148 38.95200713 141.22233456 38 146 C35.63235651 150.12145348 33.43787216 151.55863981 29 153 C17.83165692 154.12708049 8.25972579 152.28357146 -0.8984375 145.73046875 C-8.67927632 139.32356987 -14.17117598 130.99756696 -16 121 C-16.27503077 116.32318608 -16.23255366 111.65612313 -16.1953125 106.97265625 C-16.19157681 105.61502797 -16.18873247 104.25739697 -16.18673706 102.89976501 C-16.17914431 99.34712118 -16.15953397 95.79464397 -16.1373291 92.24206543 C-16.11677613 88.6086655 -16.10771524 84.97523833 -16.09765625 81.34179688 C-16.07628339 74.22779691 -16.04220087 67.1139094 -16 60 C-16.82419434 60.01450195 -17.64838867 60.02900391 -18.49755859 60.04394531 C-19.57859863 60.05522461 -20.65963867 60.06650391 -21.7734375 60.078125 C-22.84513184 60.09262695 -23.91682617 60.10712891 -25.02099609 60.12207031 C-28.71167289 59.97083786 -31.0240165 59.19282995 -34 57 C-35.76551385 54.67273175 -35.99673184 53.02147649 -36.4375 50.125 C-35.98422532 46.88732369 -35.29548728 44.5980659 -33.10327148 42.11181641 C-29.93108414 40.4349573 -26.77755155 40.72406611 -23.28515625 40.8359375 C-22.5852356 40.84778076 -21.88531494 40.85962402 -21.16418457 40.87182617 C-19.4425357 40.90266167 -17.72119134 40.94974042 -16 41 C-16.02094727 39.96593018 -16.04189453 38.93186035 -16.06347656 37.86645508 C-16.13605288 34.01812672 -16.18186317 30.16985846 -16.21972656 26.32104492 C-16.23980207 24.65752987 -16.26706876 22.99408504 -16.30175781 21.33081055 C-16.35045766 18.9352076 -16.37300856 16.54054008 -16.390625 14.14453125 C-16.41127014 13.4047554 -16.43191528 12.66497955 -16.45318604 11.90278625 C-16.45477859 8.211115 -16.12059871 6.187083 -14.10058594 3.0534668 C-10.03232193 -0.92354024 -5.45506262 -0.78909711 0 0 Z "
          fill="#469896" transform="translate(1134,34)"/>
    <path d="M0 0 C7.70477846 1.07823439 7.70477846 1.07823439 10.9296875 1.9375 C11.90421875 2.19660156 11.90421875 2.19660156 12.8984375 2.4609375 C13.55070312 2.63882813 14.20296875 2.81671875 14.875 3 C15.55046875 3.17789063 16.2259375 3.35578125 16.921875 3.5390625 C21.87066449 4.87066449 21.87066449 4.87066449 23 6 C23.11101622 8.5239304 23.15738817 11.0207548 23.16113281 13.5456543 C23.16609772 14.33595535 23.17106262 15.12625641 23.17617798 15.94050598 C23.19084271 18.56841896 23.19761023 21.19627149 23.203125 23.82421875 C23.2088748 25.64687604 23.21463255 27.46953331 23.22039795 29.29219055 C23.23092149 33.12147301 23.23675466 36.9507344 23.24023438 40.7800293 C23.24570892 45.68167732 23.26970891 50.58304611 23.29820633 55.48460674 C23.31685615 59.2533295 23.32203965 63.0219855 23.32357025 66.7907505 C23.32659418 68.59722221 23.33461397 70.40369281 23.34775543 72.21011925 C23.36485803 74.74275071 23.36292505 77.27470687 23.35644531 79.80737305 C23.3656601 80.55099091 23.37487488 81.29460876 23.3843689 82.0607605 C23.34667051 86.77725178 22.5139765 90.00489517 20 94 C15.75352134 97.13430568 12.29857445 97.26139822 7.24609375 96.91015625 C3.82190946 95.52261722 1.81139037 93.13104836 0 90 C-0.68160556 87.00541818 -0.63471699 84.11744929 -0.56762695 81.05712891 C-0.56835709 80.1784314 -0.56908722 79.29973389 -0.56983948 78.39440918 C-0.56636992 75.50448802 -0.52753916 72.61620032 -0.48828125 69.7265625 C-0.47895087 67.71732463 -0.47183582 65.70807535 -0.46684265 63.69882202 C-0.44779067 58.42137004 -0.39870499 53.14461074 -0.34332275 47.86743164 C-0.29209165 42.47812265 -0.26932034 37.08870128 -0.24414062 31.69921875 C-0.19058484 21.13250887 -0.10529352 10.56631213 0 0 Z "
          fill="#B5CF4C" transform="translate(37,90)"/>
    <path d="M0 0 C0.11589741 11.76119602 0.20471751 23.52225597 0.25906086 35.28390694 C0.28514429 40.74546619 0.32052006 46.20663449 0.37719727 51.66796875 C0.43156085 56.93940951 0.46142997 62.21047445 0.47438622 67.48217392 C0.48361822 69.49243969 0.50164642 71.50268509 0.52865028 73.51279068 C0.56499822 76.33075506 0.56994293 79.1471706 0.56762695 81.96533203 C0.58560333 82.79467758 0.60357971 83.62402313 0.62210083 84.47850037 C0.58532448 88.61951783 0.24283471 91.22034834 -2.39289856 94.50778198 C-5.71051416 97.67920495 -7.44461143 97.96690053 -11.8515625 98.171875 C-15.79327145 97.85653828 -17.89467008 96.09552341 -20.61152649 93.402771 C-22.61231326 89.94038414 -22.39429641 86.63020735 -22.34057617 82.74316406 C-22.34101425 81.91352646 -22.34145233 81.08388885 -22.34190369 80.22911072 C-22.3398162 77.49104149 -22.31648719 74.75358706 -22.29296875 72.015625 C-22.28737265 70.11562433 -22.28310262 68.21561934 -22.28010559 66.31561279 C-22.26865793 61.31781029 -22.23919135 56.32026985 -22.20599365 51.3225708 C-22.17529112 46.22159368 -22.16159986 41.12057416 -22.14648438 36.01953125 C-22.11432164 26.01290577 -22.06312616 16.00647469 -22 6 C-18.7096777 4.99553896 -15.41753178 3.99719244 -12.125 3 C-11.18785156 2.71382813 -10.25070313 2.42765625 -9.28515625 2.1328125 C-8.38925781 1.86210938 -7.49335938 1.59140625 -6.5703125 1.3125 C-5.32918701 0.93544922 -5.32918701 0.93544922 -4.06298828 0.55078125 C-2 0 -2 0 0 0 Z "
          fill="#B2CE46" transform="translate(179,89)"/>
    <path d="M0 0 C3.41311667 2.52570633 4.66637768 3.99913304 6 8 C6.08650584 9.48844716 6.11770173 10.98048257 6.11352539 12.47143555 C6.11344986 13.37214279 6.11337433 14.27285004 6.11329651 15.20085144 C6.10813522 16.16968765 6.10297394 17.13852386 6.09765625 18.13671875 C6.0962413 19.13129593 6.09482635 20.12587311 6.09336853 21.15058899 C6.08776761 24.32958982 6.07521496 27.50852043 6.0625 30.6875 C6.05748512 32.84179586 6.05292219 34.99609282 6.04882812 37.15039062 C6.03779788 42.43361774 6.02105886 47.71680385 6 53 C0.3276758 52.44922745 -4.63928419 51.33986138 -10 49.4375 C-11.01900391 49.08655273 -11.01900391 49.08655273 -12.05859375 48.72851562 C-13.70814723 48.15930351 -15.3544412 47.58065942 -17 47 C-17.09902133 41.25257371 -17.17154082 35.50564608 -17.21972656 29.75756836 C-17.23981774 27.80305327 -17.26709589 25.8485981 -17.30175781 23.89428711 C-17.35038601 21.08171792 -17.3729936 18.26994473 -17.390625 15.45703125 C-17.41127014 14.58601273 -17.43191528 13.7149942 -17.45318604 12.81758118 C-17.45471126 8.67554216 -17.35028384 6.55851813 -15.10058594 2.97143555 C-10.76981363 -1.09306775 -5.68125691 -0.74602363 0 0 Z "
          fill="#B5CF4D" transform="translate(54,0)"/>
    <path d="M0 0 C2.93423195 1.79646854 4.47205355 2.9441071 6 6 C6.08705146 8.98970289 6.11550145 11.95584955 6.09765625 14.9453125 C6.0962413 15.8303244 6.09482635 16.7153363 6.09336853 17.62716675 C6.0877614 20.45981191 6.07520771 23.29237864 6.0625 26.125 C6.05748592 28.04296761 6.05292285 29.96093646 6.04882812 31.87890625 C6.03778966 36.58596782 6.02052025 41.2929706 6 46 C3.27229834 46.98341615 0.54297895 47.96185053 -2.1875 48.9375 C-3.34088867 49.35418945 -3.34088867 49.35418945 -4.51757812 49.77929688 C-8.32335366 51.13500232 -11.9932364 52.36566268 -16 53 C-16.10150385 46.39816433 -16.17150894 39.79653024 -16.21972656 33.1940918 C-16.2398294 30.94857259 -16.26711605 28.70310565 -16.30175781 26.45776367 C-16.3503331 23.2282216 -16.37298237 19.99937225 -16.390625 16.76953125 C-16.41127014 15.76727005 -16.43191528 14.76500885 -16.45318604 13.7323761 C-16.45461086 9.29649151 -16.45233118 6.74076499 -14.10058594 2.8894043 C-9.90179439 -0.88726327 -5.43513544 -0.64093578 0 0 Z "
          fill="#B2CE46" transform="translate(173,0)"/>
    <path d="M0 0 C0.99 0.33 1.98 0.66 3 1 C1.78437378 1.92462036 1.78437378 1.92462036 0.54418945 2.86791992 C-2.5998364 6.03578778 -2.62258334 8.95525164 -2.71894836 13.27497864 C-2.71501572 14.2116185 -2.71108307 15.14825836 -2.70703125 16.11328125 C-2.72971321 17.56760811 -2.72971321 17.56760811 -2.75285339 19.05131531 C-2.79573491 22.13861337 -2.80456899 25.22493378 -2.8125 28.3125 C-2.8356439 30.40953121 -2.86100901 32.50653916 -2.88867188 34.60351562 C-2.95152905 39.73576353 -2.98386075 44.86740113 -3 50 C-1.68 50.33 -0.36 50.66 1 51 C-1.475 51.495 -1.475 51.495 -4 52 C-4.10150385 45.39816433 -4.17150894 38.79653024 -4.21972656 32.1940918 C-4.2398294 29.94857259 -4.26711605 27.70310565 -4.30175781 25.45776367 C-4.3503331 22.2282216 -4.37298237 18.99937225 -4.390625 15.76953125 C-4.41127014 14.76727005 -4.43191528 13.76500885 -4.45318604 12.7323761 C-4.45544041 5.71386385 -4.45544041 5.71386385 -1.97558594 1.8269043 C-1.32364258 1.22402588 -0.67169922 0.62114746 0 0 Z "
          fill="#BBD359" transform="translate(161,1)"/>
    <path d="M0 0 C0.91007812 0.00902344 1.82015625 0.01804688 2.7578125 0.02734375 C3.45648437 0.03894531 4.15515625 0.05054688 4.875 0.0625 C4.875 0.3925 4.875 0.7225 4.875 1.0625 C4.28332031 1.07667969 3.69164062 1.09085938 3.08203125 1.10546875 C1.89673828 1.17701172 1.89673828 1.17701172 0.6875 1.25 C-0.08980469 1.28480469 -0.86710937 1.31960937 -1.66796875 1.35546875 C-5.29368416 2.39879862 -6.76226314 4.14575539 -9.125 7.0625 C-9.63222152 9.89982319 -9.84754511 12.15623781 -9.83203125 14.98828125 C-9.85471321 16.10966743 -9.85471321 16.10966743 -9.87785339 17.25370789 C-9.92064081 19.62778087 -9.9295588 22.00058031 -9.9375 24.375 C-9.96065158 25.99026802 -9.98601831 27.60550591 -10.01367188 29.22070312 C-10.07643457 33.16808086 -10.10883984 37.11466754 -10.125 41.0625 C-10.455 41.0625 -10.785 41.0625 -11.125 41.0625 C-11.22411652 36.16957468 -11.29658399 31.27723779 -11.34472656 26.38354492 C-11.36480207 24.72002987 -11.39206876 23.05658504 -11.42675781 21.39331055 C-11.47545766 18.9977076 -11.49800856 16.60304008 -11.515625 14.20703125 C-11.53627014 13.4672554 -11.55691528 12.72747955 -11.57818604 11.96528625 C-11.57977859 8.273615 -11.24559871 6.249583 -9.22558594 3.1159668 C-6.05675181 0.01821414 -4.32061597 -0.05539251 0 0 Z "
          fill="#6EAEAB" transform="translate(1129.125,33.9375)"/>
    <path d="M0 0 C0.66 0.33 1.32 0.66 2 1 C-2.62 5.62 -7.24 10.24 -12 15 C-12 10.91678393 -10.42111745 9.89782894 -7.6875 6.9375 C-6.88699219 6.05964844 -6.08648437 5.18179688 -5.26171875 4.27734375 C-3 2 -3 2 0 0 Z "
          fill="#CFDF8C" transform="translate(237,80)"/>
    <path d="M0 0 C0 0.33 0 0.66 0 1 C-0.59167969 1.01417969 -1.18335938 1.02835938 -1.79296875 1.04296875 C-6.19614307 1.30873947 -8.41467687 1.52676002 -11.9375 4.375 C-14.06263467 7.00957369 -14.06263467 7.00957369 -16 10 C-15.75499132 6.40653943 -15.363706 4.44583317 -13.0625 1.625 C-8.71218191 -0.68333205 -4.8265321 -0.33738865 0 0 Z "
          fill="#87BCBA" transform="translate(1134,34)"/>
    <path d="M0 0 C0.99 0.33 1.98 0.66 3 1 C2.21625 1.763125 1.4325 2.52625 0.625 3.3125 C-2.07257717 5.90891805 -2.07257717 5.90891805 -4 9 C-3.38461538 3.46153846 -3.38461538 3.46153846 -1.4375 1.125 C-0.963125 0.75375 -0.48875 0.3825 0 0 Z "
          fill="#C9DC7E" transform="translate(161,1)"/>
    <path d="M0 0 C0.8971875 0.309375 0.8971875 0.309375 1.8125 0.625 C-1.1340385 2.42566242 -4.07551935 4.12663895 -7.1875 5.625 C-5.69046729 2.17030914 -4.27938051 -0.73360809 0 0 Z "
          fill="#CEE08A" transform="translate(45.1875,0.375)"/>
</svg>
