<?xml version="1.0" encoding="UTF-8"?>
<svg xmlns="http://www.w3.org/2000/svg" version="1.1" width="802" height="657">
    <path d="M0 0 C9.25452931 2.39100968 18.52159136 4.57735986 27.8984375 6.4375 C28.7712738 6.61126663 29.64411011 6.78503326 30.543396 6.96406555 C34.81726448 7.81017982 39.09406422 8.63517006 43.37695312 9.43432617 C51.68793836 11.02446235 59.28607965 12.62459262 66.5 17.3125 C67.35335937 17.8590625 68.20671875 18.405625 69.0859375 18.96875 C71.5117618 22.98945326 71.17663071 27.21109757 71.125 31.8125 C71.1137207 32.88798096 71.10244141 33.96346191 71.09082031 35.0715332 C70.77685211 45.84825844 68.67620049 55.9341239 66.14097595 66.37954712 C64.52092795 73.09563667 63.06661747 79.84550642 61.60546875 86.59765625 C60.81601923 90.2098688 60.02426259 93.82156589 59.23132324 97.43301392 C58.70488949 99.83995273 58.18262628 102.24780774 57.66467285 104.65658569 C56.92544333 108.08181878 56.16617149 111.50205479 55.40234375 114.921875 C55.07583076 116.46567589 55.07583076 116.46567589 54.74272156 118.04066467 C53.04975336 125.49035052 50.45607726 131.17072688 45.19921875 136.7578125 C39.48092857 140.05141524 31.83751279 139.7818459 25.5 138.3125 C16.21941334 133.08913316 10.71493072 121.2555514 5.5 112.3125 C3.57100515 113.2262344 1.64202948 114.14000932 -0.28686523 115.05395508 C-2.00090417 115.86565897 -3.71527088 116.67667102 -5.42993164 117.48706055 C-9.63021316 119.47329343 -13.82671916 121.46583652 -18.0078125 123.4921875 C-40.33763654 134.27552019 -63.25837602 143.68809735 -86.5 152.3125 C-88.14572998 152.92689941 -88.14572998 152.92689941 -89.82470703 153.55371094 C-148.40099172 175.31911215 -209.48272045 189.04110293 -271.5 196.3125 C-272.27404175 196.40444641 -273.0480835 196.49639282 -273.84558105 196.59112549 C-296.61437785 199.26050699 -319.40284795 199.58864616 -342.30108643 199.62168121 C-343.74880116 199.62386623 -345.19651492 199.6268711 -346.64422607 199.63076019 C-373.25027833 199.70194201 -399.73682964 198.61923806 -426.1875 195.5625 C-426.91671661 195.47979858 -427.64593323 195.39709717 -428.39724731 195.31188965 C-458.4456293 191.87367095 -488.05673401 186.16540995 -517.5 179.3125 C-518.77488281 179.01682129 -520.04976562 178.72114258 -521.36328125 178.41650391 C-556.44925681 170.135429 -590.68429598 158.32252302 -624.875 147 C-625.97329132 146.63803528 -627.07158264 146.27607056 -628.20315552 145.90313721 C-640.41394412 141.87115291 -652.5228096 137.638024 -664.53125 133.03515625 C-665.59596527 132.62746506 -666.66068054 132.21977386 -667.75765991 131.79972839 C-685.16646606 125.03919108 -702.41029259 117.63890708 -710.65234375 99.65625 C-714.67516342 88.5332463 -716.52942718 75.49391444 -711.70703125 64.28125 C-705.85970823 54.74386877 -697.08466875 46.93869078 -686.5 43.3125 C-683.26769915 42.76243476 -680.14819244 42.70576767 -676.875 42.75 C-675.69357422 42.71422852 -675.69357422 42.71422852 -674.48828125 42.67773438 C-661.67875201 42.70818492 -649.45362063 49.01613899 -638.0112915 54.24282837 C-568.61702884 85.85390941 -495.41144424 109.23317545 -419.50683594 118.07818604 C-417.54054906 118.30776558 -415.57495162 118.54322555 -413.609375 118.77880859 C-373.10995153 123.44289807 -331.05751809 123.30238701 -290.5 119.3125 C-289.47841797 119.22129883 -288.45683594 119.13009766 -287.40429688 119.03613281 C-256.89448234 116.27572102 -226.23668805 110.61473006 -196.5 103.3125 C-194.63359863 102.85423828 -194.63359863 102.85423828 -192.72949219 102.38671875 C-140.63411315 89.51235234 -86.25246508 72.24780675 -39.5 45.3125 C-43.16615171 37.78495773 -46.87409674 30.39916427 -51.3359375 23.30078125 C-54.69206078 17.56834249 -54.02431268 10.72979188 -53.5 4.3125 C-51.2695203 -0.66318549 -48.24423828 -3.07332789 -43.5 -5.6875 C-30.10708567 -10.03114789 -13.02027828 -3.39334173 0 0 Z " fill="#AFCA40" transform="translate(721.5,128.6875)"/>
    <path d="M0 0 C8.12099368 0.71337422 15.80987864 2.84658911 23.63441467 5.01953125 C25.09729706 5.41987759 26.56034851 5.81960661 28.02355957 6.21875 C31.06816014 7.05104899 34.11124059 7.88861761 37.1532135 8.73046875 C41.05849175 9.81109475 44.96647529 10.88151821 48.87550449 11.94848633 C51.88645712 12.77090886 54.89640265 13.59696377 57.90600395 14.42431641 C59.34796147 14.82058136 60.79012667 15.21609137 62.23250008 15.61083984 C64.23666822 16.16027722 66.23954019 16.71419531 68.24208069 17.26953125 C69.38218094 17.5840625 70.52228119 17.89859375 71.69692993 18.22265625 C74.25550842 19.01953125 74.25550842 19.01953125 75.25550842 20.01953125 C75.35587274 21.51042769 75.38657513 23.00606633 75.3897295 24.50033379 C75.39418734 25.4743753 75.39864519 26.44841682 75.40323812 27.45197475 C75.40305376 28.53491506 75.40286939 29.61785537 75.40267944 30.73361206 C75.40635613 31.87418347 75.41003282 33.01475489 75.41382092 34.18988907 C75.4229695 37.37024167 75.42756225 40.55056395 75.43021023 43.73092747 C75.43410532 47.15583669 75.44368459 50.58073085 75.4524231 54.00563049 C75.47221628 62.28713218 75.48226005 70.56863514 75.49115089 78.85015458 C75.49553155 82.74984676 75.50089916 86.64953757 75.50613976 90.54922867 C75.52315945 103.51457627 75.5376514 116.47992301 75.5448885 129.44528008 C75.54679843 132.81247839 75.54871875 136.17967671 75.55067444 139.546875 C75.55115818 140.38378683 75.55164192 141.22069867 75.55214032 142.08297147 C75.56043214 155.62612527 75.58575137 169.16919049 75.61825512 182.71230565 C75.6513547 196.61719479 75.66934012 210.522039 75.67253274 224.42696774 C75.6746958 232.2337048 75.6834139 240.04031293 75.70899391 247.84701157 C75.73074106 254.49946415 75.73873191 261.15175653 75.72902713 267.80424063 C75.72449305 271.19610607 75.72851304 274.58737428 75.74578857 277.97923851 C75.76350708 281.66497389 75.75640009 285.34987764 75.74325562 289.03561401 C75.75422486 290.09624711 75.76519411 291.1568802 75.77649575 292.2496537 C75.67399071 304.19680762 71.63056574 313.52153731 63.25550842 322.01953125 C53.38211885 330.43917021 39.89383383 331.2282994 27.47181702 330.31689453 C18.2715995 329.08249654 10.36147112 322.68412458 4.25550842 316.01953125 C-2.05750073 307.58372663 -3.90445633 297.63686753 -3.87147522 287.33776855 C-3.87303521 286.58225472 -3.8745952 285.82674088 -3.87620246 285.04833269 C-3.88018162 282.52243616 -3.87703357 279.99660008 -3.87388611 277.47070312 C-3.87524252 275.65191615 -3.8770238 273.83312945 -3.87919617 272.01434326 C-3.88377042 267.04986085 -3.88197348 262.08539916 -3.87881708 257.12091637 C-3.87625994 251.82641932 -3.87864332 246.53192389 -3.88020325 241.23742676 C-3.88202918 232.25203137 -3.87962207 223.26664415 -3.87486267 214.28125 C-3.87013896 205.26431735 -3.86993475 196.2474013 -3.87486267 187.23046875 C-3.90012705 139.69706459 -3.81114971 92.16710718 -3.33057928 44.6357975 C-3.29929762 41.5001642 -3.26966001 38.36451882 -3.240345 35.22886658 C-3.19436228 30.37196113 -3.14290631 25.51514564 -3.08669138 20.65834808 C-3.06671775 18.88009597 -3.04832757 17.1018253 -3.03159475 15.32353973 C-3.00839347 12.91153276 -2.97902309 10.49968347 -2.9478302 8.08776855 C-2.94227116 7.37787387 -2.93671211 6.66797919 -2.93098462 5.93657255 C-2.84227868 0.03182203 -2.84227868 0.03182203 0 0 Z " fill="#AECA40" transform="translate(137.74449157714844,321.98046875)"/>
    <path d="M0 0 C1.52544653 1.52544653 1.16002302 2.90816642 1.20154095 5.03783131 C1.23031254 6.34599393 1.23031254 6.34599393 1.25966537 7.68058407 C1.28360545 9.12910443 1.28360545 9.12910443 1.30802917 10.60688782 C1.33828648 12.12515822 1.33828648 12.12515822 1.36915505 13.67410076 C1.43446965 17.068217 1.4915462 20.46240843 1.54760742 23.85668945 C1.56842703 25.03606728 1.58924664 26.21544511 1.61069715 27.43056166 C2.11261733 56.05023935 2.2010523 84.66955503 2.23828125 113.29296875 C2.24126347 115.32141923 2.24436398 117.3498695 2.24748212 119.37831977 C2.26580463 131.32939153 2.28156064 143.28046372 2.28938007 155.23154736 C2.29128788 158.09878224 2.29320865 160.96601711 2.29516602 163.83325195 C2.29564976 164.54532035 2.2961335 165.25738874 2.2966319 165.99103496 C2.3050197 177.64980466 2.33056631 189.3084748 2.36274669 200.9672006 C2.39582809 213.05328131 2.413826 225.13931079 2.41702431 237.22543699 C2.41917815 243.96665404 2.42822888 250.70769846 2.45348549 257.44887352 C2.47673195 263.74749956 2.48101326 270.04585513 2.47072411 276.34451294 C2.47022882 278.64793614 2.47654692 280.95137271 2.49028015 283.25475502 C2.50800759 286.40385886 2.50089011 289.55199046 2.48774719 292.70109558 C2.49871644 293.60466095 2.50968568 294.50822631 2.52098733 295.43917245 C2.41420823 306.07355032 -1.96634578 314.23267663 -9 322 C-17.48958181 329.85286317 -26.55195656 332.3579215 -37.875 332.375 C-38.72191406 332.39949219 -39.56882812 332.42398437 -40.44140625 332.44921875 C-48.73759115 332.48733292 -55.09242081 329.59586483 -61.875 324.9375 C-62.59429688 324.45152344 -63.31359375 323.96554687 -64.0546875 323.46484375 C-70.85497425 318.34414589 -73.98261752 310.35957985 -75.54269409 302.14108276 C-76.32194094 296.39590731 -76.1388257 290.59078758 -76.12939453 284.80517578 C-76.13072626 283.46121233 -76.13247996 282.11724923 -76.13461876 280.77328682 C-76.13912242 277.10342811 -76.13728327 273.43359686 -76.13419914 269.76373768 C-76.13232735 266.63415843 -76.13403284 263.50458522 -76.13576198 260.3750062 C-76.1408751 251.05705166 -76.13635435 241.73911742 -76.12897491 232.42116547 C-76.12550135 228.0191833 -76.12322161 223.61720156 -76.12139618 219.21521842 C-76.1015614 171.41625453 -75.99532102 123.61784864 -75.6521225 75.82003021 C-75.62495864 71.86898457 -75.60136374 67.91793158 -75.57867432 63.96685791 C-75.54275711 57.83046804 -75.49673593 51.69424177 -75.44206238 45.55799103 C-75.42358958 43.32916988 -75.40837214 41.10031906 -75.3966217 38.87145233 C-75.38000317 35.86709446 -75.35117232 32.86311049 -75.31884766 29.85888672 C-75.3166881 28.97936403 -75.31452854 28.09984135 -75.31230354 27.19366646 C-75.22854219 21.22854219 -75.22854219 21.22854219 -73 19 C-71.00986171 18.30948876 -68.99059929 17.7020814 -66.96142578 17.13647461 C-65.69315948 16.77947983 -64.42489319 16.42248505 -63.11819458 16.05467224 C-61.72727715 15.67040612 -60.33631535 15.28630054 -58.9453125 14.90234375 C-57.52269956 14.50459846 -56.10024671 14.10628019 -54.677948 13.70741272 C-50.92955192 12.65795852 -47.17894661 11.61662018 -43.42785645 10.57684326 C-39.61844368 9.51923397 -35.81131253 8.45347693 -32.00390625 7.38867188 C-26.43616739 5.83316609 -20.86779743 4.2799595 -15.29736328 2.73413086 C-14.17532501 2.42261581 -13.05328674 2.11110077 -11.89724731 1.79014587 C-7.76632717 0.66354909 -4.31428978 -0.23320485 0 0 Z " fill="#B0CB41" transform="translate(620,320)"/>
    <path d="M0 0 C0.89009766 -0.02449219 1.78019531 -0.04898437 2.69726562 -0.07421875 C12.27641146 -0.11620186 20.70342959 3.59170456 27.56640625 10.34765625 C36.47553317 19.91307244 38.73828089 28.07792532 38.67553711 40.99511719 C38.67534388 41.83553307 38.67515064 42.67594894 38.67495155 43.54183197 C38.67265883 46.33521522 38.66271782 49.12851087 38.65234375 51.921875 C38.64829539 53.91941282 38.64447069 55.9169511 38.64085388 57.91448975 C38.58947851 80.18393825 38.40486045 102.45280428 38.19018555 124.72119141 C38.13380405 130.59269741 38.08413223 136.46424235 38.03578281 142.33581924 C37.99706765 146.90978314 37.95395708 151.48369761 37.90955925 156.05760956 C37.88921501 158.2282339 37.87048922 160.39887406 37.85342598 162.56952667 C37.82953332 165.55325334 37.79949795 168.5368551 37.76782227 171.52050781 C37.7620668 172.40934158 37.75631134 173.29817535 37.75038147 174.21394348 C37.67666806 180.26083194 37.67666806 180.26083194 36.5625 181.375 C18.47038142 182.22422189 -0.62118718 173.79679294 -17.5 168.1875 C-18.29575439 167.92383636 -19.09150879 167.66017273 -19.91137695 167.38851929 C-22.2047398 166.62579199 -24.49542175 165.85557545 -26.78515625 165.08203125 C-27.81045189 164.74004196 -27.81045189 164.74004196 -28.85646057 164.3911438 C-32.9026456 163.00975318 -36.63401622 161.31646592 -40.4375 159.375 C-41.22801925 142.51382088 -41.61192476 125.68740022 -41.640625 108.80859375 C-41.64345238 107.6610216 -41.64627975 106.51344944 -41.64919281 105.33110237 C-41.66398249 99.29177766 -41.67334629 93.25247571 -41.67773438 87.21313477 C-41.68327982 81.00531301 -41.70749089 74.79770389 -41.73570633 68.58994961 C-41.75432185 63.77463649 -41.7595371 58.95937568 -41.76107025 54.14402962 C-41.76408504 51.85356509 -41.77207363 49.56310123 -41.78525543 47.27267265 C-41.80233991 44.08452542 -41.80043301 40.89691485 -41.79394531 37.70874023 C-41.8031601 36.77624954 -41.81237488 35.84375885 -41.8218689 34.88301086 C-41.75997947 25.15719328 -38.74050515 18.85339486 -32.03515625 11.77734375 C-22.34570285 2.81642068 -12.88919572 0.01858572 0 0 Z " fill="#AECA40" transform="translate(175.4375,13.625)"/>
    <path d="M0 0 C7.62477052 5.26504727 14.69334573 12.90146687 17 22 C17.28690366 26.20529487 17.25242521 30.40120574 17.22705078 34.61474609 C17.22734283 35.88358643 17.22763489 37.15242676 17.22793579 38.4597168 C17.22850801 41.92625027 17.21677494 45.39264445 17.20278788 48.85914564 C17.19025871 52.48662574 17.1891083 56.11410927 17.18673706 59.74160767 C17.18052871 66.605053 17.16412664 73.46843439 17.14403808 80.3318516 C17.12165899 88.14803616 17.1106806 95.96422382 17.10064721 103.78043246 C17.07975982 119.85365904 17.04459642 135.92682135 17 152 C15.57147742 152.63893867 14.14251869 153.27690228 12.71337891 153.91445923 C11.91767487 154.26983072 11.12197083 154.62520222 10.30215454 154.99134254 C7.35894253 156.28087054 4.37944997 157.44693297 1.375 158.5859375 C-0.41490356 159.26571655 -0.41490356 159.26571655 -2.2409668 159.95922852 C-3.49384708 160.43149944 -4.74686061 160.90341702 -6 161.375 C-6.96010483 161.73717117 -6.96010483 161.73717117 -7.93960571 162.10665894 C-12.28969007 163.74689922 -16.64371536 165.37629949 -21 167 C-21.93763184 167.34981934 -22.87526367 167.69963867 -23.84130859 168.06005859 C-35.04809863 172.21439472 -45.84834465 176.05559834 -58 175 C-59.95740989 173.04259011 -59.25017129 169.28672395 -59.30761719 166.60888672 C-59.33784847 165.43416998 -59.33784847 165.43416998 -59.36869049 164.23572159 C-59.43414069 161.59214868 -59.49110492 158.9484815 -59.546875 156.3046875 C-59.56756798 155.38292599 -59.58826096 154.46116447 -59.60958099 153.51147079 C-60.11572255 130.69551385 -60.22165755 107.87799925 -60.24023438 85.05712891 C-60.24582559 79.20106037 -60.27017653 73.34521201 -60.29820633 67.48921394 C-60.31684856 62.90281518 -60.32203804 58.31647114 -60.32357025 53.73003769 C-60.32656757 51.56847739 -60.33449521 49.40691736 -60.34775543 47.24539566 C-60.44373785 30.47830505 -60.05078391 17.21048974 -48.375 4.1875 C-36.92293721 -6.82409883 -13.44629919 -8.01560693 0 0 Z " fill="#B0CB41" transform="translate(604,18)"/>
</svg>
