<?xml version="1.0" encoding="UTF-8"?>
<svg version="1.1" xmlns="http://www.w3.org/2000/svg" width="1211" height="715">
<path d="M0 0 C1.19618958 0.2554509 2.39237915 0.51090179 3.62481689 0.77409363 C6.13991679 1.31370207 8.65445612 1.85592919 11.16845703 2.40063477 C15.01454878 3.23023661 18.86449474 4.04002994 22.71484375 4.84960938 C25.16432542 5.37768816 27.61355357 5.90694458 30.0625 6.4375 C31.78602692 6.79555473 31.78602692 6.79555473 33.54437256 7.1608429 C43.99990604 9.47025054 43.99990604 9.47025054 47.265625 13.41796875 C50.56448122 20.07866388 48.48959235 26.33721098 46.94140625 33.32421875 C46.67933884 34.56288696 46.41727142 35.80155518 46.14726257 37.07775879 C45.59072297 39.69206515 45.02818057 42.30408577 44.4543457 44.91455078 C43.72295963 48.24303321 43.012518 51.57553469 42.30946064 54.91010284 C41.63272282 58.11246127 40.94322354 61.31204822 40.25390625 64.51171875 C40.00063065 65.70043579 39.74735504 66.88915283 39.48640442 68.1138916 C35.96492565 84.08784705 35.96492565 84.08784705 31.265625 87.41796875 C29.21484375 88.0703125 29.21484375 88.0703125 26.953125 88.35546875 C25.84517578 88.52369141 25.84517578 88.52369141 24.71484375 88.6953125 C21.03170167 88.27824218 19.12171314 86.74251755 16.265625 84.41796875 C14.63664691 82.16246063 13.24574948 80.06711909 11.890625 77.66796875 C11.35888672 76.76498047 11.35888672 76.76498047 10.81640625 75.84375 C9.95409963 74.37549819 9.10811863 72.89767837 8.265625 71.41796875 C4.9194709 72.1050081 2.16979578 73.35971761 -0.87109375 74.90234375 C-53.3886496 101.11614401 -110.30611697 118.22637601 -168.734375 124.41796875 C-169.70052734 124.52238281 -170.66667969 124.62679687 -171.66210938 124.734375 C-260.83019459 133.92456252 -354.57165429 115.58520406 -436.796875 74.54296875 C-437.43818359 74.22263672 -438.07949219 73.90230469 -438.74023438 73.57226562 C-444.28018575 70.58640819 -448.31056551 66.26558774 -451.109375 60.66796875 C-452.56055529 53.12183125 -452.79771073 45.18542579 -448.734375 38.41796875 C-444.07723199 32.57301906 -438.97874097 28.77564168 -431.484375 27.60546875 C-423.01353879 26.98674402 -415.72142808 29.53468015 -408.296875 33.35546875 C-349.77989998 62.04210049 -283.61822892 78.70056759 -218.421875 78.60546875 C-217.58645172 78.60453217 -216.75102844 78.60359558 -215.89028931 78.60263062 C-147.59383116 78.4375435 -80.49980007 60.25566367 -19.734375 29.41796875 C-22.1745404 24.93221789 -24.63324112 20.53226402 -27.484375 16.29296875 C-29.75237715 12.67564886 -30.734375 9.76878688 -30.734375 5.41796875 C-29.47875896 1.57726087 -28.36138812 -0.11923585 -25.109375 -2.51953125 C-17.29265749 -4.98034972 -7.82115972 -1.67796979 0 0 Z " fill="#FFFFFF" transform="translate(820.734375,108.58203125)"/>
<path d="M0 0 C3.5791473 3.15305833 4.49874464 5.68153734 4.86550903 10.41938782 C4.8588472 12.1614576 4.8588472 12.1614576 4.85205078 13.9387207 C4.85229185 14.59352763 4.85253292 15.24833456 4.8527813 15.92298412 C4.85129665 18.0282247 4.83610349 20.13310459 4.8203125 22.23828125 C4.81829834 23.53068726 4.81628418 24.82309326 4.81420898 26.15466309 C4.80375234 30.97814488 4.77582977 35.80157604 4.75 40.625 C4.70875 51.411875 4.6675 62.19875 4.625 73.3125 C37.955 73.3125 71.285 73.3125 105.625 73.3125 C105.42725722 51.20355083 105.42725722 51.20355083 105.17456055 29.09521484 C105.15197754 24.8059082 105.15197754 24.8059082 105.14778137 22.79385376 C105.14013504 21.3973696 105.12261452 20.00091718 105.09712219 18.60464478 C104.86715852 5.3385635 104.86715852 5.3385635 107.96801758 1.40869141 C112.14094793 -1.88348722 115.41425823 -2.0468615 120.625 -1.6875 C124.33091636 -0.00299256 126.53063743 1.8372698 128.625 5.3125 C129.00531673 8.27388668 129.00531673 8.27388668 129.01268005 11.79612732 C129.02075836 12.76988936 129.02075836 12.76988936 129.02899987 13.76332337 C129.04329762 15.93672855 129.03617166 18.10952623 129.02905273 20.28295898 C129.03475539 21.84192393 129.04171925 23.4008847 129.04985046 24.95983887 C129.0678089 29.19333388 129.06660845 33.42662193 129.06090808 37.66014361 C129.05782002 41.19402502 129.06390442 44.72786645 129.06994683 48.26174217 C129.08399932 56.59843804 129.08242482 64.93503145 129.07104492 73.27172852 C129.05956327 81.87304988 129.07363842 90.47405946 129.1004414 99.07533973 C129.12259108 106.45974851 129.12923742 113.84405936 129.12336498 121.228499 C129.1199924 125.6390616 129.12243037 130.04942434 129.13961601 134.45995903 C129.15507146 138.60756807 129.15114548 142.75471492 129.13231087 146.9023056 C129.12862103 148.42407454 129.13174499 149.94587761 129.14219666 151.46761513 C129.15538263 153.54624028 129.14388326 155.62332991 129.12620544 157.70188904 C129.12599616 158.86460547 129.12578688 160.02732191 129.12557125 161.22527218 C128.51798905 164.97248032 127.24350919 166.61519263 124.625 169.3125 C120.93455423 171.56777241 117.72062894 171.5708808 113.55859375 170.93359375 C110.40197614 169.91964991 108.68675425 167.81159606 106.625 165.3125 C106.295 164.9825 105.965 164.6525 105.625 164.3125 C105.53070658 162.13444281 105.50757462 159.9532872 105.51147461 157.77319336 C105.51135407 157.07921983 105.51123354 156.3852463 105.51110935 155.67024326 C105.51185831 153.41424464 105.51948571 151.15832768 105.52734375 148.90234375 C105.52881322 147.51338745 105.5298339 146.1244306 105.53039551 144.73547363 C105.53564776 139.57364067 105.54960886 134.41181954 105.5625 129.25 C105.583125 117.720625 105.60375 106.19125 105.625 94.3125 C72.295 94.3125 38.965 94.3125 4.625 94.3125 C4.74368412 116.46629639 4.74368412 116.46629639 4.89526367 138.61987305 C4.90881348 142.91369629 4.90881348 142.91369629 4.91133118 144.92658997 C4.91592487 146.32639937 4.92644916 147.72619722 4.94172668 149.12593079 C4.9637603 151.25172408 4.96671566 153.37679478 4.96557617 155.50268555 C4.97223801 156.69959518 4.97889984 157.89650482 4.98576355 159.12968445 C4.5890791 162.6294101 3.6474974 164.46842823 1.625 167.3125 C1.233125 167.89 0.84125 168.4675 0.4375 169.0625 C-2.54870051 171.12194863 -5.84412145 171.29862621 -9.375 171.3125 C-13.231381 170.50535049 -15.82394236 168.5981596 -18.30109978 165.51683044 C-20.82527027 160.33561738 -20.05401715 153.97417209 -20.00610352 148.31445312 C-20.01124497 146.77651647 -20.01852796 145.23858571 -20.02778625 143.70066833 C-20.04628003 139.53317577 -20.03337484 135.36632405 -20.01369596 131.19885826 C-19.99729125 126.83345184 -20.00612488 122.46808542 -20.01121521 118.10266113 C-20.01573414 110.77227562 -19.99987886 103.44214545 -19.97192383 96.11181641 C-19.93987275 87.64223287 -19.93988827 79.17310982 -19.9571386 70.7034936 C-19.97301362 62.54917292 -19.96626387 54.39502073 -19.94920158 46.2407074 C-19.94233687 42.77350874 -19.94335756 39.30644538 -19.95074654 35.83924866 C-19.95841927 31.75476597 -19.94625148 27.67080603 -19.91889763 23.58641243 C-19.912023 22.08926507 -19.91190598 20.59206881 -19.91911316 19.09492302 C-19.92783272 17.04736253 -19.91181357 15.00140619 -19.8896637 12.95397949 C-19.88685678 11.80953117 -19.88404985 10.66508286 -19.88115788 9.48595428 C-19.17328938 5.04783642 -17.17525816 1.72698855 -13.625 -1.0625 C-8.43838439 -2.50322656 -4.73300186 -2.36650093 0 0 Z " fill="#FFFFFF" transform="translate(68.375,494.6875)"/>
<path d="M0 0 C0.07011446 24.87823352 0.12300016 49.75645221 0.15543652 74.63476467 C0.1708983 86.18647504 0.19197473 97.73812398 0.22631836 109.28979492 C0.25624171 119.35948909 0.27558001 129.42913876 0.28226548 139.49887615 C0.28617274 144.82957758 0.29534117 150.16015171 0.31719017 155.4908123 C0.33760162 160.51157337 0.34382436 165.5321551 0.33932304 170.55295372 C0.34014616 172.39233628 0.34608396 174.23172504 0.35761642 176.07107162 C0.4816325 196.87701414 0.4816325 196.87701414 -5.375 203.8125 C-6.24125 204.534375 -7.1075 205.25625 -8 206 C-8.7425 206.721875 -9.485 207.44375 -10.25 208.1875 C-16.16610546 212.08675133 -22.68093582 212.4727948 -29.58203125 211.53125 C-36.95138423 209.91213529 -41.7652719 206.17739214 -46 200 C-48.96810431 194.20512969 -49.1248521 188.04383356 -49.12025452 181.63479614 C-49.12110894 180.91504793 -49.12196337 180.19529972 -49.12284368 179.45374095 C-49.1244843 177.05393309 -49.11900043 174.6541959 -49.11352539 172.25439453 C-49.11324319 170.52939353 -49.1134019 168.80439241 -49.1139679 167.07939148 C-49.11425457 162.4042655 -49.10837873 157.72916522 -49.10139394 153.0540452 C-49.09513888 148.16533444 -49.0945549 143.27662308 -49.09336853 138.38790894 C-49.09026157 129.13391082 -49.08205672 119.87992453 -49.07201904 110.62593162 C-49.06083821 100.08911427 -49.05534248 89.55229636 -49.05032361 79.01547456 C-49.03987359 57.34364311 -49.02228642 35.6718223 -49 14 C-47.57685151 13.5231202 -46.15348399 13.04689402 -44.73002625 12.57093811 C-43.54110543 12.17303369 -43.54110543 12.17303369 -42.32816601 11.7670908 C-39.15871428 10.72281077 -35.96788515 9.76033554 -32.76953125 8.80859375 C-32.13061447 8.61781754 -31.49169769 8.42704132 -30.8334198 8.23048401 C-28.82684714 7.63146885 -26.81972968 7.0343095 -24.8125 6.4375 C-22.79461156 5.8369466 -20.77685926 5.23594945 -18.75944519 4.63380432 C-16.93735481 4.09002614 -15.11480927 3.5477738 -13.29223633 3.00561523 C-11.1205505 2.34227271 -8.96271846 1.63149523 -6.82299805 0.87133789 C-4 0 -4 0 0 0 Z " fill="#FFFFFF" transform="translate(760,231)"/>
<path d="M0 0 C4.50287532 0.61344163 8.71362062 1.38167519 13.0625 2.70703125 C14.19042969 3.04669922 15.31835938 3.38636719 16.48046875 3.73632812 C17.64191406 4.09146484 18.80335938 4.44660156 20 4.8125 C27.29043803 7.02789537 34.57851685 9.1864543 41.9453125 11.1315918 C42.62859619 11.31287376 43.31187988 11.49415573 44.01586914 11.68093109 C45.67700969 12.12151302 47.3384709 12.56088566 49 13 C49.07010725 36.20051377 49.12299663 59.40101004 49.15543652 82.60160828 C49.17089983 93.37425275 49.19197918 104.14683138 49.22631836 114.91943359 C49.25623703 124.30975387 49.27557889 133.70002645 49.28226548 143.09039307 C49.28617354 148.06168523 49.295347 153.03284095 49.31719017 158.00408936 C49.33759425 162.68587031 49.34382585 167.36745897 49.33932304 172.04928017 C49.34014649 173.76491657 49.34608874 175.48055958 49.35761642 177.19615746 C49.37262222 179.54514911 49.36892461 181.89342209 49.36076355 184.24243164 C49.36352893 185.55506485 49.36629431 186.86769806 49.36914349 188.22010803 C48.74283746 194.63324876 46.67909576 200.44403834 42 205 C35.02920262 210.13714295 27.93558 211.8429226 19.359375 210.625 C11.70416548 208.74642098 6.20457363 204.55576392 2.0625 197.875 C0.12477233 192.6317369 -0.1425588 187.73490704 -0.12025452 182.18559265 C-0.12110894 181.40544558 -0.12196337 180.62529851 -0.12284368 179.82151061 C-0.12448883 177.21130587 -0.11899291 174.60116561 -0.11352539 171.9909668 C-0.11324328 170.11833192 -0.11340171 168.24569694 -0.1139679 166.37306213 C-0.11425496 161.29086599 -0.10837292 156.20869342 -0.10139394 151.12650275 C-0.09514526 145.81470849 -0.0945554 140.5029137 -0.09336853 135.19111633 C-0.09025969 125.13314292 -0.08205231 115.07518037 -0.07201904 105.01721174 C-0.06084404 93.56628731 -0.05534395 82.11536236 -0.05032361 70.66443384 C-0.03986934 47.10961653 -0.02227853 23.55480888 0 0 Z " fill="#FFFFFF" transform="translate(450,232)"/>
<path d="M0 0 C1.29284912 -0.00956978 1.29284912 -0.00956978 2.61181641 -0.01933289 C3.53784668 -0.02044571 4.46387695 -0.02155853 5.41796875 -0.02270508 C6.3826709 -0.02603348 7.34737305 -0.02936188 8.34130859 -0.03279114 C10.38557459 -0.03785273 12.42984884 -0.0401997 14.47412109 -0.04003906 C17.56622427 -0.04220879 20.65796071 -0.06032613 23.75 -0.0793457 C44.00495591 -0.13891398 61.50979346 1.59623182 76.7578125 16.20776367 C88.38423814 28.3321554 90.20195424 42.48641679 89.9140625 58.58276367 C89.66738176 64.7569471 88.64782191 69.73059942 85.60546875 75.14526367 C85.13109375 76.06049805 84.65671875 76.97573242 84.16796875 77.91870117 C79.94277322 85.33310679 74.42424483 90.13299335 67.60546875 95.14526367 C66.27142989 96.14432228 64.93797444 97.1441611 63.60546875 98.14526367 C69.5743208 108.19730952 75.59310583 118.21024976 81.85546875 128.08276367 C82.35183838 128.8678833 82.84820801 129.65300293 83.35961914 130.46191406 C85.58678937 133.98058384 87.82623609 137.48956161 90.1015625 140.97729492 C90.83219677 142.1165117 91.56267737 143.25582705 92.29296875 144.39526367 C92.91558594 145.34916992 93.53820312 146.30307617 94.1796875 147.28588867 C96.58815078 152.11601229 97.01885691 155.81807011 95.41796875 160.95776367 C93.51763938 164.29972222 93.01707833 164.83737718 89.60546875 166.14526367 C87.45703125 166.51635742 87.45703125 166.51635742 85.23046875 166.58276367 C84.50085938 166.62272461 83.77125 166.66268555 83.01953125 166.70385742 C77.28794813 165.37761732 74.35088603 161.01602484 71.37890625 156.29370117 C70.23572765 154.37536155 69.10342176 152.45051256 67.98046875 150.52026367 C66.74614991 148.44523638 65.51045076 146.37102959 64.2734375 144.29760742 C63.65903809 143.2623291 63.04463867 142.22705078 62.41162109 141.16040039 C59.7740085 136.75724879 57.04439025 132.41542594 54.29296875 128.08276367 C53.80715332 127.31504639 53.32133789 126.5473291 52.82080078 125.75634766 C50.52213139 122.13194314 48.20468941 118.52091703 45.859375 114.92651367 C45.43503174 114.27432861 45.01068848 113.62214355 44.57348633 112.95019531 C43.78468067 111.74081979 42.99180022 110.53408824 42.1940918 109.33056641 C39.60546875 105.36603591 39.60546875 105.36603591 39.60546875 103.14526367 C29.37546875 103.14526367 19.14546875 103.14526367 8.60546875 103.14526367 C8.651875 107.20194336 8.69828125 111.25862305 8.74609375 115.43823242 C8.77183014 118.67938494 8.79351678 121.92050847 8.81246948 125.16170502 C8.83356466 128.5796927 8.86173842 131.99728157 8.90722656 135.41503906 C8.95912834 139.33938736 8.97843797 143.26357463 8.99609375 147.18823242 C9.01673889 148.40923141 9.03738403 149.63023041 9.05865479 150.88822937 C9.05895691 152.02903458 9.05925903 153.16983978 9.05957031 154.34521484 C9.06845276 155.34671066 9.07733521 156.34820648 9.08648682 157.38005066 C8.46868786 160.93157153 7.10812912 162.59522078 4.60546875 165.14526367 C0.88342976 166.38594333 -2.52826433 166.69237691 -6.39453125 166.14526367 C-11.89453125 163.14526367 -11.89453125 163.14526367 -13.39453125 160.14526367 C-13.49921185 158.1444747 -13.53845131 156.14015838 -13.5484314 154.13665771 C-13.55703186 152.85521378 -13.56563232 151.57376984 -13.57449341 150.25349426 C-13.5789288 148.8251652 -13.58322714 147.39683571 -13.58740234 145.96850586 C-13.59530234 144.47057403 -13.60357123 142.9726441 -13.61218262 141.47471619 C-13.63841612 136.54720887 -13.65371227 131.61969301 -13.66796875 126.69213867 C-13.67332802 124.99652348 -13.67870552 123.30090835 -13.6841011 121.60529327 C-13.70573241 114.55210481 -13.72446916 107.49891866 -13.7357235 100.44570541 C-13.75196253 90.33463218 -13.78513607 80.22394327 -13.84212434 70.11301494 C-13.88081948 63.00550858 -13.90035571 55.89810504 -13.90564406 48.79049611 C-13.90929834 44.54465272 -13.92132709 40.29921911 -13.9537468 36.05348969 C-13.98381998 32.05771813 -13.99014231 28.06260443 -13.97836304 24.06674385 C-13.97814223 22.60181031 -13.98645343 21.13684632 -14.00401688 19.67201805 C-14.14503871 7.23122324 -14.14503871 7.23122324 -11.10806274 3.28936768 C-7.27052518 0.25712734 -4.75666777 0.02403608 0 0 Z M8.60546875 22.14526367 C8.60546875 41.61526367 8.60546875 61.08526367 8.60546875 81.14526367 C16.92765625 81.26901367 16.92765625 81.26901367 25.41796875 81.39526367 C27.1450708 81.43167969 28.87217285 81.4680957 30.65161133 81.50561523 C42.10408467 81.6469487 52.26753591 80.56744509 60.87890625 72.16870117 C67.06479889 64.91917089 68.38095417 58.1540138 68.01953125 48.69995117 C67.03185565 40.22084931 62.92409411 33.80981258 56.60546875 28.14526367 C49.55707131 23.34711474 44.03408917 21.98863372 35.55859375 22.04760742 C34.87458496 22.0486145 34.19057617 22.04962158 33.48583984 22.05065918 C30.94236564 22.05587237 28.39891543 22.06983361 25.85546875 22.08276367 C20.16296875 22.10338867 14.47046875 22.12401367 8.60546875 22.14526367 Z " fill="#FFFFFF" transform="translate(744.39453125,499.854736328125)"/>
<path d="M0 0 C12.31361141 9.29734146 22.17088031 22.42156516 24.71484375 37.95703125 C26.56535688 57.70428776 23.74370076 75.50676647 11.375 91.75 C2.1157887 101.65118328 -11.01231205 108.4311503 -24.56640625 109.203125 C-38.63349505 109.36813484 -53.08709504 107.4403009 -63.83451843 97.26275635 C-64.75500725 96.32493317 -64.75500725 96.32493317 -65.6940918 95.36816406 C-66.31575729 94.73751038 -66.93742279 94.10685669 -67.57792664 93.45709229 C-68.04721085 92.97625183 -68.51649506 92.49541138 -69 92 C-69.00142502 92.72583282 -69.00285004 93.45166565 -69.00431824 94.19949341 C-69.02218271 101.05562882 -69.06389803 107.91125392 -69.13209057 114.76706123 C-69.16631329 118.29140783 -69.191463 121.81532316 -69.19555664 125.33984375 C-69.20067234 129.39635254 -69.24582654 133.4515728 -69.29296875 137.5078125 C-69.28706978 139.3971904 -69.28706978 139.3971904 -69.28105164 141.32473755 C-69.44357677 151.09432735 -69.44357677 151.09432735 -72.37426758 154.79785156 C-76.18391321 157.99292396 -78.61943778 157.72637802 -83.3984375 157.46875 C-86.84715104 156.84736017 -88.6934335 155.6141087 -91 153 C-92.17022442 150.65955116 -92.13065132 149.27915042 -92.14044189 146.67094421 C-92.14615204 145.76142502 -92.15186218 144.85190582 -92.15774536 143.91482544 C-92.15886322 142.91385834 -92.15998108 141.91289124 -92.16113281 140.8815918 C-92.16609772 139.82928879 -92.17106262 138.77698578 -92.17617798 137.6927948 C-92.19083615 134.19492954 -92.19761065 130.69710975 -92.203125 127.19921875 C-92.20887715 124.76699319 -92.21463488 122.33476765 -92.22039795 119.90254211 C-92.23092084 114.79041329 -92.23675385 109.67830024 -92.24023438 104.56616211 C-92.24569626 98.04092935 -92.26966938 91.51590767 -92.29820633 84.99074078 C-92.31691528 79.95900383 -92.32204288 74.92731664 -92.32357025 69.89554787 C-92.32658294 67.49199086 -92.33456428 65.08843443 -92.34775543 62.68491173 C-92.45836378 40.96568583 -91.02588704 23.61718445 -75.25 7.1484375 C-55.05206448 -12.13778565 -23.59877631 -15.03126191 0 0 Z M-63.68359375 26.0703125 C-70.51185277 36.07968922 -70.9608019 47.26879201 -70 59 C-67.89294801 69.31853463 -61.67143775 78.07246547 -53 84 C-43.51161307 89.11164391 -33.4850989 90.64926439 -22.9375 87.9375 C-12.45886886 84.36145921 -4.96147646 77.18238017 0.31640625 67.61328125 C4.62235831 57.81611506 4.73337819 45.08195624 1.4375 34.9375 C-3.11719128 24.51764487 -10.72878907 16.98153126 -21.1875 12.625 C-37.46617266 7.26632214 -53.09534089 13.08744115 -63.68359375 26.0703125 Z " fill="#FFFFFF" transform="translate(626,558)"/>
<path d="M0 0 C12.23948583 10.4111809 18.76650613 23.98837584 20.94921875 39.77734375 C22.11088762 57.62683268 18.42455483 74.51277149 6.51171875 88.27734375 C-4.61019538 99.73685392 -17.38362372 105.69969952 -33.36328125 106.08984375 C-46.68495417 105.86382734 -59.14440678 102.10968045 -69.23730469 93.15917969 C-70.31066071 92.21023834 -70.31066071 92.21023834 -71.40570068 91.24212646 C-71.94857727 90.75874817 -72.49145386 90.27536987 -73.05078125 89.77734375 C-73.05442688 90.49286911 -73.05807251 91.20839447 -73.06182861 91.94560242 C-73.09974414 98.69902125 -73.15663663 105.45198494 -73.23468399 112.20506573 C-73.27414153 115.67668699 -73.30633795 119.14805529 -73.32177734 122.61987305 C-73.33986186 126.61418153 -73.38981967 130.60754518 -73.44140625 134.6015625 C-73.44324921 136.46587166 -73.44324921 136.46587166 -73.44512939 138.36784363 C-73.47470734 140.10908257 -73.47470734 140.10908257 -73.50488281 141.88549805 C-73.51376526 142.90475876 -73.52264771 143.92401947 -73.53179932 144.97416687 C-74.18584096 148.5068417 -75.59651424 150.20173177 -78.05078125 152.77734375 C-80.57957295 154.0417396 -82.53936154 154.08874179 -85.36328125 154.21484375 C-86.30816406 154.27542969 -87.25304687 154.33601562 -88.2265625 154.3984375 C-91.53400713 153.67107416 -92.92078082 152.38784107 -94.99584961 149.75348473 C-97.12543924 145.76425056 -96.7241486 141.4094619 -96.66601562 136.98950195 C-96.67156464 135.91389511 -96.67711365 134.83828827 -96.68283081 133.73008728 C-96.69462768 130.17897796 -96.67034165 126.62914492 -96.64453125 123.078125 C-96.64281949 120.60198525 -96.6428865 118.12584369 -96.64465332 115.64970398 C-96.6429998 110.4587572 -96.62430108 105.2682421 -96.59277344 100.07739258 C-96.55320011 93.4443962 -96.54871628 86.81196788 -96.55623627 80.17887592 C-96.55931665 75.06311398 -96.54714571 69.94747817 -96.53010559 64.83174706 C-96.52310325 62.38748149 -96.51994768 59.94320161 -96.52079773 57.49892616 C-96.51898633 54.0697447 -96.49748611 50.64122434 -96.47070312 47.2121582 C-96.47363373 46.21384979 -96.47656433 45.21554138 -96.47958374 44.1869812 C-96.28314309 27.76466486 -89.64855054 14.21118697 -78.05078125 2.77734375 C-77.48617188 2.20242188 -76.9215625 1.6275 -76.33984375 1.03515625 C-55.56003493 -18.52827352 -21.79527811 -15.87901824 0 0 Z M-67.6796875 22.6015625 C-73.73855992 30.36053644 -75.94159673 41.10794666 -75.05078125 50.77734375 C-73.01355524 62.53550648 -68.66664335 72.34690486 -59.05078125 79.77734375 C-48.78104672 85.5096194 -38.53352554 87.70861324 -26.92578125 84.71484375 C-16.10825587 80.96430525 -9.22508515 73.74086816 -3.9921875 63.7578125 C0.35049747 54.22052828 0.54082845 42.03847419 -2.9609375 32.2109375 C-7.86932978 21.25062069 -15.04641448 13.32937955 -26.36328125 8.77734375 C-43.31280512 4.13820752 -56.4709295 10.04882873 -67.6796875 22.6015625 Z " fill="#FFFFFF" transform="translate(482.05078125,561.22265625)"/>
<path d="M0 0 C11.12817248 9.16912941 18.88929097 22.92913174 20.59735107 37.26593018 C21.23353686 43.99548316 21.48670519 50.66409689 21.515625 57.421875 C21.52132507 58.47731506 21.52702515 59.53275513 21.53289795 60.62017822 C21.5422719 62.8318992 21.5488513 65.04363366 21.55273438 67.25537109 C21.56251486 70.63012663 21.59364014 74.00429112 21.625 77.37890625 C21.63152469 79.53905893 21.63677725 81.6992159 21.640625 83.859375 C21.6529718 84.86055359 21.6653186 85.86173218 21.67803955 86.89324951 C21.65737851 93.39898269 21.22717164 98.9179111 16.43359375 103.78125 C12.50939307 105.8047789 8.59442542 105.58287098 4.3125 104.875 C0.92110169 102.75537606 -0.31875689 101.15291926 -1.42578125 97.31640625 C-1.94217425 94.83982758 -2.36120861 92.38306067 -2.6875 89.875 C-3.29335938 90.39449219 -3.89921875 90.91398438 -4.5234375 91.44921875 C-18.12040749 102.76608146 -31.92451197 107.2355693 -49.6875 105.875 C-64.90690179 103.6692896 -77.3224932 95.33524662 -86.5 83.125 C-96.27509858 68.23180736 -98.54159243 50.6678383 -95.5625 33.375 C-92.10864242 17.64789966 -83.08234787 4.79162979 -69.6875 -4.125 C-47.23719553 -16.78420252 -20.86146106 -14.84930388 0 0 Z M-64.6875 18.875 C-73.13507952 29.59060671 -76.0218249 40.32185724 -74.6875 53.875 C-72.25485157 65.41977223 -66.25065381 74.03673757 -56.6875 80.875 C-47.8200566 85.69585061 -38.64842565 87.61298014 -28.66796875 85.12109375 C-18.39266729 81.53668627 -10.02436091 75.75349537 -4.875 66 C0.55586798 54.17357038 0.73562064 42.12110267 -3.6875 29.875 C-8.49811359 20.7237753 -16.03365158 12.90217016 -25.75 9.0625 C-39.8177562 4.89250072 -54.4381662 8.43228255 -64.6875 18.875 Z " fill="#FFFFFF" transform="translate(333.6875,561.125)"/>
<path d="M0 0 C1.24112549 0.00737183 1.24112549 0.00737183 2.50732422 0.01489258 C16.97833493 0.28998003 27.81082234 4.92039599 38.328125 14.80078125 C48.45293743 25.57934813 52.76079904 39.26957887 53.125 53.8125 C53.17076172 54.55886719 53.21652344 55.30523438 53.26367188 56.07421875 C53.27849609 56.80253906 53.29332031 57.53085937 53.30859375 58.28125 C53.3336499 58.93544922 53.35870605 59.58964844 53.38452148 60.26367188 C52.23553229 63.64101594 49.665388 65.54839801 46.6875 67.3125 C43.71732272 67.77366804 41.34127558 67.95050557 38.38720703 67.88012695 C37.57678452 67.88085709 36.766362 67.88158722 35.93138123 67.88233948 C33.26866311 67.87887266 30.60772269 67.84005665 27.9453125 67.80078125 C26.09301713 67.79144985 24.24070937 67.78433528 22.38839722 67.77934265 C17.5252037 67.76029855 12.66276289 67.71122019 7.79986572 67.65582275 C2.83282655 67.60457432 -2.13433486 67.58181668 -7.1015625 67.55664062 C-16.83887145 67.50309884 -26.57562301 67.41781749 -36.3125 67.3125 C-35.70563513 69.04867112 -35.09239506 70.7826145 -34.4765625 72.515625 C-34.1357666 73.48145508 -33.7949707 74.44728516 -33.44384766 75.44238281 C-29.6723455 85.01031103 -23.32558328 90.94225503 -14.1015625 95.375 C-2.16205755 100.13250389 8.93432744 98.90772536 20.6875 94.3125 C23.10283073 93.0723899 25.43019662 91.7396111 27.76953125 90.36328125 C32.0430776 88.02196971 34.75023401 88.04244031 39.375 89.375 C43.29085254 91.66540432 44.43435431 92.96826162 45.6875 97.3125 C45.47169779 101.26887383 44.66042604 103.38524192 41.7734375 106.13671875 C27.4768006 116.87083864 9.05640532 120.48616204 -8.46679688 118.0078125 C-25.2595329 114.9630611 -38.59246693 106.53099398 -48.78125 92.76171875 C-55.15967073 82.55949988 -57.70605878 71.45729704 -57.625 59.5625 C-57.61936035 58.68851563 -57.6137207 57.81453125 -57.60791016 56.9140625 C-57.31681523 41.28140037 -52.59708141 27.94096467 -41.65625 16.5625 C-29.93109702 5.30635314 -16.23092124 -0.11514842 0 0 Z M-29.3125 32.3125 C-33.72998244 37.77184151 -34.72372331 42.16300487 -36.3125 49.3125 C-13.5425 49.3125 9.2275 49.3125 32.6875 49.3125 C30.37642042 38.91264187 27.32214801 30.92152482 18.6875 24.3125 C2.18149221 15.12387637 -16.73323588 18.13735909 -29.3125 32.3125 Z " fill="#FFFFFF" transform="translate(913.3125,548.6875)"/>
<path d="M0 0 C11.2716765 7.35030037 18.24207723 17.44350414 21.2590332 30.5324707 C22.87159284 38.27438028 23.12620078 45.77961497 23.0859375 53.66015625 C23.08796559 55.08548633 23.09088309 56.51081538 23.09463501 57.93614197 C23.09901098 60.89169405 23.09277391 63.84697063 23.07861328 66.80249023 C23.06138129 70.58183538 23.07147959 74.36054771 23.08933067 78.13987064 C23.10017721 81.06960316 23.09672069 83.9991856 23.0889473 86.92892265 C23.08695499 88.32312535 23.08937031 89.71734193 23.09638596 91.1115284 C23.10402968 93.05359753 23.09030774 94.99571503 23.07568359 96.93774414 C23.07329681 98.03913223 23.07091003 99.14052032 23.06845093 100.27528381 C22.63373399 103.6698405 21.72333914 105.51984038 19.6875 108.25 C15.44009201 111.08160532 11.67403957 110.89522317 6.6875 110.25 C2.53094205 107.91193615 1.13294774 105.69764196 -0.3125 101.25 C-0.5640564 98.33102417 -0.5640564 98.33102417 -0.56787109 95.07373047 C-0.57483002 93.84830536 -0.58178894 92.62288025 -0.58895874 91.36032104 C-0.58796173 90.04258698 -0.58696472 88.72485291 -0.5859375 87.3671875 C-0.5945077 85.98820057 -0.60451096 84.60922187 -0.61587524 83.23025513 C-0.66192581 77.3941044 -0.68671042 71.55800602 -0.69335938 65.72167969 C-0.69841755 62.14302209 -0.72288641 58.56489898 -0.75868607 54.98642349 C-0.77306144 52.98211992 -0.765894 50.97769831 -0.75814819 48.97335815 C-0.86622531 38.83372245 -2.3781589 29.28248638 -9.6171875 21.6796875 C-16.91897665 15.52195748 -26.20193799 13.78500407 -35.51171875 14.00390625 C-45.16831563 14.85239384 -51.86995802 18.80745802 -58.625 25.5625 C-63.54163985 33.39270421 -63.73399795 41.43389145 -63.69262505 50.45687103 C-63.68341499 52.65198044 -63.69384624 54.8462538 -63.70924377 57.0413208 C-63.74909185 63.27476957 -63.75053937 69.5081441 -63.74829102 75.74169922 C-63.74823988 79.57128314 -63.76741286 83.40040801 -63.79762459 87.22986603 C-63.80841724 89.38660187 -63.79634646 91.54245087 -63.78379822 93.69915771 C-63.79383377 95.01112122 -63.80386932 96.32308472 -63.81420898 97.67480469 C-63.81404282 98.82680359 -63.81387665 99.97880249 -63.81370544 101.16571045 C-64.41852047 104.90557615 -65.69623272 106.5616449 -68.3125 109.25 C-72.00975375 111.09862688 -76.27711442 110.72587094 -80.3125 110.25 C-83.24673195 108.45353146 -84.78455355 107.3058929 -86.3125 104.25 C-86.4124459 102.86770484 -86.45186376 101.48077613 -86.45967102 100.09489441 C-86.46682632 99.22429886 -86.47398163 98.35370331 -86.48135376 97.45672607 C-86.48404266 96.49929504 -86.48673157 95.54186401 -86.48950195 94.55541992 C-86.49607315 93.54878799 -86.50264435 92.54215607 -86.50941467 91.50502014 C-86.5291755 88.16350232 -86.54081605 84.82202947 -86.55078125 81.48046875 C-86.55689454 79.77150138 -86.55689454 79.77150138 -86.56313133 78.02800941 C-86.58400324 71.99873662 -86.59830052 65.96948667 -86.60766602 59.94018555 C-86.61873707 53.70555663 -86.65314215 47.47128398 -86.69283772 41.23678112 C-86.71895386 36.44899318 -86.72735338 31.66129079 -86.73094749 26.87343788 C-86.73582582 24.57489934 -86.74747503 22.27636492 -86.76598549 19.97789574 C-86.79027155 16.7625626 -86.78943095 13.54816 -86.7824707 10.33276367 C-86.79528076 9.38140533 -86.80809082 8.430047 -86.82128906 7.44985962 C-86.78758861 3.18353894 -86.70173072 0.87699501 -84.40812683 -2.81767273 C-80.69643351 -6.24013618 -77.68353329 -6.09400842 -72.79296875 -6.0234375 C-69.16860706 -5.62390157 -67.61275009 -4.55342979 -65.3125 -1.75 C-64 2 -64 2 -63.3125 5.25 C-62.87421875 4.87488281 -62.4359375 4.49976563 -61.984375 4.11328125 C-44.40718725 -10.06993732 -19.46278276 -10.76039047 0 0 Z " fill="#FFFFFF" transform="translate(1079.3125,555.75)"/>
<path d="M0 0 C4.48949842 3.8738499 7.2678462 8.45750595 8.4375 14.3125 C8.52257467 15.71098057 8.55955075 17.11291232 8.55775452 18.51397705 C8.55912918 19.34406281 8.56050385 20.17414856 8.56192017 21.02938843 C8.55652725 22.38237534 8.55652725 22.38237534 8.55102539 23.76269531 C8.55117142 24.71912933 8.55131744 25.67556335 8.5514679 26.66098022 C8.55077148 29.82088492 8.54299174 32.9807306 8.53515625 36.140625 C8.53329111 38.33209196 8.53186766 40.52355933 8.53086853 42.71502686 C8.52705094 48.48210807 8.51722709 54.24916409 8.50616455 60.01623535 C8.49593416 65.9014451 8.49136742 71.78665892 8.48632812 77.671875 C8.47560417 89.21876107 8.45853681 100.76562844 8.4375 112.3125 C-3.45874167 109.30463654 -15.14134515 105.97296079 -26.75 102 C-28.1085272 101.54043356 -29.4672512 101.08144852 -30.82617188 100.62304688 C-34.07388683 99.52615159 -37.31895245 98.42166733 -40.5625 97.3125 C-40.63218359 86.90689138 -40.68540427 76.5013388 -40.71793652 66.09554386 C-40.73355481 61.26307461 -40.75472264 56.43076568 -40.78881836 51.59838867 C-40.8215491 46.92995579 -40.83938184 42.26167657 -40.84713173 37.59313774 C-40.8526507 35.81704733 -40.86342767 34.04096479 -40.87969017 32.26494026 C-41.074489 10.09809046 -41.074489 10.09809046 -32.45703125 0.97265625 C-23.87946175 -6.54377063 -9.16267095 -6.42934134 0 0 Z " fill="#FFFFFF" transform="translate(490.5625,39.6875)"/>
<path d="M0 0 C5.58883503 5.20468007 7.75867641 10.10797203 8.24050903 17.87889099 C8.24622647 19.29873215 8.24117325 20.7186453 8.22705078 22.13842773 C8.22734283 22.91973557 8.22763489 23.7010434 8.22793579 24.50602722 C8.22655248 27.06533262 8.21103885 29.62433978 8.1953125 32.18359375 C8.19157881 33.96720724 8.18873352 35.7508228 8.18673706 37.53443909 C8.17912863 42.21155536 8.15950429 46.88854592 8.1373291 51.56561279 C8.11681037 56.34515686 8.10772249 61.12472139 8.09765625 65.90429688 C8.07625562 75.26958625 8.04215359 84.63478264 8 94 C-17.8351203 103.84520948 -17.8351203 103.84520948 -28.875 107.0625 C-30.33292969 107.50239258 -30.33292969 107.50239258 -31.8203125 107.95117188 C-38.69132392 110 -38.69132392 110 -41 110 C-41.04642505 98.029759 -41.08192084 86.05953956 -41.10362434 74.08922672 C-41.11404309 68.5303993 -41.12816741 62.97163367 -41.15087891 57.4128418 C-41.17267536 52.04416233 -41.18458298 46.67554214 -41.18975449 41.30682182 C-41.19343804 39.26280217 -41.20063101 37.21878562 -41.21146011 35.17479134 C-41.22606543 32.30273658 -41.22797417 29.43092405 -41.22705078 26.55883789 C-41.23424133 25.72157669 -41.24143188 24.88431549 -41.24884033 24.02168274 C-41.22085803 15.93141404 -40.37065922 8.35999118 -35 2 C-25.01572658 -7.63759726 -10.85868153 -8.86982828 0 0 Z " fill="#FFFFFF" transform="translate(752,41)"/>
<path d="M0 0 C4.07772085 2.39344485 5.61510301 4.5534887 7 9 C7.22705078 12.50512695 7.22705078 12.50512695 7.1953125 16.48828125 C7.1924826 17.19147995 7.18965271 17.89467865 7.18673706 18.6191864 C7.17560151 20.85046892 7.15050997 23.08134017 7.125 25.3125 C7.1149616 26.83137438 7.10583726 28.3502551 7.09765625 29.86914062 C7.07568413 33.57955921 7.04120047 37.28973942 7 41 C7.60996826 40.98428955 8.21993652 40.9685791 8.84838867 40.95239258 C11.6279971 40.88980187 14.40745692 40.85093378 17.1875 40.8125 C18.14720703 40.78736328 19.10691406 40.76222656 20.09570312 40.73632812 C29.07416443 40.6431261 29.07416443 40.6431261 33 44 C34.72370774 47.44741547 34.50306672 51.23035339 34 55 C32.12379387 57.50160818 30.76108697 58.61945652 28 60 C26.40552536 60.08400529 24.80759455 60.10727467 23.2109375 60.09765625 C22.26992187 60.09443359 21.32890625 60.09121094 20.359375 60.08789062 C19.37453125 60.07951172 18.3896875 60.07113281 17.375 60.0625 C15.88613281 60.05573242 15.88613281 60.05573242 14.3671875 60.04882812 C11.9113984 60.03702145 9.45572896 60.020554 7 60 C7.03818305 67.42438833 7.09772595 74.84828958 7.18390274 82.27228546 C7.22326903 85.72027886 7.2555099 89.16802104 7.27099609 92.61621094 C7.28915662 96.58821815 7.33915575 100.55952946 7.390625 104.53125 C7.39185364 105.75863892 7.39308228 106.98602783 7.39434814 108.25061035 C7.51381408 115.28213867 8.15040647 120.04919195 12 126 C16.64707472 129.93991118 20.08375695 130.18472832 26.125 130.4375 C33.65599844 130.75762746 33.65599844 130.75762746 36.3125 133.4375 C39.04484655 137.58661883 39.34045497 139.97828917 39 145 C37.1753288 149.22555437 35.1032033 151.0127733 31 153 C28.3507527 153.31894409 26.01565214 153.47734351 23.375 153.4375 C22.66786865 153.42920166 21.9607373 153.42090332 21.23217773 153.41235352 C10.83676201 153.08067283 2.4205687 149.31911561 -5 142 C-15.26742494 129.87618796 -16.16818094 115.73363767 -16.09765625 100.52734375 C-16.0962413 99.3636879 -16.09482635 98.20003204 -16.09336853 97.00111389 C-16.08780628 93.31321557 -16.07526083 89.62537973 -16.0625 85.9375 C-16.05748012 83.42513109 -16.05291807 80.91276122 -16.04882812 78.40039062 C-16.03784923 72.26690605 -16.02114903 66.13345749 -16 60 C-16.89420654 60.02320313 -17.78841309 60.04640625 -18.7097168 60.0703125 C-19.88187744 60.08835937 -21.05403809 60.10640625 -22.26171875 60.125 C-23.42405029 60.14820313 -24.58638184 60.17140625 -25.78393555 60.1953125 C-28.868864 60.00796393 -30.35230462 59.78950235 -32.8125 58 C-35.25276459 54.65335142 -35.7744207 52.97608881 -35.46875 48.93359375 C-34.73623313 45.91196165 -33.19716904 44.13254642 -31 42 C-28.11584117 40.55792059 -25.58278472 40.90605113 -22.375 40.9375 C-21.18648437 40.94652344 -19.99796875 40.95554687 -18.7734375 40.96484375 C-17.85820313 40.97644531 -16.94296875 40.98804688 -16 41 C-16.01571045 40.09757568 -16.0314209 39.19515137 -16.04760742 38.26538086 C-16.09899354 34.89015866 -16.1364741 31.51535729 -16.16479492 28.13989258 C-16.17980313 26.68409632 -16.20021633 25.22834468 -16.22631836 23.77270508 C-16.26305676 21.66997211 -16.2798056 19.56784115 -16.29296875 17.46484375 C-16.3086792 16.202771 -16.32438965 14.94069824 -16.34057617 13.64038086 C-15.87228231 8.63483981 -14.69305538 4.49956334 -10.8125 1.0625 C-7.08618172 -0.34522024 -3.93172913 -0.71630693 0 0 Z " fill="#FFFFFF" transform="translate(1157,513)"/>
</svg>
