<?xml version="1.0" encoding="UTF-8"?>
<svg version="1.1" xmlns="http://www.w3.org/2000/svg" width="1262" height="276">
<path d="M0 0 C0.91132187 -0.0004985 1.82264374 -0.00099701 2.76158142 -0.00151062 C4.68539617 0.0008213 6.60921446 0.01049754 8.53295898 0.02709961 C11.43176589 0.05051407 14.32963916 0.04767517 17.22851562 0.04101562 C37.19773986 0.07018735 54.69035349 1.63700856 70.40234375 15.36328125 C81.29784098 26.58832093 84.81154501 40.31543403 84.77099609 55.48852539 C84.40498804 69.86550032 78.53047044 80.96056656 68.24609375 90.82421875 C65.19063348 93.37475126 61.86362862 95.41237523 58.40234375 97.36328125 C59.72127766 100.88487394 61.27645371 104.00923906 63.23828125 107.21484375 C63.80240723 108.13974609 64.3665332 109.06464844 64.94775391 110.01757812 C65.55151855 110.99791016 66.1552832 111.97824219 66.77734375 112.98828125 C67.39786621 114.00212891 68.01838867 115.01597656 68.65771484 116.06054688 C73.20363427 123.4683687 77.81473322 130.83414967 82.49365234 138.15869141 C83.80763108 140.22020686 85.10959178 142.28839892 86.40234375 144.36328125 C86.79969727 144.99669434 87.19705078 145.63010742 87.60644531 146.28271484 C90.55032133 151.15826462 91.46828721 154.7827537 90.40234375 160.36328125 C88.60840707 163.23357994 87.41971099 164.85459763 84.40234375 166.36328125 C82.4140625 166.56640625 82.4140625 166.56640625 80.08984375 166.61328125 C79.33058594 166.6390625 78.57132813 166.66484375 77.7890625 166.69140625 C73.83672652 166.14804091 71.17684497 164.33954423 68.71166992 161.23217773 C68.21127197 160.40790283 67.71087402 159.58362793 67.1953125 158.734375 C66.61644287 157.79408447 66.03757324 156.85379395 65.44116211 155.88500977 C64.83022705 154.86721436 64.21929199 153.84941895 63.58984375 152.80078125 C62.94474854 151.74753662 62.29965332 150.69429199 61.63500977 149.60913086 C60.26030317 147.36293337 58.88969516 145.11478157 57.52539062 142.86230469 C54.68143189 138.16914838 51.80516878 133.49594089 48.92895508 128.82250977 C47.56899136 126.61131716 46.21190537 124.39835121 44.8581543 122.18334961 C43.62056812 120.162856 42.36707114 118.15199714 41.09570312 116.15258789 C39.40234375 113.36328125 39.40234375 113.36328125 38.14648438 110.65014648 C36.785051 107.95098232 35.75852948 106.27131475 33.40234375 104.36328125 C28.2642261 103.12629157 23.26726519 103.19199606 18.02734375 103.30078125 C16.60936026 103.29770361 15.19137943 103.29058153 13.7734375 103.27929688 C10.31519926 103.26053604 6.86011661 103.29691995 3.40234375 103.36328125 C3.40900558 104.05375046 3.41566742 104.74421967 3.42253113 105.45561218 C3.48890021 112.64182886 3.53415113 119.82795846 3.56713867 127.0144043 C3.58053077 129.69647679 3.60140452 132.37833617 3.62866211 135.06030273 C3.66504986 138.91526376 3.68207175 142.76989858 3.6953125 146.625 C3.71079636 147.82412521 3.72628021 149.02325043 3.74223328 150.25871277 C3.74245987 151.37949722 3.74268646 152.50028168 3.74291992 153.6550293 C3.74958176 154.63876022 3.75624359 155.62249115 3.7631073 156.6360321 C3.33610161 159.86404916 2.2916498 161.73494736 0.40234375 164.36328125 C-3.60498827 167.05391847 -7.93350715 167.17022746 -12.59765625 166.36328125 C-16.17002299 164.43627845 -18.29326327 162.2764602 -19.59765625 158.36328125 C-19.69529327 156.37278952 -19.73265058 154.37915372 -19.73809814 152.38627625 C-19.74380829 151.13711426 -19.74951843 149.88795227 -19.75540161 148.60093689 C-19.75664696 147.21401987 -19.75777205 145.82710275 -19.75878906 144.44018555 C-19.76341772 142.98151524 -19.76844244 141.52284615 -19.77383423 140.06417847 C-19.78695588 136.09920413 -19.79340275 132.13424672 -19.79784489 128.16925406 C-19.80077606 125.6918876 -19.80488096 123.21452577 -19.80934906 120.73716164 C-19.82302352 112.98547725 -19.83269037 105.23380343 -19.83655095 97.48210782 C-19.84103139 88.53502119 -19.8585788 79.58808735 -19.88755155 70.64104718 C-19.90917097 63.72459878 -19.91925537 56.80819336 -19.92059207 49.89171153 C-19.92163994 45.76113405 -19.92754372 41.63070021 -19.94541168 37.50015831 C-19.96189687 33.61364995 -19.96404579 29.72739315 -19.95527267 25.84086227 C-19.95450253 24.4162599 -19.95884211 22.99164399 -19.96873093 21.56707573 C-19.98146138 19.6185041 -19.97377793 17.66983129 -19.96514893 15.72123718 C-19.96661549 14.63188716 -19.96808205 13.54253714 -19.96959305 12.42017651 C-19.53189998 8.82283991 -18.4893298 6.44249596 -16.59765625 3.36328125 C-11.14463492 0.09198586 -6.2491498 -0.06688139 0 0 Z M3.40234375 22.36328125 C3.40234375 41.83328125 3.40234375 61.30328125 3.40234375 81.36328125 C8.99171875 81.42515625 14.58109375 81.48703125 20.33984375 81.55078125 C22.08515381 81.57809326 23.83046387 81.60540527 25.62866211 81.63354492 C36.95161911 81.73872306 45.3595465 80.83165101 54.38671875 73.3984375 C59.9516856 67.77954655 62.4965067 61.1034579 62.71484375 53.30078125 C62.61300475 44.82551341 60.00137029 37.05640233 54.1015625 30.859375 C46.74460125 24.38186659 39.07809289 22.02442112 29.28125 22.16796875 C28.28925598 22.17098999 28.28925598 22.17098999 27.27722168 22.17407227 C24.83969039 22.18442628 22.40225907 22.21234764 19.96484375 22.23828125 C11.76640625 22.30015625 11.76640625 22.30015625 3.40234375 22.36328125 Z " fill="#FFFFFF" transform="translate(816.59765625,23.63671875)"/>
<path d="M0 0 C10.47663784 8.63229325 18.04082262 21.4725249 20.3125 34.875 C21.86994456 55.3273397 19.72673582 73.08800064 6.0625 89.25 C-3.35894682 99.10332979 -15.71977232 105.32241808 -29.3515625 106.078125 C-44.46625035 106.25699705 -57.21194845 103.54987498 -68.86035156 93.25683594 C-69.57789612 92.62420837 -70.29544067 91.99158081 -71.034729 91.33978271 C-71.58014343 90.85640442 -72.12555786 90.37302612 -72.6875 89.875 C-72.69336624 90.5632486 -72.69923248 91.25149719 -72.70527649 91.96060181 C-72.76926484 99.13106786 -72.85369932 106.30108737 -72.94995117 113.47119141 C-72.98482002 116.14636214 -73.01121881 118.82123638 -73.03393555 121.49658203 C-73.06751267 125.34437788 -73.11983279 129.19153489 -73.17578125 133.0390625 C-73.18536613 134.83000839 -73.18536613 134.83000839 -73.19514465 136.65713501 C-73.38115294 147.18858239 -73.38115294 147.18858239 -76.6875 151.875 C-80.05545125 154.30305788 -82.66662809 155.12924769 -86.75 154.875 C-90.95685799 154.14967966 -93.04513557 152.23800927 -95.6875 148.875 C-96.60767288 146.11448137 -96.81670297 144.46858711 -96.82794189 141.62223816 C-96.83365204 140.75486023 -96.83936218 139.8874823 -96.84524536 138.99382019 C-96.84636322 138.0447731 -96.84748108 137.09572601 -96.84863281 136.11791992 C-96.85359772 135.11584503 -96.85856262 134.11377014 -96.86367798 133.08132935 C-96.87831559 129.75603552 -96.88510731 126.43078954 -96.890625 123.10546875 C-96.8963789 120.7891693 -96.9021366 118.47286986 -96.90789795 116.15657043 C-96.91841506 111.29000629 -96.92425184 106.42345868 -96.92773438 101.55688477 C-96.93319458 95.35126032 -96.95716647 89.14585801 -96.98570633 82.94030285 C-97.00443409 78.14872119 -97.00954387 73.3571917 -97.01107025 68.56557655 C-97.0140788 66.2800711 -97.02204582 63.99456617 -97.03525543 61.70909691 C-97.19694114 31.56156208 -97.19694114 31.56156208 -89.6875 17.875 C-88.96433594 16.55048828 -88.96433594 16.55048828 -88.2265625 15.19921875 C-80.16042906 1.50951341 -67.98695535 -6.58101399 -52.9375 -11.0625 C-34.0834723 -15.12065302 -15.68806874 -11.16685448 0 0 Z M-65.5078125 19.7578125 C-73.66879968 29.88727901 -75.42804417 41.23089396 -74.6875 53.875 C-73.12452559 63.33231972 -68.28971898 72.60976426 -60.6796875 78.5625 C-51.34543307 84.71212645 -42.8290674 86.84205536 -31.6875 85.875 C-21.19594367 83.43995708 -12.90867349 77.61426752 -6.6875 68.875 C-1.06183618 59.84432913 0.6298327 49.60187584 -1.15234375 39.1484375 C-3.79117226 28.06223488 -9.37886909 19.50433747 -18.6875 12.875 C-34.6158577 4.06845608 -52.76407186 6.57651853 -65.5078125 19.7578125 Z " fill="#FFFFFF" transform="translate(548.6875,85.125)"/>
<path d="M0 0 C12.02812715 9.95877194 17.94225256 22.55212653 21.16796875 37.60546875 C22.42836207 55.2509752 19.93993959 73.12673897 8.2265625 87.08203125 C7.62972656 87.74976563 7.03289062 88.4175 6.41796875 89.10546875 C5.87269531 89.73195313 5.32742188 90.3584375 4.765625 91.00390625 C-4.04116038 100.49451262 -15.94849227 105.64019323 -28.8359375 106.453125 C-43.91107607 106.96614886 -57.23986629 103.66247749 -68.75488281 93.48730469 C-69.47242737 92.85467712 -70.18997192 92.22204956 -70.92926025 91.57025146 C-71.47467468 91.08687317 -72.02008911 90.60349487 -72.58203125 90.10546875 C-72.58567688 90.82099411 -72.58932251 91.53651947 -72.59307861 92.27372742 C-72.63099414 99.02714625 -72.68788663 105.78010994 -72.76593399 112.53319073 C-72.80539153 116.00481199 -72.83758795 119.47618029 -72.85302734 122.94799805 C-72.87111186 126.94230653 -72.92106967 130.93567018 -72.97265625 134.9296875 C-72.97449921 136.79399666 -72.97449921 136.79399666 -72.97637939 138.69596863 C-73.00595734 140.43720757 -73.00595734 140.43720757 -73.03613281 142.21362305 C-73.04501526 143.23288376 -73.05389771 144.25214447 -73.06304932 145.30229187 C-73.71803726 148.84007794 -75.12781787 150.52171105 -77.58203125 153.10546875 C-81.26258401 155.35469544 -84.36885734 155.22591256 -88.51953125 154.8828125 C-91.91839118 153.60180279 -93.35491087 151.99550766 -95.58203125 149.10546875 C-96.32874456 145.50136429 -96.25489097 141.94909558 -96.21313477 138.27929688 C-96.22029007 137.1875415 -96.22744537 136.09578613 -96.2348175 134.97094727 C-96.25173313 131.35911269 -96.23227319 127.74851507 -96.2109375 124.13671875 C-96.2117664 121.61909889 -96.21422659 119.10147909 -96.21824646 116.5838623 C-96.22110709 111.30117112 -96.20691724 106.0189156 -96.17895508 100.73632812 C-96.14703582 94.65998876 -96.1468672 88.58429256 -96.16416985 82.50790834 C-96.18014369 76.63616743 -96.17312359 70.76466042 -96.15623283 64.89292908 C-96.15107674 62.40844748 -96.1515013 59.92394741 -96.15777779 57.43946838 C-96.19704815 32.5346614 -96.19704815 32.5346614 -91.58203125 22.10546875 C-91.07542969 20.94789062 -90.56882812 19.7903125 -90.046875 18.59765625 C-81.76035393 4.39824675 -70.23440798 -5.48780471 -54.45703125 -10.33203125 C-35.30226001 -14.85631771 -16.02483403 -11.75800984 0 0 Z M-67.046875 23.0390625 C-73.40205956 31.59349668 -75.5523991 41.57004637 -74.58203125 52.10546875 C-72.78612844 63.63546663 -67.68984904 72.72698345 -58.58203125 80.10546875 C-49.35329918 85.94182104 -39.14411946 87.68405466 -28.45703125 85.453125 C-17.63078428 82.23563068 -10.71977302 76.64535377 -5.0234375 66.91796875 C0.32669088 56.47869387 1.22363771 45.15044916 -2.14453125 33.85546875 C-6.37801471 22.77760786 -13.1155012 14.89847421 -24.0234375 10.01171875 C-40.95175741 4.14250992 -55.96547889 9.73633869 -67.046875 23.0390625 Z " fill="#FFFFFF" transform="translate(696.58203125,84.89453125)"/>
<path d="M0 0 C11.20451467 9.57723266 18.93614221 22.23103725 21.20703125 36.89453125 C21.51074676 41.65002057 21.53477473 46.39598071 21.54296875 51.16015625 C21.5494091 52.52537165 21.55613834 53.89058571 21.56314087 55.25579834 C21.57504173 58.0999268 21.57882854 60.94393437 21.57763672 63.78808594 C21.57743247 67.42530763 21.60487391 71.06175726 21.63918114 74.69879532 C21.66143818 77.51100209 21.66547486 80.32302148 21.66441727 83.13530731 C21.66790815 85.12560309 21.6895527 87.11584043 21.71151733 89.10601807 C21.70536407 90.31787781 21.69921082 91.52973755 21.69287109 92.77832031 C21.69572113 93.84149475 21.69857117 94.90466919 21.70150757 96.00006104 C21.08469098 99.61066314 19.71939563 101.27949364 17.20703125 103.89453125 C13.5097775 105.74315813 9.24241683 105.37040219 5.20703125 104.89453125 C2.2727993 103.09806271 0.7349777 101.95042415 -0.79296875 98.89453125 C-1.01918956 97.19089303 -1.20185348 95.48124424 -1.35546875 93.76953125 C-1.43925781 92.85945313 -1.52304687 91.949375 -1.609375 91.01171875 C-1.66996094 90.31304687 -1.73054688 89.614375 -1.79296875 88.89453125 C-2.18226563 89.33023438 -2.5715625 89.7659375 -2.97265625 90.21484375 C-12.71660776 100.58743729 -25.0452555 105.83543118 -39.27832031 106.31640625 C-53.9101211 106.42022391 -68.15701283 102.11029038 -78.98828125 91.86328125 C-91.80960983 77.87637735 -96.61552801 61.05867321 -96.0703125 42.4453125 C-95.29763829 26.86678981 -88.26110153 12.419561 -76.79296875 1.89453125 C-54.7314319 -16.6110342 -22.91191007 -17.27205528 0 0 Z M-65.10546875 20.26953125 C-73.4636988 30.78098954 -75.01253036 42.88171525 -73.79296875 55.89453125 C-71.72739331 66.13582745 -65.57817653 74.70388424 -57.0078125 80.609375 C-47.80486482 85.94935699 -38.23965679 87.62722468 -27.8046875 85.19921875 C-18.04185508 81.98545096 -9.45337633 75.79434106 -4.5703125 66.58984375 C0.26652668 56.01467566 1.35951793 42.91390066 -2.41796875 31.76953125 C-6.95166376 21.38180197 -14.2775772 14.03511348 -24.6796875 9.65625 C-39.18250269 4.42880275 -54.8660656 9.02928418 -65.10546875 20.26953125 Z " fill="#FFFFFF" transform="translate(399.79296875,85.10546875)"/>
<path d="M0 0 C11.61639557 9.59529972 18.01217775 23.4747275 19.625 38.28515625 C20.50858019 49.97251243 20.50858019 49.97251243 17.7265625 54.10546875 C14.96619976 56.96844721 14.2574015 57.25565389 10.23348999 57.44337463 C8.74865789 57.46410527 7.26374381 57.4793636 5.77880859 57.49047852 C4.96897018 57.50037811 4.15913177 57.51027771 3.32475281 57.52047729 C0.64101104 57.55213024 -2.04274845 57.57686469 -4.7265625 57.6015625 C-6.5845893 57.62212875 -8.44261139 57.64312514 -10.30062866 57.66453552 C-15.19637235 57.71979015 -20.09215851 57.76918446 -24.98797607 57.81738281 C-29.98160593 57.8675731 -34.97517395 57.92327205 -39.96875 57.97851562 C-49.77078054 58.08613867 -59.57286472 58.18757442 -69.375 58.28515625 C-68.77232881 60.03097447 -68.16131122 61.77391264 -67.546875 63.515625 C-67.03785645 64.97198364 -67.03785645 64.97198364 -66.51855469 66.45776367 C-63.16160103 74.75769543 -56.82128586 80.68257995 -48.81640625 84.5078125 C-36.20122975 89.73758106 -25.08109458 89.35140798 -12.375 84.28515625 C-10.79284431 83.40284826 -9.22779093 82.48866968 -7.6875 81.53515625 C-3.03477335 78.78464934 1.32365496 77.99214526 6.625 79.28515625 C9.38141568 81.04036265 9.97701533 82.26385102 11.625 85.28515625 C12.25 88.84765625 12.25 88.84765625 11.625 92.28515625 C8.01024652 96.57511839 4.07679098 98.99401043 -0.875 101.41015625 C-1.58277588 101.755625 -2.29055176 102.10109375 -3.01977539 102.45703125 C-20.02935708 110.47323883 -37.79440325 110.11984831 -55.375 104.28515625 C-69.37434172 98.93302697 -80.36710575 88.15817116 -86.49707031 74.47851562 C-89.83393655 66.14191765 -90.85327609 58.21280016 -90.75 49.28515625 C-90.76160156 48.28226563 -90.77320313 47.279375 -90.78515625 46.24609375 C-90.72918194 31.80472129 -85.45465376 16.57549616 -75.3046875 6.01953125 C-68.15230436 -0.40892647 -60.4229979 -4.53749469 -51.375 -7.71484375 C-50.32119141 -8.08609375 -50.32119141 -8.08609375 -49.24609375 -8.46484375 C-33.02380816 -13.03629018 -13.56248893 -9.79265237 0 0 Z M-61.375 20.28515625 C-65.53386327 26.02151938 -69.375 32.07339304 -69.375 39.28515625 C-46.935 39.28515625 -24.495 39.28515625 -1.375 39.28515625 C-2.64582586 29.11854936 -5.60554453 22.17171905 -13.375 15.28515625 C-28.39595818 5.8031764 -48.82350011 6.92388217 -61.375 20.28515625 Z " fill="#FFFFFF" transform="translate(1013.375,82.71484375)"/>
<path d="M0 0 C0.84691406 0.3403125 1.69382812 0.680625 2.56640625 1.03125 C13.18508544 5.82992029 20.87596063 13.55228335 26 24 C30.31249627 35.86264171 31.1566984 47.01840772 31.16796875 59.51171875 C31.17296135 61.4413018 31.17296135 61.4413018 31.17805481 63.40986633 C31.18400902 66.11871177 31.18589828 68.82752545 31.18530273 71.53637695 C31.1852007 74.99963715 31.1989118 78.46269425 31.21607494 81.92590618 C31.22988013 85.24618015 31.22928339 88.56641645 31.23046875 91.88671875 C31.23765427 93.12636887 31.24483978 94.36601898 31.25224304 95.64323425 C31.24916641 96.79825943 31.24608978 97.95328461 31.24291992 99.14331055 C31.24434494 100.15620651 31.24576996 101.16910248 31.24723816 102.21269226 C30.87606298 106.39723831 29.74071795 109.14354487 27 112.3125 C22.69290703 114.73523979 18.83265011 114.94431094 14 114 C11.17575712 111.80977082 9.58491397 110.16982793 8 107 C7.89514732 105.05159008 7.85397102 103.09963168 7.84228516 101.1484375 C7.83202301 99.91955811 7.82176086 98.69067871 7.81118774 97.42456055 C7.80774982 96.76531586 7.8043119 96.10607117 7.80076981 95.42684937 C7.78896061 93.35714218 7.76949745 91.28764177 7.74765015 89.21801758 C7.68614058 83.33242828 7.63222897 77.44685506 7.59863281 71.56103516 C7.57752607 67.95995 7.54208642 64.35923407 7.49787521 60.75836182 C7.48382801 59.39345693 7.4750186 58.02848661 7.47182083 56.66351318 C7.44360396 45.76123828 6.4772111 36.93408428 0 28 C0 27.34 0 26.68 0 26 C-0.515625 25.7525 -1.03125 25.505 -1.5625 25.25 C-4 24 -4 24 -7.1875 22 C-15.59328856 17.20691205 -25.82130523 16.70741189 -35.0625 19.125 C-43.00092448 21.80858689 -48.89960488 25.7639001 -53.125 33.0703125 C-55.01764139 37.24426272 -55.12840547 41.03905797 -55.1418457 45.60107422 C-55.14532013 46.25526337 -55.14879456 46.90945251 -55.15237427 47.58346558 C-55.15970841 48.99991894 -55.16506623 50.41638363 -55.16866493 51.83285141 C-55.17585606 54.07804326 -55.19154174 56.32301981 -55.21000671 58.56814575 C-55.262355 64.95018584 -55.31044545 71.33210522 -55.32592773 77.71435547 C-55.3360284 81.62252943 -55.36540142 85.53015659 -55.40724754 89.43811417 C-55.4195294 90.9235533 -55.42468394 92.40906973 -55.42244911 93.89455795 C-55.42008681 95.97700814 -55.4423274 98.05789806 -55.4699707 100.14013672 C-55.47583694 101.32276093 -55.48170319 102.50538513 -55.48774719 103.72384644 C-56.10719494 107.68557376 -57.52391869 109.88250683 -60 113 C-63.7295815 114.86479075 -67.93920305 114.55968105 -72 114 C-75.10837206 112.44891614 -77.49803908 110.48984573 -78.6439867 107.08861446 C-79.00661512 104.96119125 -79.12863837 102.98960636 -79.13371277 100.83216858 C-79.13797775 100.00930862 -79.14224274 99.18644867 -79.14663696 98.33865356 C-79.14618378 97.44451752 -79.14573059 96.55038147 -79.14526367 95.62915039 C-79.14862228 94.68074783 -79.1519809 93.73234528 -79.15544128 92.75520325 C-79.16494217 89.61934094 -79.16689389 86.48353206 -79.16796875 83.34765625 C-79.17118164 81.16816689 -79.17454573 78.98867775 -79.17805481 76.80918884 C-79.18404371 72.24038188 -79.18589492 67.67159382 -79.18530273 63.1027832 C-79.18520106 57.24722159 -79.19885992 51.3917811 -79.21607494 45.53624821 C-79.22719006 41.03498273 -79.2292221 36.53374659 -79.22869301 32.0324688 C-79.2298736 29.87350484 -79.23429982 27.71454013 -79.24202538 25.55558968 C-79.25181643 22.53705464 -79.24895076 19.51878337 -79.24291992 16.50024414 C-79.24853943 15.60813232 -79.25415894 14.71602051 -79.25994873 13.796875 C-79.23111058 8.12012195 -78.85570899 4.08064342 -74.9375 -0.3125 C-70.88987263 -2.63773274 -67.56661512 -2.68789302 -63 -2 C-59.96500593 -0.70851316 -58.52541595 0.22438597 -56.6875 2.9375 C-56 5 -56 5 -56 9 C-55.40574219 8.54109375 -54.81148437 8.0821875 -54.19921875 7.609375 C-39.01245716 -3.63307992 -17.86822954 -7.18204364 0 0 Z " fill="#FFFFFF" transform="translate(1138,76)"/>
<path d="M0 0 C1.48113281 0.32581055 1.48113281 0.32581055 2.9921875 0.65820312 C3.93320312 0.87283203 4.87421875 1.08746094 5.84375 1.30859375 C7.11508789 1.59754517 7.11508789 1.59754517 8.41210938 1.89233398 C10.5 2.5625 10.5 2.5625 12.5 4.5625 C13.09297288 11.81501444 10.80083604 19.51864471 9.25 26.5625 C9.05784912 27.49489502 8.86569824 28.42729004 8.66772461 29.38793945 C7.11601091 36.0725732 7.11601091 36.0725732 3.828125 38.6875 C2.67570312 39.120625 2.67570312 39.120625 1.5 39.5625 C-2.50844582 37.44693137 -4.76051393 35.13905126 -7.5 31.5625 C-8.30179688 31.98660156 -9.10359375 32.41070312 -9.9296875 32.84765625 C-62.56018245 59.99830841 -123.39531481 63.48294935 -179.58984375 45.67578125 C-188.6390633 42.68949436 -197.51470018 39.32766443 -206.1875 35.375 C-206.87650391 35.06643066 -207.56550781 34.75786133 -208.27539062 34.43994141 C-212.41008253 32.46179566 -215.07825969 30.47454203 -217.5 26.5625 C-218.53746703 22.10749453 -218.08097786 18.53771283 -215.75 14.625 C-213.15204239 12.24353886 -211.07618397 10.65956368 -207.48999023 10.4387207 C-201.27791688 11.1337228 -196.205103 13.13298684 -190.5625 15.75 C-141.61959478 37.46222638 -89.86812092 38.97868733 -39.61279297 20.38623047 C-35.16253797 18.65117612 -30.78855133 16.73665749 -26.44702148 14.74633789 C-21.68110554 12.5625 -21.68110554 12.5625 -19.5 12.5625 C-19.87253906 11.98242188 -20.24507812 11.40234375 -20.62890625 10.8046875 C-24.5147462 4.38828694 -24.5147462 4.38828694 -24.4375 0.0625 C-21.65776871 -7.35011678 -5.90759613 -1.36543495 0 0 Z " fill="#FFFFFF" transform="translate(307.5,38.4375)"/>
<path d="M0 0 C3.58552881 1.63687185 4.79315055 2.68972583 7 6 C7.17162025 8.68594915 7.23224552 11.26544901 7.1953125 13.94921875 C7.1924826 14.72183548 7.18965271 15.49445221 7.18673706 16.29048157 C7.17554878 18.75631243 7.15044703 21.22177906 7.125 23.6875 C7.11496843 25.36002079 7.10584289 27.03254728 7.09765625 28.70507812 C7.07561392 32.80352559 7.04109363 36.90170106 7 41 C7.64026123 40.97905273 8.28052246 40.95810547 8.94018555 40.93652344 C11.85579575 40.85310716 14.77115452 40.80126031 17.6875 40.75 C19.19860352 40.69972656 19.19860352 40.69972656 20.74023438 40.6484375 C28.2503749 40.54929373 28.2503749 40.54929373 32.14453125 42.890625 C34.56306838 45.64011984 34.96272822 46.60491916 35.3125 50.3125 C34.95124058 54.57536111 33.98007946 56.01992054 31 59 C28.49502996 60.25248502 26.79146726 60.11374406 23.9921875 60.09765625 C23.00605469 60.09443359 22.01992187 60.09121094 21.00390625 60.08789062 C19.97136719 60.07951172 18.93882813 60.07113281 17.875 60.0625 C16.31458984 60.05573242 16.31458984 60.05573242 14.72265625 60.04882812 C12.14838038 60.03701952 9.57421854 60.02055075 7 60 C7.06723543 67.66835999 7.15713434 75.33621958 7.26245117 83.00415039 C7.29561126 85.61020958 7.32367065 88.21633904 7.34643555 90.82250977 C7.38014489 94.5785911 7.43247112 98.33403355 7.48828125 102.08984375 C7.49467117 103.24645004 7.5010611 104.40305634 7.50764465 105.5947113 C7.63541871 116.33332583 7.63541871 116.33332583 12.45137024 125.61753845 C18.05093683 130.42235659 22.36279706 130.20708231 29.51953125 130.42578125 C33.49209276 131.08118702 35.16178394 132.20375387 38 135 C39.85726616 138.71453232 39.58501089 142.95579425 39 147 C36.80977082 149.82424288 35.16982793 151.41508603 32 153 C22.35972237 153.64479927 13.64345861 153.85454525 5 149 C3.96875 148.443125 2.9375 147.88625 1.875 147.3125 C-7.74426555 139.57526466 -13.26901536 130.2820415 -15 118 C-15.0822882 115.99954372 -15.11789688 113.99677215 -15.11352539 111.99462891 C-15.11344986 110.83387848 -15.11337433 109.67312805 -15.11329651 108.47720337 C-15.10813522 107.23949188 -15.10297394 106.0017804 -15.09765625 104.7265625 C-15.0962413 103.44768158 -15.09482635 102.16880066 -15.09336853 100.85116577 C-15.08873022 97.46788664 -15.07976081 94.08467614 -15.06866455 90.70141602 C-15.05839515 87.24235626 -15.05385911 83.78328939 -15.04882812 80.32421875 C-15.03781609 73.54946034 -15.02109064 66.77473413 -15 60 C-15.97146973 60.02247803 -16.94293945 60.04495605 -17.94384766 60.06811523 C-19.847229 60.0943396 -19.847229 60.0943396 -21.7890625 60.12109375 C-23.04928223 60.14357178 -24.30950195 60.1660498 -25.60791016 60.18920898 C-29 60 -29 60 -32.375 58.0625 C-34.55889385 53.94670005 -34.94728653 50.56575041 -34 46 C-32.12379387 43.49839182 -30.76108697 42.38054348 -28 41 C-25.7927077 40.92907158 -23.58332548 40.91584975 -21.375 40.9375 C-20.18648437 40.94652344 -18.99796875 40.95554688 -17.7734375 40.96484375 C-16.85820313 40.97644531 -15.94296875 40.98804688 -15 41 C-15.01571045 40.02651611 -15.0314209 39.05303223 -15.04760742 38.05004883 C-15.10206239 34.42529633 -15.13640626 30.80057974 -15.16479492 27.17553711 C-15.17984622 25.60906893 -15.20029207 24.04264264 -15.22631836 22.47631836 C-15.26286433 20.21978394 -15.27976261 17.96380847 -15.29296875 15.70703125 C-15.30845261 15.01100296 -15.32393646 14.31497467 -15.33988953 13.59785461 C-15.3417458 8.18854598 -13.95030045 5.09476715 -10.3125 1.1875 C-6.920356 -0.55441178 -3.69231196 -0.55054353 0 0 Z " fill="#FFFFFF" transform="translate(1223,37)"/>
<path d="M0 0 C0.06950591 11.64815063 0.12281437 23.29625192 0.15543652 34.94456768 C0.17109339 40.35333773 0.19233226 45.7619659 0.22631836 51.1706543 C0.25891073 56.39019478 0.27685285 61.60959878 0.28463173 66.82923317 C0.29017543 68.82074952 0.30100088 70.81225839 0.31719017 72.80371666 C0.33896267 75.59286017 0.34196698 78.38143949 0.34057617 81.1706543 C0.351362 81.99424438 0.36214783 82.81783447 0.3732605 83.66638184 C0.34285229 89.30081151 -0.79220812 92.53746291 -4.625 96.8125 C-8.37175571 98.68587786 -11.90657475 98.77902557 -16 98 C-19.06881816 96.28095248 -21.40357084 94.19285833 -23 91 C-23.09309071 88.34519619 -23.1257896 85.7168528 -23.11352539 83.06201172 C-23.11367142 82.24241974 -23.11381744 81.42282776 -23.1139679 80.57839966 C-23.11326974 77.8621356 -23.10548188 75.14593962 -23.09765625 72.4296875 C-23.09579173 70.54924558 -23.09436798 68.66880317 -23.09336853 66.7883606 C-23.08954607 61.83338078 -23.07971808 56.87843017 -23.06866455 51.92346191 C-23.05844461 46.86955155 -23.05386966 41.81563647 -23.04882812 36.76171875 C-23.03809559 26.84113299 -23.0210224 16.92056892 -23 7 C-22.39014755 6.79698776 -21.7802951 6.59397552 -21.15196228 6.3848114 C-20.3476326 6.11691299 -19.54330292 5.84901459 -18.71459961 5.57299805 C-17.91912216 5.30811081 -17.12364471 5.04322357 -16.30406189 4.77030945 C-14.38949316 4.13021797 -12.47759662 3.48214038 -10.56640625 2.83203125 C-9.57511719 2.49558594 -8.58382813 2.15914063 -7.5625 1.8125 C-6.55316406 1.46832031 -5.54382813 1.12414062 -4.50390625 0.76953125 C-2 0 -2 0 0 0 Z " fill="#FFFFFF" transform="translate(270,92)"/>
<path d="M0 0 C5.58609561 1.19009865 11.07875828 2.52779367 16.5625 4.125 C17.78066406 4.47820312 18.99882812 4.83140625 20.25390625 5.1953125 C21.61322266 5.59363281 21.61322266 5.59363281 23 6 C23.06951846 16.86584497 23.12282072 27.73163701 23.15543652 38.59765911 C23.17109068 43.64322962 23.19232451 48.68864794 23.22631836 53.73413086 C23.25892053 58.60354419 23.27685489 63.47281116 23.28463173 68.34232521 C23.29017368 70.19987098 23.30099576 72.05740876 23.31719017 73.9148922 C23.33897586 76.51724925 23.34196645 79.11900193 23.34057617 81.72143555 C23.351362 82.4889212 23.36214783 83.25640686 23.3732605 84.04714966 C23.34725484 88.54746149 22.77546645 91.41782559 20 95 C15.99266798 97.69063722 11.6641491 97.80694621 7 97 C3.42763326 95.0729972 1.30439298 92.91317895 0 89 C-0.09149466 86.15479596 -0.12597774 83.33455054 -0.11352539 80.48950195 C-0.11367142 79.62099609 -0.11381744 78.75249023 -0.1139679 77.85766602 C-0.11327076 74.98451243 -0.10548761 72.11142352 -0.09765625 69.23828125 C-0.09579137 67.24716731 -0.09436779 65.25605292 -0.09336853 63.26493835 C-0.0895489 58.02227514 -0.07972332 52.77963959 -0.06866455 47.5369873 C-0.05843854 42.18807347 -0.05386835 36.83915517 -0.04882812 31.49023438 C-0.03810058 20.99347742 -0.02103077 10.49674101 0 0 Z " fill="#FFFFFF" transform="translate(127,93)"/>
<path d="M0 0 C3.06881816 1.71904752 5.40357084 3.80714167 7 7 C7.08977728 8.51164392 7.11757433 10.02720179 7.11352539 11.54150391 C7.11344986 12.48232819 7.11337433 13.42315247 7.11329651 14.39248657 C7.10813522 15.41023163 7.10297394 16.42797668 7.09765625 17.4765625 C7.0962413 18.51694672 7.09482635 19.55733093 7.09336853 20.62924194 C7.08775866 23.96119021 7.07520447 27.29307195 7.0625 30.625 C7.05748627 32.88020736 7.05292314 35.13541578 7.04882812 37.390625 C7.03778603 42.92710614 7.02103827 48.46354832 7 54 C-0.89520997 52.18120817 -8.44509488 49.92975651 -16 47 C-16.07428762 41.53738362 -16.12866714 36.07506284 -16.16479492 30.61206055 C-16.17985946 28.75458655 -16.20031509 26.89714799 -16.22631836 25.03979492 C-16.26280459 22.36628461 -16.2797497 19.69324556 -16.29296875 17.01953125 C-16.30845261 16.19226028 -16.32393646 15.36498932 -16.33988953 14.51264954 C-16.34155186 8.78725232 -15.27145702 5.53354822 -11.375 1.1875 C-7.62824429 -0.68587786 -4.09342525 -0.77902557 0 0 Z " fill="#FFFFFF" transform="translate(143,3)"/>
<path d="M0 0 C4.11185354 2.36212863 5.63628963 4.53533738 7 9 C7.16585708 11.89572199 7.23341501 14.68990202 7.1953125 17.58203125 C7.1924826 18.39621017 7.18965271 19.2103891 7.18673706 20.04924011 C7.17558584 22.637146 7.15049083 25.22469958 7.125 27.8125 C7.11496365 29.57226061 7.10583894 31.33202667 7.09765625 33.09179688 C7.0756631 37.39466598 7.04116836 41.69727336 7 46 C5.43534365 46.63131932 3.8701283 47.26125332 2.3046875 47.890625 C1.43312012 48.24157227 0.56155273 48.59251953 -0.33642578 48.95410156 C-10.64005602 53 -10.64005602 53 -16 53 C-16.12703233 46.55897132 -16.21444812 40.11826698 -16.2746582 33.67626953 C-16.29976434 31.48604256 -16.33385637 29.29589906 -16.37719727 27.10595703 C-16.43801907 23.95324078 -16.46624923 20.80163447 -16.48828125 17.6484375 C-16.51408768 16.67321136 -16.5398941 15.69798523 -16.56648254 14.69320679 C-16.56833821 10.17019291 -16.50852844 7.00235457 -13.59448242 3.39697266 C-9.30997311 -0.56137047 -5.67065975 -0.70637976 0 0 Z " fill="#FFFFFF" transform="translate(263,3)"/>
</svg>
